<svg version="1.1" xmlns="http://www.w3.org/2000/svg" xmlns:xlink="http://www.w3.org/1999/xlink" width="232.20000000000002" height="195.4"><defs><linearGradient id="JmqrEyNkMPxf" x1="576.5px" x2="1129.0000007152557px" y1="300px" y2="400px" gradientUnits="userSpaceOnUse"><stop offset="0" stop-color="rgb(255,193,7)" stop-opacity="1"/><stop offset="1" stop-color="rgb(211,211,211)" stop-opacity="1"/></linearGradient><linearGradient id="ClDeDGdvusMF" x1="576.5px" x2="1129.0000007152557px" y1="433.00000071525574px" y2="400px" gradientUnits="userSpaceOnUse"><stop offset="0" stop-color="rgb(255,193,7)" stop-opacity="1"/><stop offset="1" stop-color="rgb(211,211,211)" stop-opacity="1"/></linearGradient><linearGradient id="bTqRiJAtVTHv" x1="1129.0000007152557px" x2="576.5px" y1="400px" y2="1028.2000007152558px" gradientUnits="userSpaceOnUse"><stop offset="0" stop-color="rgb(211,211,211)" stop-opacity="1"/><stop offset="1" stop-color="rgb(29,122,218)" stop-opacity="1"/></linearGradient><linearGradient id="WslMLhAaRsOf" x1="1403.0000007152557px" x2="300px" y1="439px" y2="1385.700002861023px" gradientUnits="userSpaceOnUse"><stop offset="0" stop-color="rgb(211,211,211)" stop-opacity="1"/><stop offset="1" stop-color="rgb(29,122,218)" stop-opacity="1"/></linearGradient><linearGradient id="TGuVgIzyqAPz" x1="1403.0000007152557px" x2="300px" y1="439px" y2="1119.7000014305115px" gradientUnits="userSpaceOnUse"><stop offset="0" stop-color="rgb(211,211,211)" stop-opacity="1"/><stop offset="1" stop-color="rgb(29,122,218)" stop-opacity="1"/></linearGradient><linearGradient id="bktxtBdaxAzJ" x1="1403.0000007152557px" x2="300px" y1="439px" y2="1518.7000035762787px" gradientUnits="userSpaceOnUse"><stop offset="0" stop-color="rgb(211,211,211)" stop-opacity="1"/><stop offset="1" stop-color="rgb(29,122,218)" stop-opacity="1"/></linearGradient><linearGradient id="AHoklnnfxppe" x1="1403.0000007152557px" x2="300px" y1="439px" y2="1252.7000021457673px" gradientUnits="userSpaceOnUse"><stop offset="0" stop-color="rgb(211,211,211)" stop-opacity="1"/><stop offset="1" stop-color="rgb(29,122,218)" stop-opacity="1"/></linearGradient></defs><g transform="translate(28.1,4.75) scale(0.1,0.1)"><path fill="rgb(244,236,255)" stroke="rgb(255,255,255)" paint-order="fill stroke markers" d=" M 879.5000003576279 -45.5 L 2030.0000007152557 -45.5 L 2030.0000007152557 -45.5 A 8 8 0 0 1 2038.0000007152557 -37.5 L 2038.0000007152557 1896.2000035762787 L 2038.0000007152557 1896.2000035762787 A 8 8 0 0 1 2030.0000007152557 1904.2000035762787 L -271 1904.2000035762787 L -271 1904.2000035762787 A 8 8 0 0 1 -279 1896.2000035762787 L -279 -37.5 L -279 -37.5 A 8 8 0 0 1 -271 -45.5 L 879.5000003576279 -45.5 Z" fill-opacity="1" stroke-opacity="1" stroke-miterlimit="10" stroke-width="2"/><text fill="rgb(0,0,0)" stroke="none" font-family="Avenir, Helvetica, Arial, sans-serif" font-size="32px" font-style="normal" font-weight="bold" text-decoration="normal" x="879.5000003576279" y="29.5" text-anchor="middle" dominant-baseline="text-after-edge" fill-opacity="1">.</text><path fill="rgb(255,255,255)" stroke="rgb(211,211,211)" paint-order="fill stroke markers" d=" M 300 157.5 L 669.5 157.5 L 669.5 157.5 A 8 8 0 0 1 677.5 165.5 L 677.5 567.5000007152557 L 677.5 567.5000007152557 A 8 8 0 0 1 669.5 575.5000007152557 L -69.5 575.5000007152557 L -69.5 575.5000007152557 A 8 8 0 0 1 -77.5 567.5000007152557 L -77.5 165.5 L -77.5 165.5 A 8 8 0 0 1 -69.5 157.5 L 300 157.5 Z" fill-opacity="1" stroke-opacity="1" stroke-miterlimit="10"/><text fill="rgb(0,0,0)" stroke="none" font-family="Avenir, Helvetica, Arial, sans-serif" font-size="32px" font-style="normal" font-weight="bold" text-decoration="normal" x="300" y="232.5" text-anchor="middle" dominant-baseline="text-after-edge" fill-opacity="1">outputs.tf</text><path fill="rgb(255,255,255)" stroke="rgb(211,211,211)" paint-order="fill stroke markers" d=" M 300 885.7000007152558 L 669.5 885.7000007152558 L 669.5 885.7000007152558 A 8 8 0 0 1 677.5 893.7000007152558 L 677.5 1694.7000035762787 L 677.5 1694.7000035762787 A 8 8 0 0 1 669.5 1702.7000035762787 L -69.5 1702.7000035762787 L -69.5 1702.7000035762787 A 8 8 0 0 1 -77.5 1694.7000035762787 L -77.5 893.7000007152558 L -77.5 893.7000007152558 A 8 8 0 0 1 -69.5 885.7000007152558 L 300 885.7000007152558 Z" fill-opacity="1" stroke-opacity="1" stroke-miterlimit="10"/><text fill="rgb(0,0,0)" stroke="none" font-family="Avenir, Helvetica, Arial, sans-serif" font-size="32px" font-style="normal" font-weight="bold" text-decoration="normal" x="300" y="960.7000007152558" text-anchor="middle" dominant-baseline="text-after-edge" fill-opacity="1">variables.tf</text><path fill="rgb(255,255,255)" stroke="rgb(211,211,211)" paint-order="fill stroke markers" d=" M 1403.0000007152557 156 L 1828.5000007152557 156 L 1828.5000007152557 156 A 8 8 0 0 1 1836.5000007152557 164 L 1836.5000007152557 590.5 L 1836.5000007152557 590.5 A 8 8 0 0 1 1828.5000007152557 598.5 L 977.5000007152557 598.5 L 977.5000007152557 598.5 A 8 8 0 0 1 969.5000007152557 590.5 L 969.5000007152557 164 L 969.5000007152557 164 A 8 8 0 0 1 977.5000007152557 156 L 1403.0000007152557 156 Z" fill-opacity="1" stroke-opacity="1" stroke-miterlimit="10"/><text fill="rgb(0,0,0)" stroke="none" font-family="Avenir, Helvetica, Arial, sans-serif" font-size="32px" font-style="normal" font-weight="bold" text-decoration="normal" x="1403.0000007152557" y="231" text-anchor="middle" dominant-baseline="text-after-edge" fill-opacity="1">main.tf</text><path fill="rgb(255,255,255)" stroke="rgb(0,0,0)" paint-order="fill stroke markers" d=" M 1403.0000007152557 305 L 1725.0000007152557 305 L 1725.0000007152557 305 A 8 8 0 0 1 1733.0000007152557 313 L 1733.0000007152557 487 L 1733.0000007152557 487 A 8 8 0 0 1 1725.0000007152557 495 L 1081.0000007152557 495 L 1081.0000007152557 495 A 8 8 0 0 1 1073.0000007152557 487 L 1073.0000007152557 313 L 1073.0000007152557 313 A 8 8 0 0 1 1081.0000007152557 305 L 1403.0000007152557 305 Z" fill-opacity="1" stroke-opacity="1" stroke-miterlimit="10" stroke-width="5"/><rect fill="rgb(255,255,255)" stroke="none" x="1274.5000007152557" y="256" width="257" height="96" fill-opacity="1"/><text fill="rgb(0,0,0)" stroke="none" font-family="Avenir, Helvetica, Arial, sans-serif" font-size="32px" font-style="normal" font-weight="bold" text-decoration="normal" x="1403.0000007152557" y="320" text-anchor="middle" dominant-baseline="text-after-edge" fill-opacity="1">hcloud_rdns</text><path fill="none" stroke="url(#JmqrEyNkMPxf)" paint-order="fill stroke markers" d=" M 576.5 300 L 852.7500003576279 300 L 852.7500003576279 400 L 1129.0000007152557 400" stroke-linejoin="round" stroke-miterlimit="10" stroke-width="10"/><path fill="none" stroke="url(#ClDeDGdvusMF)" paint-order="fill stroke markers" d=" M 576.5 433.00000071525574 L 852.7500003576279 433.00000071525574 L 852.7500003576279 400 L 1129.0000007152557 400" stroke-linejoin="round" stroke-miterlimit="10" stroke-width="10"/><path fill="none" stroke="url(#bTqRiJAtVTHv)" paint-order="fill stroke markers" d=" M 1129.0000007152557 400 L 852.7500003576279 400 L 852.7500003576279 1028.2000007152558 L 576.5 1028.2000007152558" stroke-linejoin="round" stroke-miterlimit="10" stroke-width="10"/><path fill="none" stroke="url(#WslMLhAaRsOf)" paint-order="fill stroke markers" d=" M 1403.0000007152557 439 L 1403.0000007152557 912.3500014305115 L 300 912.3500014305115 L 300 1385.700002861023" stroke-linejoin="round" stroke-miterlimit="10" stroke-width="10"/><path fill="none" stroke="url(#TGuVgIzyqAPz)" paint-order="fill stroke markers" d=" M 1403.0000007152557 439 L 1403.0000007152557 779.3500007152558 L 300 779.3500007152558 L 300 1119.7000014305115" stroke-linejoin="round" stroke-miterlimit="10" stroke-width="10"/><path fill="none" stroke="url(#bktxtBdaxAzJ)" paint-order="fill stroke markers" d=" M 1403.0000007152557 439 L 1403.0000007152557 978.8500017881394 L 300 978.8500017881394 L 300 1518.7000035762787" stroke-linejoin="round" stroke-miterlimit="10" stroke-width="10"/><path fill="none" stroke="url(#AHoklnnfxppe)" paint-order="fill stroke markers" d=" M 1403.0000007152557 439 L 1403.0000007152557 845.8500010728836 L 300 845.8500010728836 L 300 1252.7000021457673" stroke-linejoin="round" stroke-miterlimit="10" stroke-width="10"/><path fill="rgb(255,247,224)" stroke="rgb(255,193,7)" paint-order="fill stroke markers" d=" M 300 261 L 566 261 L 566 261 A 8 8 0 0 1 574 269 L 574 331 L 574 331 A 8 8 0 0 1 566 339 L 34 339 L 34 339 A 8 8 0 0 1 26 331 L 26 269 L 26 269 A 8 8 0 0 1 34 261 L 300 261 Z" fill-opacity="1" stroke-opacity="1" stroke-miterlimit="10" stroke-width="5"/><text fill="rgb(0,0,0)" stroke="none" font-family="Avenir, Helvetica, Arial, sans-serif" font-size="32px" font-style="normal" font-weight="bold" text-decoration="normal" x="300" y="316" text-anchor="middle" dominant-baseline="text-after-edge" fill-opacity="1">dns_ptr</text><path fill="rgb(255,247,224)" stroke="rgb(255,193,7)" paint-order="fill stroke markers" d=" M 300 394.00000071525574 L 566 394.00000071525574 L 566 394.00000071525574 A 8 8 0 0 1 574 402.00000071525574 L 574 464.00000071525574 L 574 464.00000071525574 A 8 8 0 0 1 566 472.00000071525574 L 34 472.00000071525574 L 34 472.00000071525574 A 8 8 0 0 1 26 464.00000071525574 L 26 402.00000071525574 L 26 402.00000071525574 A 8 8 0 0 1 34 394.00000071525574 L 300 394.00000071525574 Z" fill-opacity="1" stroke-opacity="1" stroke-miterlimit="10" stroke-width="5"/><text fill="rgb(0,0,0)" stroke="none" font-family="Avenir, Helvetica, Arial, sans-serif" font-size="32px" font-style="normal" font-weight="bold" text-decoration="normal" x="300" y="449.00000071525574" text-anchor="middle" dominant-baseline="text-after-edge" fill-opacity="1">ip_address</text><path fill="rgb(225,240,255)" stroke="rgb(29,122,218)" paint-order="fill stroke markers" d=" M 300 989.2000007152558 L 566 989.2000007152558 L 566 989.2000007152558 A 8 8 0 0 1 574 997.2000007152558 L 574 1059.2000007152558 L 574 1059.2000007152558 A 8 8 0 0 1 566 1067.2000007152558 L 34 1067.2000007152558 L 34 1067.2000007152558 A 8 8 0 0 1 26 1059.2000007152558 L 26 997.2000007152558 L 26 997.2000007152558 A 8 8 0 0 1 34 989.2000007152558 L 300 989.2000007152558 Z" fill-opacity="1" stroke-opacity="1" stroke-miterlimit="10" stroke-width="5"/><text fill="rgb(0,0,0)" stroke="none" font-family="Avenir, Helvetica, Arial, sans-serif" font-size="32px" font-style="normal" font-weight="bold" text-decoration="normal" x="300" y="1044.2000007152558" text-anchor="middle" dominant-baseline="text-after-edge" fill-opacity="1">ip_address</text><path fill="rgb(225,240,255)" stroke="rgb(29,122,218)" paint-order="fill stroke markers" d=" M 300 1122.2000014305115 L 566 1122.2000014305115 L 566 1122.2000014305115 A 8 8 0 0 1 574 1130.2000014305115 L 574 1192.2000014305115 L 574 1192.2000014305115 A 8 8 0 0 1 566 1200.2000014305115 L 34 1200.2000014305115 L 34 1200.2000014305115 A 8 8 0 0 1 26 1192.2000014305115 L 26 1130.2000014305115 L 26 1130.2000014305115 A 8 8 0 0 1 34 1122.2000014305115 L 300 1122.2000014305115 Z" fill-opacity="1" stroke-opacity="1" stroke-miterlimit="10" stroke-width="5"/><text fill="rgb(0,0,0)" stroke="none" font-family="Avenir, Helvetica, Arial, sans-serif" font-size="32px" font-style="normal" font-weight="bold" text-decoration="normal" x="300" y="1177.2000014305115" text-anchor="middle" dominant-baseline="text-after-edge" fill-opacity="1">server_id</text><path fill="rgb(225,240,255)" stroke="rgb(29,122,218)" paint-order="fill stroke markers" d=" M 300 1255.2000021457673 L 566 1255.2000021457673 L 566 1255.2000021457673 A 8 8 0 0 1 574 1263.2000021457673 L 574 1325.2000021457673 L 574 1325.2000021457673 A 8 8 0 0 1 566 1333.2000021457673 L 34 1333.2000021457673 L 34 1333.2000021457673 A 8 8 0 0 1 26 1325.2000021457673 L 26 1263.2000021457673 L 26 1263.2000021457673 A 8 8 0 0 1 34 1255.2000021457673 L 300 1255.2000021457673 Z" fill-opacity="1" stroke-opacity="1" stroke-miterlimit="10" stroke-width="5"/><text fill="rgb(0,0,0)" stroke="none" font-family="Avenir, Helvetica, Arial, sans-serif" font-size="32px" font-style="normal" font-weight="bold" text-decoration="normal" x="300" y="1310.2000021457673" text-anchor="middle" dominant-baseline="text-after-edge" fill-opacity="1">floating_ip_id</text><path fill="rgb(225,240,255)" stroke="rgb(29,122,218)" paint-order="fill stroke markers" d=" M 300 1388.200002861023 L 566 1388.200002861023 L 566 1388.200002861023 A 8 8 0 0 1 574 1396.200002861023 L 574 1458.200002861023 L 574 1458.200002861023 A 8 8 0 0 1 566 1466.200002861023 L 34 1466.200002861023 L 34 1466.200002861023 A 8 8 0 0 1 26 1458.200002861023 L 26 1396.200002861023 L 26 1396.200002861023 A 8 8 0 0 1 34 1388.200002861023 L 300 1388.200002861023 Z" fill-opacity="1" stroke-opacity="1" stroke-miterlimit="10" stroke-width="5"/><text fill="rgb(0,0,0)" stroke="none" font-family="Avenir, Helvetica, Arial, sans-serif" font-size="32px" font-style="normal" font-weight="bold" text-decoration="normal" x="300" y="1443.200002861023" text-anchor="middle" dominant-baseline="text-after-edge" fill-opacity="1">load_balancer_id</text><path fill="rgb(225,240,255)" stroke="rgb(29,122,218)" paint-order="fill stroke markers" d=" M 300 1521.2000035762787 L 566 1521.2000035762787 L 566 1521.2000035762787 A 8 8 0 0 1 574 1529.2000035762787 L 574 1591.2000035762787 L 574 1591.2000035762787 A 8 8 0 0 1 566 1599.2000035762787 L 34 1599.2000035762787 L 34 1599.2000035762787 A 8 8 0 0 1 26 1591.2000035762787 L 26 1529.2000035762787 L 26 1529.2000035762787 A 8 8 0 0 1 34 1521.2000035762787 L 300 1521.2000035762787 Z" fill-opacity="1" stroke-opacity="1" stroke-miterlimit="10" stroke-width="5"/><text fill="rgb(0,0,0)" stroke="none" font-family="Avenir, Helvetica, Arial, sans-serif" font-size="32px" font-style="normal" font-weight="bold" text-decoration="normal" x="300" y="1576.2000035762787" text-anchor="middle" dominant-baseline="text-after-edge" fill-opacity="1">dns_ptr</text><path fill="rgb(40,167,69)" stroke="none" paint-order="stroke fill markers" d=" M 1403.0000007152557 361 L 1669.0000007152557 361 L 1669.0000007152557 361 A 8 8 0 0 1 1677.0000007152557 369 L 1677.0000007152557 431 L 1677.0000007152557 431 A 8 8 0 0 1 1669.0000007152557 439 L 1137.0000007152557 439 L 1137.0000007152557 439 A 8 8 0 0 1 1129.0000007152557 431 L 1129.0000007152557 369 L 1129.0000007152557 369 A 8 8 0 0 1 1137.0000007152557 361 L 1403.0000007152557 361 Z" fill-opacity="1"/><text fill="rgb(255,255,255)" stroke="none" font-family="Avenir, Helvetica, Arial, sans-serif" font-size="32px" font-style="normal" font-weight="bold" text-decoration="normal" x="1403.0000007152557" y="416" text-anchor="middle" dominant-baseline="text-after-edge" fill-opacity="1">default</text><g transform="scale(10,10) translate(-28.1,-4.75)"/></g></svg>