<svg version="1.1" xmlns="http://www.w3.org/2000/svg" xmlns:xlink="http://www.w3.org/1999/xlink" width="867.6" height="632.8000000000001"><defs><linearGradient id="JkFEfrQbyGfM" x1="2306.0000014305115px" x2="1079.5000003576279px" y1="474.50000071525574px" y2="1048.5000021457672px" gradientUnits="userSpaceOnUse"><stop offset="0" stop-color="rgb(255,193,7)" stop-opacity="1"/><stop offset="1" stop-color="rgb(132,80,186)" stop-opacity="1"/></linearGradient><linearGradient id="JlcZkINSyfPe" x1="2306.0000014305115px" x2="1079.5000003576279px" y1="474.50000071525574px" y2="1048.5000021457672px" gradientUnits="userSpaceOnUse"><stop offset="0" stop-color="rgb(255,193,7)" stop-opacity="1"/><stop offset="1" stop-color="rgb(132,80,186)" stop-opacity="1"/></linearGradient><linearGradient id="FfXylVFCGauJ" x1="2306.0000014305115px" x2="1079.5000003576279px" y1="607.5000014305115px" y2="1048.5000021457672px" gradientUnits="userSpaceOnUse"><stop offset="0" stop-color="rgb(255,193,7)" stop-opacity="1"/><stop offset="1" stop-color="rgb(132,80,186)" stop-opacity="1"/></linearGradient><linearGradient id="oTaIVbxBFvlb" x1="2306.0000014305115px" x2="1079.5000003576279px" y1="607.5000014305115px" y2="1048.5000021457672px" gradientUnits="userSpaceOnUse"><stop offset="0" stop-color="rgb(255,193,7)" stop-opacity="1"/><stop offset="1" stop-color="rgb(132,80,186)" stop-opacity="1"/></linearGradient><linearGradient id="ygKfSubDqGnB" x1="2306.0000014305115px" x2="1079.5000003576279px" y1="341.5px" y2="1048.5000021457672px" gradientUnits="userSpaceOnUse"><stop offset="0" stop-color="rgb(255,193,7)" stop-opacity="1"/><stop offset="1" stop-color="rgb(132,80,186)" stop-opacity="1"/></linearGradient><linearGradient id="GCJCtauDWHIn" x1="2306.0000014305115px" x2="1079.5000003576279px" y1="341.5px" y2="1048.5000021457672px" gradientUnits="userSpaceOnUse"><stop offset="0" stop-color="rgb(255,193,7)" stop-opacity="1"/><stop offset="1" stop-color="rgb(132,80,186)" stop-opacity="1"/></linearGradient><linearGradient id="pAWxsdTNLurZ" x1="2143.0000007152557px" x2="3132.500002145767px" y1="1928.3500039339065px" y2="400px" gradientUnits="userSpaceOnUse"><stop offset="0" stop-color="rgb(132,80,186)" stop-opacity="1"/><stop offset="1" stop-color="rgb(220,71,125)" stop-opacity="1"/></linearGradient><linearGradient id="PCHUrefAwsZd" x1="1079.5000003576279px" x2="1303.0000007152557px" y1="1048.5000021457672px" y2="341.5px" gradientUnits="userSpaceOnUse"><stop offset="0" stop-color="rgb(132,80,186)" stop-opacity="1"/><stop offset="1" stop-color="rgb(0,0,0)" stop-opacity="1"/></linearGradient><linearGradient id="QVPvMTWNIedy" x1="776.5px" x2="1329.0000007152557px" y1="1432.000002861023px" y2="1399.0000021457672px" gradientUnits="userSpaceOnUse"><stop offset="0" stop-color="rgb(255,193,7)" stop-opacity="1"/><stop offset="1" stop-color="rgb(211,211,211)" stop-opacity="1"/></linearGradient><linearGradient id="inHGPEphNoZL" x1="776.5px" x2="1329.0000007152557px" y1="1299.0000021457672px" y2="1399.0000021457672px" gradientUnits="userSpaceOnUse"><stop offset="0" stop-color="rgb(255,193,7)" stop-opacity="1"/><stop offset="1" stop-color="rgb(211,211,211)" stop-opacity="1"/></linearGradient><linearGradient id="LTwbpkdUlRZX" x1="1329.0000007152557px" x2="776.5px" y1="1399.0000021457672px" y2="2027.200002861023px" gradientUnits="userSpaceOnUse"><stop offset="0" stop-color="rgb(211,211,211)" stop-opacity="1"/><stop offset="1" stop-color="rgb(29,122,218)" stop-opacity="1"/></linearGradient><linearGradient id="UFqauJbttxVl" x1="1603.0000007152557px" x2="500px" y1="1438.0000021457672px" y2="2384.70000500679px" gradientUnits="userSpaceOnUse"><stop offset="0" stop-color="rgb(211,211,211)" stop-opacity="1"/><stop offset="1" stop-color="rgb(29,122,218)" stop-opacity="1"/></linearGradient><linearGradient id="QWTbdZhgtgZP" x1="1603.0000007152557px" x2="500px" y1="1438.0000021457672px" y2="2118.7000035762785px" gradientUnits="userSpaceOnUse"><stop offset="0" stop-color="rgb(211,211,211)" stop-opacity="1"/><stop offset="1" stop-color="rgb(29,122,218)" stop-opacity="1"/></linearGradient><linearGradient id="mJSLTErTqUHN" x1="1603.0000007152557px" x2="500px" y1="1438.0000021457672px" y2="2517.7000057220457px" gradientUnits="userSpaceOnUse"><stop offset="0" stop-color="rgb(211,211,211)" stop-opacity="1"/><stop offset="1" stop-color="rgb(29,122,218)" stop-opacity="1"/></linearGradient><linearGradient id="HFVInKbHaLRw" x1="1603.0000007152557px" x2="500px" y1="1438.0000021457672px" y2="2251.7000042915342px" gradientUnits="userSpaceOnUse"><stop offset="0" stop-color="rgb(211,211,211)" stop-opacity="1"/><stop offset="1" stop-color="rgb(29,122,218)" stop-opacity="1"/></linearGradient></defs><g transform="translate(57.7,10.100000000000001) scale(0.2,0.2)"><path fill="rgb(244,236,255)" stroke="rgb(255,255,255)" paint-order="fill stroke markers" d=" M 1880.2500010728836 -48.5 L 4039.000002145767 -48.5 L 4039.000002145767 -48.5 A 8 8 0 0 1 4047.000002145767 -40.5 L 4047.000002145767 3102.7000057220457 L 4047.000002145767 3102.7000057220457 A 8 8 0 0 1 4039.000002145767 3110.7000057220457 L -278.5 3110.7000057220457 L -278.5 3110.7000057220457 A 8 8 0 0 1 -286.5 3102.7000057220457 L -286.5 -40.5 L -286.5 -40.5 A 8 8 0 0 1 -278.5 -48.5 L 1880.2500010728836 -48.5 Z" fill-opacity="1" stroke-opacity="1" stroke-miterlimit="10" stroke-width="2"/><text fill="rgb(0,0,0)" stroke="none" font-family="Avenir, Helvetica, Arial, sans-serif" font-size="32px" font-style="normal" font-weight="bold" text-decoration="normal" x="1880.2500010728836" y="26.5" text-anchor="middle" dominant-baseline="text-after-edge" fill-opacity="1">.</text><path fill="rgb(255,255,255)" stroke="rgb(211,211,211)" paint-order="fill stroke markers" d=" M 300 157.5 L 669.5 157.5 L 669.5 157.5 A 8 8 0 0 1 677.5 165.5 L 677.5 434.5 L 677.5 434.5 A 8 8 0 0 1 669.5 442.5 L -69.5 442.5 L -69.5 442.5 A 8 8 0 0 1 -77.5 434.5 L -77.5 165.5 L -77.5 165.5 A 8 8 0 0 1 -69.5 157.5 L 300 157.5 Z" fill-opacity="1" stroke-opacity="1" stroke-miterlimit="10"/><text fill="rgb(0,0,0)" stroke="none" font-family="Avenir, Helvetica, Arial, sans-serif" font-size="32px" font-style="normal" font-weight="bold" text-decoration="normal" x="300" y="232.5" text-anchor="middle" dominant-baseline="text-after-edge" fill-opacity="1">variables.tf</text><path fill="rgb(255,255,255)" stroke="rgb(211,211,211)" paint-order="fill stroke markers" d=" M 3409.000002145767 153 L 3837.500002145767 153 L 3837.500002145767 153 A 8 8 0 0 1 3845.500002145767 161 L 3845.500002145767 593.5 L 3845.500002145767 593.5 A 8 8 0 0 1 3837.500002145767 601.5 L 2980.500002145767 601.5 L 2980.500002145767 601.5 A 8 8 0 0 1 2972.500002145767 593.5 L 2972.500002145767 161 L 2972.500002145767 161 A 8 8 0 0 1 2980.500002145767 153 L 3409.000002145767 153 Z" fill-opacity="1" stroke-opacity="1" stroke-miterlimit="10"/><text fill="rgb(0,0,0)" stroke="none" font-family="Avenir, Helvetica, Arial, sans-serif" font-size="32px" font-style="normal" font-weight="bold" text-decoration="normal" x="3409.000002145767" y="228" text-anchor="middle" dominant-baseline="text-after-edge" fill-opacity="1">data.tf</text><path fill="rgb(255,255,255)" stroke="rgb(211,211,211)" paint-order="fill stroke markers" d=" M 1079.5000003576279 947.5000021457672 L 2236.0000007152557 947.5000021457672 L 2236.0000007152557 947.5000021457672 A 8 8 0 0 1 2244.0000007152557 955.5000021457672 L 2244.0000007152557 2901.2000057220457 L 2244.0000007152557 2901.2000057220457 A 8 8 0 0 1 2236.0000007152557 2909.2000057220457 L -77 2909.2000057220457 L -77 2909.2000057220457 A 8 8 0 0 1 -85 2901.2000057220457 L -85 955.5000021457672 L -85 955.5000021457672 A 8 8 0 0 1 -77 947.5000021457672 L 1079.5000003576279 947.5000021457672 Z" fill-opacity="1" stroke-opacity="1" stroke-miterlimit="10"/><text fill="rgb(0,0,0)" stroke="none" font-family="Avenir, Helvetica, Arial, sans-serif" font-size="32px" font-style="normal" font-weight="bold" text-decoration="normal" x="1079.5000003576279" y="1022.5000021457672" text-anchor="middle" dominant-baseline="text-after-edge" fill-opacity="1">main.tf</text><path fill="rgb(255,255,255)" stroke="rgb(211,211,211)" paint-order="fill stroke markers" d=" M 1303.0000007152557 157.5 L 1672.5000007152557 157.5 L 1672.5000007152557 157.5 A 8 8 0 0 1 1680.5000007152557 165.5 L 1680.5000007152557 434.5 L 1680.5000007152557 434.5 A 8 8 0 0 1 1672.5000007152557 442.5 L 933.5000007152557 442.5 L 933.5000007152557 442.5 A 8 8 0 0 1 925.5000007152557 434.5 L 925.5000007152557 165.5 L 925.5000007152557 165.5 A 8 8 0 0 1 933.5000007152557 157.5 L 1303.0000007152557 157.5 Z" fill-opacity="1" stroke-opacity="1" stroke-miterlimit="10"/><text fill="rgb(0,0,0)" stroke="none" font-family="Avenir, Helvetica, Arial, sans-serif" font-size="32px" font-style="normal" font-weight="bold" text-decoration="normal" x="1303.0000007152557" y="232.5" text-anchor="middle" dominant-baseline="text-after-edge" fill-opacity="1">unknown file</text><path fill="rgb(255,255,255)" stroke="rgb(211,211,211)" paint-order="fill stroke markers" d=" M 2306.0000014305115 157.5 L 2675.5000014305115 157.5 L 2675.5000014305115 157.5 A 8 8 0 0 1 2683.5000014305115 165.5 L 2683.5000014305115 700.5000014305115 L 2683.5000014305115 700.5000014305115 A 8 8 0 0 1 2675.5000014305115 708.5000014305115 L 1936.5000014305115 708.5000014305115 L 1936.5000014305115 708.5000014305115 A 8 8 0 0 1 1928.5000014305115 700.5000014305115 L 1928.5000014305115 165.5 L 1928.5000014305115 165.5 A 8 8 0 0 1 1936.5000014305115 157.5 L 2306.0000014305115 157.5 Z" fill-opacity="1" stroke-opacity="1" stroke-miterlimit="10"/><text fill="rgb(0,0,0)" stroke="none" font-family="Avenir, Helvetica, Arial, sans-serif" font-size="32px" font-style="normal" font-weight="bold" text-decoration="normal" x="2306.0000014305115" y="232.5" text-anchor="middle" dominant-baseline="text-after-edge" fill-opacity="1">outputs.tf</text><path fill="rgb(255,255,255)" stroke="rgb(0,0,0)" paint-order="fill stroke markers" d=" M 3409.000002145767 302 L 3734.000002145767 302 L 3734.000002145767 302 A 8 8 0 0 1 3742.000002145767 310 L 3742.000002145767 490 L 3742.000002145767 490 A 8 8 0 0 1 3734.000002145767 498 L 3084.000002145767 498 L 3084.000002145767 498 A 8 8 0 0 1 3076.000002145767 490 L 3076.000002145767 310 L 3076.000002145767 310 A 8 8 0 0 1 3084.000002145767 302 L 3409.000002145767 302 Z" fill-opacity="1" stroke-opacity="1" stroke-miterlimit="10" stroke-width="5"/><rect fill="rgb(255,255,255)" stroke="none" x="3272.500002145767" y="253" width="273" height="96" fill-opacity="1"/><text fill="rgb(0,0,0)" stroke="none" font-family="Avenir, Helvetica, Arial, sans-serif" font-size="32px" font-style="normal" font-weight="bold" text-decoration="normal" x="3409.000002145767" y="317" text-anchor="middle" dominant-baseline="text-after-edge" fill-opacity="1">hcloud_server</text><path fill="rgb(255,255,255)" stroke="rgb(132,80,186)" paint-order="fill stroke markers" d=" M 1079.5000003576279 1053.5000021457672 L 2130.0000007152557 1053.5000021457672 L 2130.0000007152557 1053.5000021457672 A 8 8 0 0 1 2138.0000007152557 1061.5000021457672 L 2138.0000007152557 2795.2000057220457 L 2138.0000007152557 2795.2000057220457 A 8 8 0 0 1 2130.0000007152557 2803.2000057220457 L 29 2803.2000057220457 L 29 2803.2000057220457 A 8 8 0 0 1 21 2795.2000057220457 L 21 1061.5000021457672 L 21 1061.5000021457672 A 8 8 0 0 1 29 1053.5000021457672 L 1079.5000003576279 1053.5000021457672 Z" fill-opacity="1" stroke-opacity="1" stroke-miterlimit="10" stroke-width="10"/><text fill="rgb(132,80,186)" stroke="none" font-family="Avenir, Helvetica, Arial, sans-serif" font-size="32px" font-style="normal" font-weight="bold" text-decoration="normal" x="1079.5000003576279" y="1113.5000021457672" text-anchor="middle" dominant-baseline="text-after-edge" fill-opacity="1">hcloud_rdns</text><path fill="rgb(255,255,255)" stroke="rgb(211,211,211)" paint-order="fill stroke markers" d=" M 500 1156.5000021457672 L 869.5 1156.5000021457672 L 869.5 1156.5000021457672 A 8 8 0 0 1 877.5 1164.5000021457672 L 877.5 1566.500002861023 L 877.5 1566.500002861023 A 8 8 0 0 1 869.5 1574.500002861023 L 130.5 1574.500002861023 L 130.5 1574.500002861023 A 8 8 0 0 1 122.5 1566.500002861023 L 122.5 1164.5000021457672 L 122.5 1164.5000021457672 A 8 8 0 0 1 130.5 1156.5000021457672 L 500 1156.5000021457672 Z" fill-opacity="1" stroke-opacity="1" stroke-miterlimit="10"/><text fill="rgb(0,0,0)" stroke="none" font-family="Avenir, Helvetica, Arial, sans-serif" font-size="32px" font-style="normal" font-weight="bold" text-decoration="normal" x="500" y="1231.5000021457672" text-anchor="middle" dominant-baseline="text-after-edge" fill-opacity="1">outputs.tf</text><path fill="rgb(255,255,255)" stroke="rgb(211,211,211)" paint-order="fill stroke markers" d=" M 500 1884.7000028610228 L 869.5 1884.7000028610228 L 869.5 1884.7000028610228 A 8 8 0 0 1 877.5 1892.7000028610228 L 877.5 2693.7000057220457 L 877.5 2693.7000057220457 A 8 8 0 0 1 869.5 2701.7000057220457 L 130.5 2701.7000057220457 L 130.5 2701.7000057220457 A 8 8 0 0 1 122.5 2693.7000057220457 L 122.5 1892.7000028610228 L 122.5 1892.7000028610228 A 8 8 0 0 1 130.5 1884.7000028610228 L 500 1884.7000028610228 Z" fill-opacity="1" stroke-opacity="1" stroke-miterlimit="10"/><text fill="rgb(0,0,0)" stroke="none" font-family="Avenir, Helvetica, Arial, sans-serif" font-size="32px" font-style="normal" font-weight="bold" text-decoration="normal" x="500" y="1959.7000028610228" text-anchor="middle" dominant-baseline="text-after-edge" fill-opacity="1">variables.tf</text><path fill="rgb(255,255,255)" stroke="rgb(211,211,211)" paint-order="fill stroke markers" d=" M 1603.0000007152557 1155.0000021457672 L 2028.5000007152557 1155.0000021457672 L 2028.5000007152557 1155.0000021457672 A 8 8 0 0 1 2036.5000007152557 1163.0000021457672 L 2036.5000007152557 1589.5000021457672 L 2036.5000007152557 1589.5000021457672 A 8 8 0 0 1 2028.5000007152557 1597.5000021457672 L 1177.5000007152557 1597.5000021457672 L 1177.5000007152557 1597.5000021457672 A 8 8 0 0 1 1169.5000007152557 1589.5000021457672 L 1169.5000007152557 1163.0000021457672 L 1169.5000007152557 1163.0000021457672 A 8 8 0 0 1 1177.5000007152557 1155.0000021457672 L 1603.0000007152557 1155.0000021457672 Z" fill-opacity="1" stroke-opacity="1" stroke-miterlimit="10"/><text fill="rgb(0,0,0)" stroke="none" font-family="Avenir, Helvetica, Arial, sans-serif" font-size="32px" font-style="normal" font-weight="bold" text-decoration="normal" x="1603.0000007152557" y="1230.0000021457672" text-anchor="middle" dominant-baseline="text-after-edge" fill-opacity="1">main.tf</text><path fill="rgb(255,255,255)" stroke="rgb(0,0,0)" paint-order="fill stroke markers" d=" M 1603.0000007152557 1304.0000021457672 L 1925.0000007152557 1304.0000021457672 L 1925.0000007152557 1304.0000021457672 A 8 8 0 0 1 1933.0000007152557 1312.0000021457672 L 1933.0000007152557 1486.0000021457672 L 1933.0000007152557 1486.0000021457672 A 8 8 0 0 1 1925.0000007152557 1494.0000021457672 L 1281.0000007152557 1494.0000021457672 L 1281.0000007152557 1494.0000021457672 A 8 8 0 0 1 1273.0000007152557 1486.0000021457672 L 1273.0000007152557 1312.0000021457672 L 1273.0000007152557 1312.0000021457672 A 8 8 0 0 1 1281.0000007152557 1304.0000021457672 L 1603.0000007152557 1304.0000021457672 Z" fill-opacity="1" stroke-opacity="1" stroke-miterlimit="10" stroke-width="5"/><rect fill="rgb(255,255,255)" stroke="none" x="1480.5000007152557" y="1255.0000021457672" width="245" height="96" fill-opacity="1"/><text fill="rgb(0,0,0)" stroke="none" font-family="Avenir, Helvetica, Arial, sans-serif" font-size="32px" font-style="normal" font-weight="bold" text-decoration="normal" x="1603.0000007152557" y="1319.0000021457672" text-anchor="middle" dominant-baseline="text-after-edge" fill-opacity="1">hcloud_rdns</text><path fill="none" stroke="url(#JkFEfrQbyGfM)" paint-order="fill stroke markers" d=" M 2306.0000014305115 474.50000071525574 L 2306.0000014305115 761.5000014305115 L 1079.5000003576279 761.5000014305115 L 1079.5000003576279 1048.5000021457672" stroke-linejoin="round" stroke-miterlimit="10" stroke-width="10"/><path fill="none" stroke="url(#JlcZkINSyfPe)" paint-order="fill stroke markers" d=" M 2306.0000014305115 474.50000071525574 L 2306.0000014305115 761.5000014305115 L 1079.5000003576279 761.5000014305115 L 1079.5000003576279 1048.5000021457672" stroke-linejoin="round" stroke-miterlimit="10" stroke-width="10"/><path fill="none" stroke="url(#FfXylVFCGauJ)" paint-order="fill stroke markers" d=" M 2306.0000014305115 607.5000014305115 L 2306.0000014305115 828.0000017881393 L 1079.5000003576279 828.0000017881393 L 1079.5000003576279 1048.5000021457672" stroke-linejoin="round" stroke-miterlimit="10" stroke-width="10"/><path fill="none" stroke="url(#oTaIVbxBFvlb)" paint-order="fill stroke markers" d=" M 2306.0000014305115 607.5000014305115 L 2306.0000014305115 828.0000017881393 L 1079.5000003576279 828.0000017881393 L 1079.5000003576279 1048.5000021457672" stroke-linejoin="round" stroke-miterlimit="10" stroke-width="10"/><path fill="none" stroke="url(#ygKfSubDqGnB)" paint-order="fill stroke markers" d=" M 2306.0000014305115 341.5 L 2306.0000014305115 695.0000010728836 L 1079.5000003576279 695.0000010728836 L 1079.5000003576279 1048.5000021457672" stroke-linejoin="round" stroke-miterlimit="10" stroke-width="10"/><path fill="none" stroke="url(#GCJCtauDWHIn)" paint-order="fill stroke markers" d=" M 2306.0000014305115 341.5 L 2306.0000014305115 695.0000010728836 L 1079.5000003576279 695.0000010728836 L 1079.5000003576279 1048.5000021457672" stroke-linejoin="round" stroke-miterlimit="10" stroke-width="10"/><path fill="none" stroke="url(#pAWxsdTNLurZ)" paint-order="fill stroke markers" d=" M 2143.0000007152557 1928.3500039339065 L 2637.7500014305115 1928.3500039339065 L 2637.7500014305115 400 L 3132.500002145767 400" stroke-linejoin="round" stroke-miterlimit="10" stroke-width="10"/><path fill="none" stroke="url(#PCHUrefAwsZd)" paint-order="fill stroke markers" d=" M 1079.5000003576279 1048.5000021457672 L 1079.5000003576279 695.0000010728836 L 1303.0000007152557 695.0000010728836 L 1303.0000007152557 341.5" stroke-linejoin="round" stroke-miterlimit="10" stroke-width="10"/><path fill="none" stroke="url(#QVPvMTWNIedy)" paint-order="fill stroke markers" d=" M 776.5 1432.000002861023 L 1052.7500003576279 1432.000002861023 L 1052.7500003576279 1399.0000021457672 L 1329.0000007152557 1399.0000021457672" stroke-linejoin="round" stroke-miterlimit="10" stroke-width="10"/><path fill="none" stroke="url(#inHGPEphNoZL)" paint-order="fill stroke markers" d=" M 776.5 1299.0000021457672 L 1052.7500003576279 1299.0000021457672 L 1052.7500003576279 1399.0000021457672 L 1329.0000007152557 1399.0000021457672" stroke-linejoin="round" stroke-miterlimit="10" stroke-width="10"/><path fill="none" stroke="url(#LTwbpkdUlRZX)" paint-order="fill stroke markers" d=" M 1329.0000007152557 1399.0000021457672 L 1052.7500003576279 1399.0000021457672 L 1052.7500003576279 2027.200002861023 L 776.5 2027.200002861023" stroke-linejoin="round" stroke-miterlimit="10" stroke-width="10"/><path fill="none" stroke="url(#UFqauJbttxVl)" paint-order="fill stroke markers" d=" M 1603.0000007152557 1438.0000021457672 L 1603.0000007152557 1911.3500035762786 L 500 1911.3500035762786 L 500 2384.70000500679" stroke-linejoin="round" stroke-miterlimit="10" stroke-width="10"/><path fill="none" stroke="url(#QWTbdZhgtgZP)" paint-order="fill stroke markers" d=" M 1603.0000007152557 1438.0000021457672 L 1603.0000007152557 1778.3500028610229 L 500 1778.3500028610229 L 500 2118.7000035762785" stroke-linejoin="round" stroke-miterlimit="10" stroke-width="10"/><path fill="none" stroke="url(#mJSLTErTqUHN)" paint-order="fill stroke markers" d=" M 1603.0000007152557 1438.0000021457672 L 1603.0000007152557 1977.8500039339065 L 500 1977.8500039339065 L 500 2517.7000057220457" stroke-linejoin="round" stroke-miterlimit="10" stroke-width="10"/><path fill="none" stroke="url(#HFVInKbHaLRw)" paint-order="fill stroke markers" d=" M 1603.0000007152557 1438.0000021457672 L 1603.0000007152557 1844.8500032186507 L 500 1844.8500032186507 L 500 2251.7000042915342" stroke-linejoin="round" stroke-miterlimit="10" stroke-width="10"/><path fill="rgb(225,240,255)" stroke="rgb(29,122,218)" paint-order="fill stroke markers" d=" M 300 261 L 566 261 L 566 261 A 8 8 0 0 1 574 269 L 574 331 L 574 331 A 8 8 0 0 1 566 339 L 34 339 L 34 339 A 8 8 0 0 1 26 331 L 26 269 L 26 269 A 8 8 0 0 1 34 261 L 300 261 Z" fill-opacity="1" stroke-opacity="1" stroke-miterlimit="10" stroke-width="5"/><text fill="rgb(0,0,0)" stroke="none" font-family="Avenir, Helvetica, Arial, sans-serif" font-size="32px" font-style="normal" font-weight="bold" text-decoration="normal" x="300" y="316" text-anchor="middle" dominant-baseline="text-after-edge" fill-opacity="1">token</text><path fill="rgb(255,236,236)" stroke="rgb(220,71,125)" paint-order="fill stroke markers" d=" M 3409.000002145767 361 L 3675.000002145767 361 L 3675.000002145767 361 A 8 8 0 0 1 3683.000002145767 369 L 3683.000002145767 431 L 3683.000002145767 431 A 8 8 0 0 1 3675.000002145767 439 L 3143.000002145767 439 L 3143.000002145767 439 A 8 8 0 0 1 3135.000002145767 431 L 3135.000002145767 369 L 3135.000002145767 369 A 8 8 0 0 1 3143.000002145767 361 L 3409.000002145767 361 Z" fill-opacity="1" stroke-opacity="1" stroke-miterlimit="10" stroke-width="5"/><text fill="rgb(0,0,0)" stroke="none" font-family="Avenir, Helvetica, Arial, sans-serif" font-size="32px" font-style="normal" font-weight="bold" text-decoration="normal" x="3409.000002145767" y="416" text-anchor="middle" dominant-baseline="text-after-edge" fill-opacity="1">default</text><path fill="rgb(255,247,224)" stroke="rgb(255,193,7)" paint-order="fill stroke markers" d=" M 500 1260.0000021457672 L 766 1260.0000021457672 L 766 1260.0000021457672 A 8 8 0 0 1 774 1268.0000021457672 L 774 1330.0000021457672 L 774 1330.0000021457672 A 8 8 0 0 1 766 1338.0000021457672 L 234 1338.0000021457672 L 234 1338.0000021457672 A 8 8 0 0 1 226 1330.0000021457672 L 226 1268.0000021457672 L 226 1268.0000021457672 A 8 8 0 0 1 234 1260.0000021457672 L 500 1260.0000021457672 Z" fill-opacity="1" stroke-opacity="1" stroke-miterlimit="10" stroke-width="5"/><text fill="rgb(0,0,0)" stroke="none" font-family="Avenir, Helvetica, Arial, sans-serif" font-size="32px" font-style="normal" font-weight="bold" text-decoration="normal" x="500" y="1315.0000021457672" text-anchor="middle" dominant-baseline="text-after-edge" fill-opacity="1">ip_address</text><path fill="rgb(255,247,224)" stroke="rgb(255,193,7)" paint-order="fill stroke markers" d=" M 500 1393.000002861023 L 766 1393.000002861023 L 766 1393.000002861023 A 8 8 0 0 1 774 1401.000002861023 L 774 1463.000002861023 L 774 1463.000002861023 A 8 8 0 0 1 766 1471.000002861023 L 234 1471.000002861023 L 234 1471.000002861023 A 8 8 0 0 1 226 1463.000002861023 L 226 1401.000002861023 L 226 1401.000002861023 A 8 8 0 0 1 234 1393.000002861023 L 500 1393.000002861023 Z" fill-opacity="1" stroke-opacity="1" stroke-miterlimit="10" stroke-width="5"/><text fill="rgb(0,0,0)" stroke="none" font-family="Avenir, Helvetica, Arial, sans-serif" font-size="32px" font-style="normal" font-weight="bold" text-decoration="normal" x="500" y="1448.000002861023" text-anchor="middle" dominant-baseline="text-after-edge" fill-opacity="1">dns_ptr</text><path fill="rgb(225,240,255)" stroke="rgb(29,122,218)" paint-order="fill stroke markers" d=" M 500 1988.200002861023 L 766 1988.200002861023 L 766 1988.200002861023 A 8 8 0 0 1 774 1996.200002861023 L 774 2058.2000028610228 L 774 2058.2000028610228 A 8 8 0 0 1 766 2066.2000028610228 L 234 2066.2000028610228 L 234 2066.2000028610228 A 8 8 0 0 1 226 2058.2000028610228 L 226 1996.200002861023 L 226 1996.200002861023 A 8 8 0 0 1 234 1988.200002861023 L 500 1988.200002861023 Z" fill-opacity="1" stroke-opacity="1" stroke-miterlimit="10" stroke-width="5"/><text fill="rgb(0,0,0)" stroke="none" font-family="Avenir, Helvetica, Arial, sans-serif" font-size="32px" font-style="normal" font-weight="bold" text-decoration="normal" x="500" y="2043.200002861023" text-anchor="middle" dominant-baseline="text-after-edge" fill-opacity="1">dns_ptr</text><path fill="rgb(225,240,255)" stroke="rgb(29,122,218)" paint-order="fill stroke markers" d=" M 500 2121.2000035762785 L 766 2121.2000035762785 L 766 2121.2000035762785 A 8 8 0 0 1 774 2129.2000035762785 L 774 2191.2000035762785 L 774 2191.2000035762785 A 8 8 0 0 1 766 2199.2000035762785 L 234 2199.2000035762785 L 234 2199.2000035762785 A 8 8 0 0 1 226 2191.2000035762785 L 226 2129.2000035762785 L 226 2129.2000035762785 A 8 8 0 0 1 234 2121.2000035762785 L 500 2121.2000035762785 Z" fill-opacity="1" stroke-opacity="1" stroke-miterlimit="10" stroke-width="5"/><text fill="rgb(0,0,0)" stroke="none" font-family="Avenir, Helvetica, Arial, sans-serif" font-size="32px" font-style="normal" font-weight="bold" text-decoration="normal" x="500" y="2176.2000035762785" text-anchor="middle" dominant-baseline="text-after-edge" fill-opacity="1">ip_address</text><path fill="rgb(225,240,255)" stroke="rgb(29,122,218)" paint-order="fill stroke markers" d=" M 500 2254.2000042915342 L 766 2254.2000042915342 L 766 2254.2000042915342 A 8 8 0 0 1 774 2262.2000042915342 L 774 2324.2000042915342 L 774 2324.2000042915342 A 8 8 0 0 1 766 2332.2000042915342 L 234 2332.2000042915342 L 234 2332.2000042915342 A 8 8 0 0 1 226 2324.2000042915342 L 226 2262.2000042915342 L 226 2262.2000042915342 A 8 8 0 0 1 234 2254.2000042915342 L 500 2254.2000042915342 Z" fill-opacity="1" stroke-opacity="1" stroke-miterlimit="10" stroke-width="5"/><text fill="rgb(0,0,0)" stroke="none" font-family="Avenir, Helvetica, Arial, sans-serif" font-size="32px" font-style="normal" font-weight="bold" text-decoration="normal" x="500" y="2309.2000042915342" text-anchor="middle" dominant-baseline="text-after-edge" fill-opacity="1">server_id</text><path fill="rgb(225,240,255)" stroke="rgb(29,122,218)" paint-order="fill stroke markers" d=" M 500 2387.20000500679 L 766 2387.20000500679 L 766 2387.20000500679 A 8 8 0 0 1 774 2395.20000500679 L 774 2457.20000500679 L 774 2457.20000500679 A 8 8 0 0 1 766 2465.20000500679 L 234 2465.20000500679 L 234 2465.20000500679 A 8 8 0 0 1 226 2457.20000500679 L 226 2395.20000500679 L 226 2395.20000500679 A 8 8 0 0 1 234 2387.20000500679 L 500 2387.20000500679 Z" fill-opacity="1" stroke-opacity="1" stroke-miterlimit="10" stroke-width="5"/><text fill="rgb(0,0,0)" stroke="none" font-family="Avenir, Helvetica, Arial, sans-serif" font-size="32px" font-style="normal" font-weight="bold" text-decoration="normal" x="500" y="2442.20000500679" text-anchor="middle" dominant-baseline="text-after-edge" fill-opacity="1">floating_ip_id</text><path fill="rgb(225,240,255)" stroke="rgb(29,122,218)" paint-order="fill stroke markers" d=" M 500 2520.2000057220457 L 766 2520.2000057220457 L 766 2520.2000057220457 A 8 8 0 0 1 774 2528.2000057220457 L 774 2590.2000057220457 L 774 2590.2000057220457 A 8 8 0 0 1 766 2598.2000057220457 L 234 2598.2000057220457 L 234 2598.2000057220457 A 8 8 0 0 1 226 2590.2000057220457 L 226 2528.2000057220457 L 226 2528.2000057220457 A 8 8 0 0 1 234 2520.2000057220457 L 500 2520.2000057220457 Z" fill-opacity="1" stroke-opacity="1" stroke-miterlimit="10" stroke-width="5"/><text fill="rgb(0,0,0)" stroke="none" font-family="Avenir, Helvetica, Arial, sans-serif" font-size="32px" font-style="normal" font-weight="bold" text-decoration="normal" x="500" y="2575.2000057220457" text-anchor="middle" dominant-baseline="text-after-edge" fill-opacity="1">load_balancer_id</text><path fill="rgb(40,167,69)" stroke="none" paint-order="stroke fill markers" d=" M 1603.0000007152557 1360.0000021457672 L 1869.0000007152557 1360.0000021457672 L 1869.0000007152557 1360.0000021457672 A 8 8 0 0 1 1877.0000007152557 1368.0000021457672 L 1877.0000007152557 1430.0000021457672 L 1877.0000007152557 1430.0000021457672 A 8 8 0 0 1 1869.0000007152557 1438.0000021457672 L 1337.0000007152557 1438.0000021457672 L 1337.0000007152557 1438.0000021457672 A 8 8 0 0 1 1329.0000007152557 1430.0000021457672 L 1329.0000007152557 1368.0000021457672 L 1329.0000007152557 1368.0000021457672 A 8 8 0 0 1 1337.0000007152557 1360.0000021457672 L 1603.0000007152557 1360.0000021457672 Z" fill-opacity="1"/><text fill="rgb(255,255,255)" stroke="none" font-family="Avenir, Helvetica, Arial, sans-serif" font-size="32px" font-style="normal" font-weight="bold" text-decoration="normal" x="1603.0000007152557" y="1415.0000021457672" text-anchor="middle" dominant-baseline="text-after-edge" fill-opacity="1">default</text><path fill="rgb(0,0,0)" stroke="rgb(0,0,0)" paint-order="fill stroke markers" d=" M 1303.0000007152557 261 L 1569.0000007152557 261 L 1569.0000007152557 261 A 8 8 0 0 1 1577.0000007152557 269 L 1577.0000007152557 331 L 1577.0000007152557 331 A 8 8 0 0 1 1569.0000007152557 339 L 1037.0000007152557 339 L 1037.0000007152557 339 A 8 8 0 0 1 1029.0000007152557 331 L 1029.0000007152557 269 L 1029.0000007152557 269 A 8 8 0 0 1 1037.0000007152557 261 L 1303.0000007152557 261 Z" fill-opacity="1" stroke-opacity="1" stroke-miterlimit="10" stroke-width="5"/><text fill="rgb(255,255,255)" stroke="none" font-family="Avenir, Helvetica, Arial, sans-serif" font-size="32px" font-style="normal" font-weight="bold" text-decoration="normal" x="1303.0000007152557" y="316" text-anchor="middle" dominant-baseline="text-after-edge" fill-opacity="1">dns_ptr</text><path fill="rgb(255,247,224)" stroke="rgb(255,193,7)" paint-order="fill stroke markers" d=" M 2306.0000014305115 261 L 2572.0000014305115 261 L 2572.0000014305115 261 A 8 8 0 0 1 2580.0000014305115 269 L 2580.0000014305115 331 L 2580.0000014305115 331 A 8 8 0 0 1 2572.0000014305115 339 L 2040.0000014305115 339 L 2040.0000014305115 339 A 8 8 0 0 1 2032.0000014305115 331 L 2032.0000014305115 269 L 2032.0000014305115 269 A 8 8 0 0 1 2040.0000014305115 261 L 2306.0000014305115 261 Z" fill-opacity="1" stroke-opacity="1" stroke-miterlimit="10" stroke-width="5"/><text fill="rgb(0,0,0)" stroke="none" font-family="Avenir, Helvetica, Arial, sans-serif" font-size="32px" font-style="normal" font-weight="bold" text-decoration="normal" x="2306.0000014305115" y="316" text-anchor="middle" dominant-baseline="text-after-edge" fill-opacity="1">rdns_id</text><path fill="rgb(255,247,224)" stroke="rgb(255,193,7)" paint-order="fill stroke markers" d=" M 2306.0000014305115 394.00000071525574 L 2572.0000014305115 394.00000071525574 L 2572.0000014305115 394.00000071525574 A 8 8 0 0 1 2580.0000014305115 402.00000071525574 L 2580.0000014305115 464.00000071525574 L 2580.0000014305115 464.00000071525574 A 8 8 0 0 1 2572.0000014305115 472.00000071525574 L 2040.0000014305115 472.00000071525574 L 2040.0000014305115 472.00000071525574 A 8 8 0 0 1 2032.0000014305115 464.00000071525574 L 2032.0000014305115 402.00000071525574 L 2032.0000014305115 402.00000071525574 A 8 8 0 0 1 2040.0000014305115 394.00000071525574 L 2306.0000014305115 394.00000071525574 Z" fill-opacity="1" stroke-opacity="1" stroke-miterlimit="10" stroke-width="5"/><text fill="rgb(0,0,0)" stroke="none" font-family="Avenir, Helvetica, Arial, sans-serif" font-size="32px" font-style="normal" font-weight="bold" text-decoration="normal" x="2306.0000014305115" y="449.00000071525574" text-anchor="middle" dominant-baseline="text-after-edge" fill-opacity="1">rdns_dns_ptr</text><path fill="rgb(255,247,224)" stroke="rgb(255,193,7)" paint-order="fill stroke markers" d=" M 2306.0000014305115 527.0000014305115 L 2572.0000014305115 527.0000014305115 L 2572.0000014305115 527.0000014305115 A 8 8 0 0 1 2580.0000014305115 535.0000014305115 L 2580.0000014305115 597.0000014305115 L 2580.0000014305115 597.0000014305115 A 8 8 0 0 1 2572.0000014305115 605.0000014305115 L 2040.0000014305115 605.0000014305115 L 2040.0000014305115 605.0000014305115 A 8 8 0 0 1 2032.0000014305115 597.0000014305115 L 2032.0000014305115 535.0000014305115 L 2032.0000014305115 535.0000014305115 A 8 8 0 0 1 2040.0000014305115 527.0000014305115 L 2306.0000014305115 527.0000014305115 Z" fill-opacity="1" stroke-opacity="1" stroke-miterlimit="10" stroke-width="5"/><text fill="rgb(0,0,0)" stroke="none" font-family="Avenir, Helvetica, Arial, sans-serif" font-size="32px" font-style="normal" font-weight="bold" text-decoration="normal" x="2306.0000014305115" y="582.0000014305115" text-anchor="middle" dominant-baseline="text-after-edge" fill-opacity="1">rdns_ip_address</text><g transform="scale(5,5) translate(-57.7,-10.100000000000001)"/></g></svg>