<svg version="1.1" xmlns="http://www.w3.org/2000/svg" xmlns:xlink="http://www.w3.org/1999/xlink" width="867.6" height="619.6"><defs><linearGradient id="PEbGftiNKKXK" x1="2143.0000007152557px" x2="3132.500002145767px" y1="1862.5500025033953px" y2="400px" gradientUnits="userSpaceOnUse"><stop offset="0" stop-color="rgb(132,80,186)" stop-opacity="1"/><stop offset="1" stop-color="rgb(220,71,125)" stop-opacity="1"/></linearGradient><linearGradient id="ezsDCGOkDhKb" x1="1079.5000003576279px" x2="1303.0000007152557px" y1="982.7000007152559px" y2="341.5px" gradientUnits="userSpaceOnUse"><stop offset="0" stop-color="rgb(132,80,186)" stop-opacity="1"/><stop offset="1" stop-color="rgb(0,0,0)" stop-opacity="1"/></linearGradient><linearGradient id="CNzmoZlslzVN" x1="776.5px" x2="1329.0000007152557px" y1="1366.2000014305115px" y2="1333.2000007152558px" gradientUnits="userSpaceOnUse"><stop offset="0" stop-color="rgb(255,193,7)" stop-opacity="1"/><stop offset="1" stop-color="rgb(211,211,211)" stop-opacity="1"/></linearGradient><linearGradient id="yUNBqqFGLbDm" x1="776.5px" x2="1329.0000007152557px" y1="1233.2000007152558px" y2="1333.2000007152558px" gradientUnits="userSpaceOnUse"><stop offset="0" stop-color="rgb(255,193,7)" stop-opacity="1"/><stop offset="1" stop-color="rgb(211,211,211)" stop-opacity="1"/></linearGradient><linearGradient id="heBDZawMywtS" x1="1603.0000007152557px" x2="500px" y1="1372.2000007152558px" y2="2185.900002861023px" gradientUnits="userSpaceOnUse"><stop offset="0" stop-color="rgb(211,211,211)" stop-opacity="1"/><stop offset="1" stop-color="rgb(29,122,218)" stop-opacity="1"/></linearGradient><linearGradient id="hscgLXTbCquT" x1="1329.0000007152557px" x2="776.5px" y1="1333.2000007152558px" y2="1961.4000014305116px" gradientUnits="userSpaceOnUse"><stop offset="0" stop-color="rgb(211,211,211)" stop-opacity="1"/><stop offset="1" stop-color="rgb(29,122,218)" stop-opacity="1"/></linearGradient><linearGradient id="WKJLaZxZDyJg" x1="1603.0000007152557px" x2="500px" y1="1372.2000007152558px" y2="2318.900003576279px" gradientUnits="userSpaceOnUse"><stop offset="0" stop-color="rgb(211,211,211)" stop-opacity="1"/><stop offset="1" stop-color="rgb(29,122,218)" stop-opacity="1"/></linearGradient><linearGradient id="guhGleSvxnky" x1="1603.0000007152557px" x2="500px" y1="1372.2000007152558px" y2="2052.9000021457673px" gradientUnits="userSpaceOnUse"><stop offset="0" stop-color="rgb(211,211,211)" stop-opacity="1"/><stop offset="1" stop-color="rgb(29,122,218)" stop-opacity="1"/></linearGradient><linearGradient id="yhQtSxTplwcI" x1="1603.0000007152557px" x2="500px" y1="1372.2000007152558px" y2="2451.9000042915345px" gradientUnits="userSpaceOnUse"><stop offset="0" stop-color="rgb(211,211,211)" stop-opacity="1"/><stop offset="1" stop-color="rgb(29,122,218)" stop-opacity="1"/></linearGradient><linearGradient id="AfyzBOLWLfmb" x1="2306.0000014305115px" x2="1079.5000003576279px" y1="474.50000071525574px" y2="982.7000007152559px" gradientUnits="userSpaceOnUse"><stop offset="0" stop-color="rgb(255,193,7)" stop-opacity="1"/><stop offset="1" stop-color="rgb(132,80,186)" stop-opacity="1"/></linearGradient><linearGradient id="GNXwLxsTcGyS" x1="2306.0000014305115px" x2="1079.5000003576279px" y1="474.50000071525574px" y2="982.7000007152559px" gradientUnits="userSpaceOnUse"><stop offset="0" stop-color="rgb(255,193,7)" stop-opacity="1"/><stop offset="1" stop-color="rgb(132,80,186)" stop-opacity="1"/></linearGradient><linearGradient id="yHTZqvyueqXC" x1="2306.0000014305115px" x2="1079.5000003576279px" y1="341.5px" y2="982.7000007152558px" gradientUnits="userSpaceOnUse"><stop offset="0" stop-color="rgb(255,193,7)" stop-opacity="1"/><stop offset="1" stop-color="rgb(132,80,186)" stop-opacity="1"/></linearGradient><linearGradient id="QazUAqztrNHw" x1="2306.0000014305115px" x2="1079.5000003576279px" y1="341.5px" y2="982.7000007152558px" gradientUnits="userSpaceOnUse"><stop offset="0" stop-color="rgb(255,193,7)" stop-opacity="1"/><stop offset="1" stop-color="rgb(132,80,186)" stop-opacity="1"/></linearGradient></defs><g transform="translate(57.7,10.100000000000001) scale(0.2,0.2)"><path fill="rgb(244,236,255)" stroke="rgb(255,255,255)" paint-order="fill stroke markers" d=" M 1880.2500010728836 -48.5 L 4039.000002145767 -48.5 L 4039.000002145767 -48.5 A 8 8 0 0 1 4047.000002145767 -40.5 L 4047.000002145767 3036.9000042915345 L 4047.000002145767 3036.9000042915345 A 8 8 0 0 1 4039.000002145767 3044.9000042915345 L -278.5 3044.9000042915345 L -278.5 3044.9000042915345 A 8 8 0 0 1 -286.5 3036.9000042915345 L -286.5 -40.5 L -286.5 -40.5 A 8 8 0 0 1 -278.5 -48.5 L 1880.2500010728836 -48.5 Z" fill-opacity="1" stroke-opacity="1" stroke-miterlimit="10" stroke-width="2"/><text fill="rgb(0,0,0)" stroke="none" font-family="Avenir, Helvetica, Arial, sans-serif" font-size="32px" font-style="normal" font-weight="bold" text-decoration="normal" x="1880.2500010728836" y="26.5" text-anchor="middle" dominant-baseline="text-after-edge" fill-opacity="1">.</text><path fill="rgb(255,255,255)" stroke="rgb(211,211,211)" paint-order="fill stroke markers" d=" M 2306.0000014305115 157.5 L 2675.5000014305115 157.5 L 2675.5000014305115 157.5 A 8 8 0 0 1 2683.5000014305115 165.5 L 2683.5000014305115 567.5000007152557 L 2683.5000014305115 567.5000007152557 A 8 8 0 0 1 2675.5000014305115 575.5000007152557 L 1936.5000014305115 575.5000007152557 L 1936.5000014305115 575.5000007152557 A 8 8 0 0 1 1928.5000014305115 567.5000007152557 L 1928.5000014305115 165.5 L 1928.5000014305115 165.5 A 8 8 0 0 1 1936.5000014305115 157.5 L 2306.0000014305115 157.5 Z" fill-opacity="1" stroke-opacity="1" stroke-miterlimit="10"/><text fill="rgb(0,0,0)" stroke="none" font-family="Avenir, Helvetica, Arial, sans-serif" font-size="32px" font-style="normal" font-weight="bold" text-decoration="normal" x="2306.0000014305115" y="232.5" text-anchor="middle" dominant-baseline="text-after-edge" fill-opacity="1">outputs.tf</text><path fill="rgb(255,255,255)" stroke="rgb(211,211,211)" paint-order="fill stroke markers" d=" M 300 157.5 L 669.5 157.5 L 669.5 157.5 A 8 8 0 0 1 677.5 165.5 L 677.5 434.5 L 677.5 434.5 A 8 8 0 0 1 669.5 442.5 L -69.5 442.5 L -69.5 442.5 A 8 8 0 0 1 -77.5 434.5 L -77.5 165.5 L -77.5 165.5 A 8 8 0 0 1 -69.5 157.5 L 300 157.5 Z" fill-opacity="1" stroke-opacity="1" stroke-miterlimit="10"/><text fill="rgb(0,0,0)" stroke="none" font-family="Avenir, Helvetica, Arial, sans-serif" font-size="32px" font-style="normal" font-weight="bold" text-decoration="normal" x="300" y="232.5" text-anchor="middle" dominant-baseline="text-after-edge" fill-opacity="1">variables.tf</text><path fill="rgb(255,255,255)" stroke="rgb(211,211,211)" paint-order="fill stroke markers" d=" M 3409.000002145767 153 L 3837.500002145767 153 L 3837.500002145767 153 A 8 8 0 0 1 3845.500002145767 161 L 3845.500002145767 593.5 L 3845.500002145767 593.5 A 8 8 0 0 1 3837.500002145767 601.5 L 2980.500002145767 601.5 L 2980.500002145767 601.5 A 8 8 0 0 1 2972.500002145767 593.5 L 2972.500002145767 161 L 2972.500002145767 161 A 8 8 0 0 1 2980.500002145767 153 L 3409.000002145767 153 Z" fill-opacity="1" stroke-opacity="1" stroke-miterlimit="10"/><text fill="rgb(0,0,0)" stroke="none" font-family="Avenir, Helvetica, Arial, sans-serif" font-size="32px" font-style="normal" font-weight="bold" text-decoration="normal" x="3409.000002145767" y="228" text-anchor="middle" dominant-baseline="text-after-edge" fill-opacity="1">data.tf</text><path fill="rgb(255,255,255)" stroke="rgb(211,211,211)" paint-order="fill stroke markers" d=" M 1079.5000003576279 881.700000715256 L 2236.0000007152557 881.700000715256 L 2236.0000007152557 881.700000715256 A 8 8 0 0 1 2244.0000007152557 889.700000715256 L 2244.0000007152557 2835.4000042915345 L 2244.0000007152557 2835.4000042915345 A 8 8 0 0 1 2236.0000007152557 2843.4000042915345 L -77 2843.4000042915345 L -77 2843.4000042915345 A 8 8 0 0 1 -85 2835.4000042915345 L -85 889.700000715256 L -85 889.700000715256 A 8 8 0 0 1 -77 881.700000715256 L 1079.5000003576279 881.700000715256 Z" fill-opacity="1" stroke-opacity="1" stroke-miterlimit="10"/><text fill="rgb(0,0,0)" stroke="none" font-family="Avenir, Helvetica, Arial, sans-serif" font-size="32px" font-style="normal" font-weight="bold" text-decoration="normal" x="1079.5000003576279" y="956.700000715256" text-anchor="middle" dominant-baseline="text-after-edge" fill-opacity="1">main.tf</text><path fill="rgb(255,255,255)" stroke="rgb(211,211,211)" paint-order="fill stroke markers" d=" M 1303.0000007152557 157.5 L 1672.5000007152557 157.5 L 1672.5000007152557 157.5 A 8 8 0 0 1 1680.5000007152557 165.5 L 1680.5000007152557 434.5 L 1680.5000007152557 434.5 A 8 8 0 0 1 1672.5000007152557 442.5 L 933.5000007152557 442.5 L 933.5000007152557 442.5 A 8 8 0 0 1 925.5000007152557 434.5 L 925.5000007152557 165.5 L 925.5000007152557 165.5 A 8 8 0 0 1 933.5000007152557 157.5 L 1303.0000007152557 157.5 Z" fill-opacity="1" stroke-opacity="1" stroke-miterlimit="10"/><text fill="rgb(0,0,0)" stroke="none" font-family="Avenir, Helvetica, Arial, sans-serif" font-size="32px" font-style="normal" font-weight="bold" text-decoration="normal" x="1303.0000007152557" y="232.5" text-anchor="middle" dominant-baseline="text-after-edge" fill-opacity="1">unknown file</text><path fill="rgb(255,255,255)" stroke="rgb(0,0,0)" paint-order="fill stroke markers" d=" M 3409.000002145767 302 L 3734.000002145767 302 L 3734.000002145767 302 A 8 8 0 0 1 3742.000002145767 310 L 3742.000002145767 490 L 3742.000002145767 490 A 8 8 0 0 1 3734.000002145767 498 L 3084.000002145767 498 L 3084.000002145767 498 A 8 8 0 0 1 3076.000002145767 490 L 3076.000002145767 310 L 3076.000002145767 310 A 8 8 0 0 1 3084.000002145767 302 L 3409.000002145767 302 Z" fill-opacity="1" stroke-opacity="1" stroke-miterlimit="10" stroke-width="5"/><rect fill="rgb(255,255,255)" stroke="none" x="3272.500002145767" y="253" width="273" height="96" fill-opacity="1"/><text fill="rgb(0,0,0)" stroke="none" font-family="Avenir, Helvetica, Arial, sans-serif" font-size="32px" font-style="normal" font-weight="bold" text-decoration="normal" x="3409.000002145767" y="317" text-anchor="middle" dominant-baseline="text-after-edge" fill-opacity="1">hcloud_server</text><path fill="rgb(255,255,255)" stroke="rgb(132,80,186)" paint-order="fill stroke markers" d=" M 1079.5000003576279 987.7000007152559 L 2130.0000007152557 987.7000007152559 L 2130.0000007152557 987.7000007152559 A 8 8 0 0 1 2138.0000007152557 995.7000007152559 L 2138.0000007152557 2729.4000042915345 L 2138.0000007152557 2729.4000042915345 A 8 8 0 0 1 2130.0000007152557 2737.4000042915345 L 29 2737.4000042915345 L 29 2737.4000042915345 A 8 8 0 0 1 21 2729.4000042915345 L 21 995.7000007152559 L 21 995.7000007152559 A 8 8 0 0 1 29 987.7000007152559 L 1079.5000003576279 987.7000007152559 Z" fill-opacity="1" stroke-opacity="1" stroke-miterlimit="10" stroke-width="10"/><text fill="rgb(132,80,186)" stroke="none" font-family="Avenir, Helvetica, Arial, sans-serif" font-size="32px" font-style="normal" font-weight="bold" text-decoration="normal" x="1079.5000003576279" y="1047.700000715256" text-anchor="middle" dominant-baseline="text-after-edge" fill-opacity="1">hcloud_rdns</text><path fill="rgb(255,255,255)" stroke="rgb(211,211,211)" paint-order="fill stroke markers" d=" M 500 1090.7000007152558 L 869.5 1090.7000007152558 L 869.5 1090.7000007152558 A 8 8 0 0 1 877.5 1098.7000007152558 L 877.5 1500.7000014305115 L 877.5 1500.7000014305115 A 8 8 0 0 1 869.5 1508.7000014305115 L 130.5 1508.7000014305115 L 130.5 1508.7000014305115 A 8 8 0 0 1 122.5 1500.7000014305115 L 122.5 1098.7000007152558 L 122.5 1098.7000007152558 A 8 8 0 0 1 130.5 1090.7000007152558 L 500 1090.7000007152558 Z" fill-opacity="1" stroke-opacity="1" stroke-miterlimit="10"/><text fill="rgb(0,0,0)" stroke="none" font-family="Avenir, Helvetica, Arial, sans-serif" font-size="32px" font-style="normal" font-weight="bold" text-decoration="normal" x="500" y="1165.7000007152558" text-anchor="middle" dominant-baseline="text-after-edge" fill-opacity="1">outputs.tf</text><path fill="rgb(255,255,255)" stroke="rgb(211,211,211)" paint-order="fill stroke markers" d=" M 500 1818.9000014305116 L 869.5 1818.9000014305116 L 869.5 1818.9000014305116 A 8 8 0 0 1 877.5 1826.9000014305116 L 877.5 2627.9000042915345 L 877.5 2627.9000042915345 A 8 8 0 0 1 869.5 2635.9000042915345 L 130.5 2635.9000042915345 L 130.5 2635.9000042915345 A 8 8 0 0 1 122.5 2627.9000042915345 L 122.5 1826.9000014305116 L 122.5 1826.9000014305116 A 8 8 0 0 1 130.5 1818.9000014305116 L 500 1818.9000014305116 Z" fill-opacity="1" stroke-opacity="1" stroke-miterlimit="10"/><text fill="rgb(0,0,0)" stroke="none" font-family="Avenir, Helvetica, Arial, sans-serif" font-size="32px" font-style="normal" font-weight="bold" text-decoration="normal" x="500" y="1893.9000014305116" text-anchor="middle" dominant-baseline="text-after-edge" fill-opacity="1">variables.tf</text><path fill="rgb(255,255,255)" stroke="rgb(211,211,211)" paint-order="fill stroke markers" d=" M 1603.0000007152557 1089.2000007152558 L 2028.5000007152557 1089.2000007152558 L 2028.5000007152557 1089.2000007152558 A 8 8 0 0 1 2036.5000007152557 1097.2000007152558 L 2036.5000007152557 1523.7000007152558 L 2036.5000007152557 1523.7000007152558 A 8 8 0 0 1 2028.5000007152557 1531.7000007152558 L 1177.5000007152557 1531.7000007152558 L 1177.5000007152557 1531.7000007152558 A 8 8 0 0 1 1169.5000007152557 1523.7000007152558 L 1169.5000007152557 1097.2000007152558 L 1169.5000007152557 1097.2000007152558 A 8 8 0 0 1 1177.5000007152557 1089.2000007152558 L 1603.0000007152557 1089.2000007152558 Z" fill-opacity="1" stroke-opacity="1" stroke-miterlimit="10"/><text fill="rgb(0,0,0)" stroke="none" font-family="Avenir, Helvetica, Arial, sans-serif" font-size="32px" font-style="normal" font-weight="bold" text-decoration="normal" x="1603.0000007152557" y="1164.2000007152558" text-anchor="middle" dominant-baseline="text-after-edge" fill-opacity="1">main.tf</text><path fill="rgb(255,255,255)" stroke="rgb(0,0,0)" paint-order="fill stroke markers" d=" M 1603.0000007152557 1238.2000007152558 L 1925.0000007152557 1238.2000007152558 L 1925.0000007152557 1238.2000007152558 A 8 8 0 0 1 1933.0000007152557 1246.2000007152558 L 1933.0000007152557 1420.2000007152558 L 1933.0000007152557 1420.2000007152558 A 8 8 0 0 1 1925.0000007152557 1428.2000007152558 L 1281.0000007152557 1428.2000007152558 L 1281.0000007152557 1428.2000007152558 A 8 8 0 0 1 1273.0000007152557 1420.2000007152558 L 1273.0000007152557 1246.2000007152558 L 1273.0000007152557 1246.2000007152558 A 8 8 0 0 1 1281.0000007152557 1238.2000007152558 L 1603.0000007152557 1238.2000007152558 Z" fill-opacity="1" stroke-opacity="1" stroke-miterlimit="10" stroke-width="5"/><rect fill="rgb(255,255,255)" stroke="none" x="1480.5000007152557" y="1189.2000007152558" width="245" height="96" fill-opacity="1"/><text fill="rgb(0,0,0)" stroke="none" font-family="Avenir, Helvetica, Arial, sans-serif" font-size="32px" font-style="normal" font-weight="bold" text-decoration="normal" x="1603.0000007152557" y="1253.2000007152558" text-anchor="middle" dominant-baseline="text-after-edge" fill-opacity="1">hcloud_rdns</text><path fill="none" stroke="url(#PEbGftiNKKXK)" paint-order="fill stroke markers" d=" M 2143.0000007152557 1862.5500025033953 L 2637.7500014305115 1862.5500025033953 L 2637.7500014305115 400 L 3132.500002145767 400" stroke-linejoin="round" stroke-miterlimit="10" stroke-width="10"/><path fill="none" stroke="url(#ezsDCGOkDhKb)" paint-order="fill stroke markers" d=" M 1079.5000003576279 982.7000007152559 L 1079.5000003576279 662.1000003576279 L 1303.0000007152557 662.1000003576279 L 1303.0000007152557 341.5" stroke-linejoin="round" stroke-miterlimit="10" stroke-width="10"/><path fill="none" stroke="url(#CNzmoZlslzVN)" paint-order="fill stroke markers" d=" M 776.5 1366.2000014305115 L 1052.7500003576279 1366.2000014305115 L 1052.7500003576279 1333.2000007152558 L 1329.0000007152557 1333.2000007152558" stroke-linejoin="round" stroke-miterlimit="10" stroke-width="10"/><path fill="none" stroke="url(#yUNBqqFGLbDm)" paint-order="fill stroke markers" d=" M 776.5 1233.2000007152558 L 1052.7500003576279 1233.2000007152558 L 1052.7500003576279 1333.2000007152558 L 1329.0000007152557 1333.2000007152558" stroke-linejoin="round" stroke-miterlimit="10" stroke-width="10"/><path fill="none" stroke="url(#heBDZawMywtS)" paint-order="fill stroke markers" d=" M 1603.0000007152557 1372.2000007152558 L 1603.0000007152557 1779.0500017881395 L 500 1779.0500017881395 L 500 2185.900002861023" stroke-linejoin="round" stroke-miterlimit="10" stroke-width="10"/><path fill="none" stroke="url(#hscgLXTbCquT)" paint-order="fill stroke markers" d=" M 1329.0000007152557 1333.2000007152558 L 1052.7500003576279 1333.2000007152558 L 1052.7500003576279 1961.4000014305116 L 776.5 1961.4000014305116" stroke-linejoin="round" stroke-miterlimit="10" stroke-width="10"/><path fill="none" stroke="url(#WKJLaZxZDyJg)" paint-order="fill stroke markers" d=" M 1603.0000007152557 1372.2000007152558 L 1603.0000007152557 1845.5500021457674 L 500 1845.5500021457674 L 500 2318.900003576279" stroke-linejoin="round" stroke-miterlimit="10" stroke-width="10"/><path fill="none" stroke="url(#guhGleSvxnky)" paint-order="fill stroke markers" d=" M 1603.0000007152557 1372.2000007152558 L 1603.0000007152557 1712.5500014305117 L 500 1712.5500014305117 L 500 2052.9000021457673" stroke-linejoin="round" stroke-miterlimit="10" stroke-width="10"/><path fill="none" stroke="url(#yhQtSxTplwcI)" paint-order="fill stroke markers" d=" M 1603.0000007152557 1372.2000007152558 L 1603.0000007152557 1912.0500025033953 L 500 1912.0500025033953 L 500 2451.9000042915345" stroke-linejoin="round" stroke-miterlimit="10" stroke-width="10"/><path fill="none" stroke="url(#AfyzBOLWLfmb)" paint-order="fill stroke markers" d=" M 2306.0000014305115 474.50000071525574 L 2306.0000014305115 728.6000007152559 L 1079.5000003576279 728.6000007152559 L 1079.5000003576279 982.7000007152559" stroke-linejoin="round" stroke-miterlimit="10" stroke-width="10"/><path fill="none" stroke="url(#GNXwLxsTcGyS)" paint-order="fill stroke markers" d=" M 2306.0000014305115 474.50000071525574 L 2306.0000014305115 728.6000007152559 L 1079.5000003576279 728.6000007152559 L 1079.5000003576279 982.7000007152559" stroke-linejoin="round" stroke-miterlimit="10" stroke-width="10"/><path fill="none" stroke="url(#yHTZqvyueqXC)" paint-order="fill stroke markers" d=" M 2306.0000014305115 341.5 L 2306.0000014305115 662.100000357628 L 1079.5000003576279 662.100000357628 L 1079.5000003576279 982.7000007152558" stroke-linejoin="round" stroke-miterlimit="10" stroke-width="10"/><path fill="none" stroke="url(#QazUAqztrNHw)" paint-order="fill stroke markers" d=" M 2306.0000014305115 341.5 L 2306.0000014305115 662.100000357628 L 1079.5000003576279 662.100000357628 L 1079.5000003576279 982.7000007152558" stroke-linejoin="round" stroke-miterlimit="10" stroke-width="10"/><path fill="rgb(255,247,224)" stroke="rgb(255,193,7)" paint-order="fill stroke markers" d=" M 2306.0000014305115 261 L 2572.0000014305115 261 L 2572.0000014305115 261 A 8 8 0 0 1 2580.0000014305115 269 L 2580.0000014305115 331 L 2580.0000014305115 331 A 8 8 0 0 1 2572.0000014305115 339 L 2040.0000014305115 339 L 2040.0000014305115 339 A 8 8 0 0 1 2032.0000014305115 331 L 2032.0000014305115 269 L 2032.0000014305115 269 A 8 8 0 0 1 2040.0000014305115 261 L 2306.0000014305115 261 Z" fill-opacity="1" stroke-opacity="1" stroke-miterlimit="10" stroke-width="5"/><text fill="rgb(0,0,0)" stroke="none" font-family="Avenir, Helvetica, Arial, sans-serif" font-size="32px" font-style="normal" font-weight="bold" text-decoration="normal" x="2306.0000014305115" y="316" text-anchor="middle" dominant-baseline="text-after-edge" fill-opacity="1">rdns_ip_address</text><path fill="rgb(255,247,224)" stroke="rgb(255,193,7)" paint-order="fill stroke markers" d=" M 2306.0000014305115 394.00000071525574 L 2572.0000014305115 394.00000071525574 L 2572.0000014305115 394.00000071525574 A 8 8 0 0 1 2580.0000014305115 402.00000071525574 L 2580.0000014305115 464.00000071525574 L 2580.0000014305115 464.00000071525574 A 8 8 0 0 1 2572.0000014305115 472.00000071525574 L 2040.0000014305115 472.00000071525574 L 2040.0000014305115 472.00000071525574 A 8 8 0 0 1 2032.0000014305115 464.00000071525574 L 2032.0000014305115 402.00000071525574 L 2032.0000014305115 402.00000071525574 A 8 8 0 0 1 2040.0000014305115 394.00000071525574 L 2306.0000014305115 394.00000071525574 Z" fill-opacity="1" stroke-opacity="1" stroke-miterlimit="10" stroke-width="5"/><text fill="rgb(0,0,0)" stroke="none" font-family="Avenir, Helvetica, Arial, sans-serif" font-size="32px" font-style="normal" font-weight="bold" text-decoration="normal" x="2306.0000014305115" y="449.00000071525574" text-anchor="middle" dominant-baseline="text-after-edge" fill-opacity="1">rdns_dns_ptr</text><path fill="rgb(225,240,255)" stroke="rgb(29,122,218)" paint-order="fill stroke markers" d=" M 300 261 L 566 261 L 566 261 A 8 8 0 0 1 574 269 L 574 331 L 574 331 A 8 8 0 0 1 566 339 L 34 339 L 34 339 A 8 8 0 0 1 26 331 L 26 269 L 26 269 A 8 8 0 0 1 34 261 L 300 261 Z" fill-opacity="1" stroke-opacity="1" stroke-miterlimit="10" stroke-width="5"/><text fill="rgb(0,0,0)" stroke="none" font-family="Avenir, Helvetica, Arial, sans-serif" font-size="32px" font-style="normal" font-weight="bold" text-decoration="normal" x="300" y="316" text-anchor="middle" dominant-baseline="text-after-edge" fill-opacity="1">token</text><path fill="rgb(255,236,236)" stroke="rgb(220,71,125)" paint-order="fill stroke markers" d=" M 3409.000002145767 361 L 3675.000002145767 361 L 3675.000002145767 361 A 8 8 0 0 1 3683.000002145767 369 L 3683.000002145767 431 L 3683.000002145767 431 A 8 8 0 0 1 3675.000002145767 439 L 3143.000002145767 439 L 3143.000002145767 439 A 8 8 0 0 1 3135.000002145767 431 L 3135.000002145767 369 L 3135.000002145767 369 A 8 8 0 0 1 3143.000002145767 361 L 3409.000002145767 361 Z" fill-opacity="1" stroke-opacity="1" stroke-miterlimit="10" stroke-width="5"/><text fill="rgb(0,0,0)" stroke="none" font-family="Avenir, Helvetica, Arial, sans-serif" font-size="32px" font-style="normal" font-weight="bold" text-decoration="normal" x="3409.000002145767" y="416" text-anchor="middle" dominant-baseline="text-after-edge" fill-opacity="1">default</text><path fill="rgb(255,247,224)" stroke="rgb(255,193,7)" paint-order="fill stroke markers" d=" M 500 1194.2000007152558 L 766 1194.2000007152558 L 766 1194.2000007152558 A 8 8 0 0 1 774 1202.2000007152558 L 774 1264.2000007152558 L 774 1264.2000007152558 A 8 8 0 0 1 766 1272.2000007152558 L 234 1272.2000007152558 L 234 1272.2000007152558 A 8 8 0 0 1 226 1264.2000007152558 L 226 1202.2000007152558 L 226 1202.2000007152558 A 8 8 0 0 1 234 1194.2000007152558 L 500 1194.2000007152558 Z" fill-opacity="1" stroke-opacity="1" stroke-miterlimit="10" stroke-width="5"/><text fill="rgb(0,0,0)" stroke="none" font-family="Avenir, Helvetica, Arial, sans-serif" font-size="32px" font-style="normal" font-weight="bold" text-decoration="normal" x="500" y="1249.2000007152558" text-anchor="middle" dominant-baseline="text-after-edge" fill-opacity="1">dns_ptr</text><path fill="rgb(255,247,224)" stroke="rgb(255,193,7)" paint-order="fill stroke markers" d=" M 500 1327.2000014305115 L 766 1327.2000014305115 L 766 1327.2000014305115 A 8 8 0 0 1 774 1335.2000014305115 L 774 1397.2000014305115 L 774 1397.2000014305115 A 8 8 0 0 1 766 1405.2000014305115 L 234 1405.2000014305115 L 234 1405.2000014305115 A 8 8 0 0 1 226 1397.2000014305115 L 226 1335.2000014305115 L 226 1335.2000014305115 A 8 8 0 0 1 234 1327.2000014305115 L 500 1327.2000014305115 Z" fill-opacity="1" stroke-opacity="1" stroke-miterlimit="10" stroke-width="5"/><text fill="rgb(0,0,0)" stroke="none" font-family="Avenir, Helvetica, Arial, sans-serif" font-size="32px" font-style="normal" font-weight="bold" text-decoration="normal" x="500" y="1382.2000014305115" text-anchor="middle" dominant-baseline="text-after-edge" fill-opacity="1">ip_address</text><path fill="rgb(225,240,255)" stroke="rgb(29,122,218)" paint-order="fill stroke markers" d=" M 500 1922.4000014305116 L 766 1922.4000014305116 L 766 1922.4000014305116 A 8 8 0 0 1 774 1930.4000014305116 L 774 1992.4000014305116 L 774 1992.4000014305116 A 8 8 0 0 1 766 2000.4000014305116 L 234 2000.4000014305116 L 234 2000.4000014305116 A 8 8 0 0 1 226 1992.4000014305116 L 226 1930.4000014305116 L 226 1930.4000014305116 A 8 8 0 0 1 234 1922.4000014305116 L 500 1922.4000014305116 Z" fill-opacity="1" stroke-opacity="1" stroke-miterlimit="10" stroke-width="5"/><text fill="rgb(0,0,0)" stroke="none" font-family="Avenir, Helvetica, Arial, sans-serif" font-size="32px" font-style="normal" font-weight="bold" text-decoration="normal" x="500" y="1977.4000014305116" text-anchor="middle" dominant-baseline="text-after-edge" fill-opacity="1">floating_ip_id</text><path fill="rgb(225,240,255)" stroke="rgb(29,122,218)" paint-order="fill stroke markers" d=" M 500 2055.4000021457673 L 766 2055.4000021457673 L 766 2055.4000021457673 A 8 8 0 0 1 774 2063.4000021457673 L 774 2125.4000021457673 L 774 2125.4000021457673 A 8 8 0 0 1 766 2133.4000021457673 L 234 2133.4000021457673 L 234 2133.4000021457673 A 8 8 0 0 1 226 2125.4000021457673 L 226 2063.4000021457673 L 226 2063.4000021457673 A 8 8 0 0 1 234 2055.4000021457673 L 500 2055.4000021457673 Z" fill-opacity="1" stroke-opacity="1" stroke-miterlimit="10" stroke-width="5"/><text fill="rgb(0,0,0)" stroke="none" font-family="Avenir, Helvetica, Arial, sans-serif" font-size="32px" font-style="normal" font-weight="bold" text-decoration="normal" x="500" y="2110.4000021457673" text-anchor="middle" dominant-baseline="text-after-edge" fill-opacity="1">load_balancer_id</text><path fill="rgb(225,240,255)" stroke="rgb(29,122,218)" paint-order="fill stroke markers" d=" M 500 2188.400002861023 L 766 2188.400002861023 L 766 2188.400002861023 A 8 8 0 0 1 774 2196.400002861023 L 774 2258.400002861023 L 774 2258.400002861023 A 8 8 0 0 1 766 2266.400002861023 L 234 2266.400002861023 L 234 2266.400002861023 A 8 8 0 0 1 226 2258.400002861023 L 226 2196.400002861023 L 226 2196.400002861023 A 8 8 0 0 1 234 2188.400002861023 L 500 2188.400002861023 Z" fill-opacity="1" stroke-opacity="1" stroke-miterlimit="10" stroke-width="5"/><text fill="rgb(0,0,0)" stroke="none" font-family="Avenir, Helvetica, Arial, sans-serif" font-size="32px" font-style="normal" font-weight="bold" text-decoration="normal" x="500" y="2243.400002861023" text-anchor="middle" dominant-baseline="text-after-edge" fill-opacity="1">dns_ptr</text><path fill="rgb(225,240,255)" stroke="rgb(29,122,218)" paint-order="fill stroke markers" d=" M 500 2321.400003576279 L 766 2321.400003576279 L 766 2321.400003576279 A 8 8 0 0 1 774 2329.400003576279 L 774 2391.400003576279 L 774 2391.400003576279 A 8 8 0 0 1 766 2399.400003576279 L 234 2399.400003576279 L 234 2399.400003576279 A 8 8 0 0 1 226 2391.400003576279 L 226 2329.400003576279 L 226 2329.400003576279 A 8 8 0 0 1 234 2321.400003576279 L 500 2321.400003576279 Z" fill-opacity="1" stroke-opacity="1" stroke-miterlimit="10" stroke-width="5"/><text fill="rgb(0,0,0)" stroke="none" font-family="Avenir, Helvetica, Arial, sans-serif" font-size="32px" font-style="normal" font-weight="bold" text-decoration="normal" x="500" y="2376.400003576279" text-anchor="middle" dominant-baseline="text-after-edge" fill-opacity="1">ip_address</text><path fill="rgb(225,240,255)" stroke="rgb(29,122,218)" paint-order="fill stroke markers" d=" M 500 2454.4000042915345 L 766 2454.4000042915345 L 766 2454.4000042915345 A 8 8 0 0 1 774 2462.4000042915345 L 774 2524.4000042915345 L 774 2524.4000042915345 A 8 8 0 0 1 766 2532.4000042915345 L 234 2532.4000042915345 L 234 2532.4000042915345 A 8 8 0 0 1 226 2524.4000042915345 L 226 2462.4000042915345 L 226 2462.4000042915345 A 8 8 0 0 1 234 2454.4000042915345 L 500 2454.4000042915345 Z" fill-opacity="1" stroke-opacity="1" stroke-miterlimit="10" stroke-width="5"/><text fill="rgb(0,0,0)" stroke="none" font-family="Avenir, Helvetica, Arial, sans-serif" font-size="32px" font-style="normal" font-weight="bold" text-decoration="normal" x="500" y="2509.4000042915345" text-anchor="middle" dominant-baseline="text-after-edge" fill-opacity="1">server_id</text><path fill="rgb(40,167,69)" stroke="none" paint-order="stroke fill markers" d=" M 1603.0000007152557 1294.2000007152558 L 1869.0000007152557 1294.2000007152558 L 1869.0000007152557 1294.2000007152558 A 8 8 0 0 1 1877.0000007152557 1302.2000007152558 L 1877.0000007152557 1364.2000007152558 L 1877.0000007152557 1364.2000007152558 A 8 8 0 0 1 1869.0000007152557 1372.2000007152558 L 1337.0000007152557 1372.2000007152558 L 1337.0000007152557 1372.2000007152558 A 8 8 0 0 1 1329.0000007152557 1364.2000007152558 L 1329.0000007152557 1302.2000007152558 L 1329.0000007152557 1302.2000007152558 A 8 8 0 0 1 1337.0000007152557 1294.2000007152558 L 1603.0000007152557 1294.2000007152558 Z" fill-opacity="1"/><text fill="rgb(255,255,255)" stroke="none" font-family="Avenir, Helvetica, Arial, sans-serif" font-size="32px" font-style="normal" font-weight="bold" text-decoration="normal" x="1603.0000007152557" y="1349.2000007152558" text-anchor="middle" dominant-baseline="text-after-edge" fill-opacity="1">default</text><path fill="rgb(0,0,0)" stroke="rgb(0,0,0)" paint-order="fill stroke markers" d=" M 1303.0000007152557 261 L 1569.0000007152557 261 L 1569.0000007152557 261 A 8 8 0 0 1 1577.0000007152557 269 L 1577.0000007152557 331 L 1577.0000007152557 331 A 8 8 0 0 1 1569.0000007152557 339 L 1037.0000007152557 339 L 1037.0000007152557 339 A 8 8 0 0 1 1029.0000007152557 331 L 1029.0000007152557 269 L 1029.0000007152557 269 A 8 8 0 0 1 1037.0000007152557 261 L 1303.0000007152557 261 Z" fill-opacity="1" stroke-opacity="1" stroke-miterlimit="10" stroke-width="5"/><text fill="rgb(255,255,255)" stroke="none" font-family="Avenir, Helvetica, Arial, sans-serif" font-size="32px" font-style="normal" font-weight="bold" text-decoration="normal" x="1303.0000007152557" y="316" text-anchor="middle" dominant-baseline="text-after-edge" fill-opacity="1">dns_ptr</text><g transform="scale(5,5) translate(-57.7,-10.100000000000001)"/></g></svg>