<svg version="1.1" xmlns="http://www.w3.org/2000/svg" xmlns:xlink="http://www.w3.org/1999/xlink" width="1110" height="1099.4"><defs><linearGradient id="SGCuLrFxKptQ" x1="2480.1000010728835px" x2="3409.000002145767px" y1="976.7000007152565px" y2="441.5px" gradientUnits="userSpaceOnUse"><stop offset="0" stop-color="rgb(132,80,186)" stop-opacity="1"/><stop offset="1" stop-color="rgb(220,71,125)" stop-opacity="1"/></linearGradient><linearGradient id="BntNZWBFOruB" x1="2480.1000010728835px" x2="1303.0000007152557px" y1="976.7000007152565px" y2="341.5px" gradientUnits="userSpaceOnUse"><stop offset="0" stop-color="rgb(132,80,186)" stop-opacity="1"/><stop offset="1" stop-color="rgb(0,0,0)" stop-opacity="1"/></linearGradient><linearGradient id="TRyTNNTfXIyR" x1="876.5px" x2="1429.0000007152557px" y1="1333.2000007152558px" y2="1433.2000007152558px" gradientUnits="userSpaceOnUse"><stop offset="0" stop-color="rgb(255,193,7)" stop-opacity="1"/><stop offset="1" stop-color="rgb(211,211,211)" stop-opacity="1"/></linearGradient><linearGradient id="QkTBFiElykST" x1="876.5px" x2="1429.0000007152557px" y1="1466.2000014305115px" y2="1433.2000007152558px" gradientUnits="userSpaceOnUse"><stop offset="0" stop-color="rgb(255,193,7)" stop-opacity="1"/><stop offset="1" stop-color="rgb(211,211,211)" stop-opacity="1"/></linearGradient><linearGradient id="AkrmhottFfkO" x1="1429.0000007152557px" x2="876.5px" y1="1433.2000007152558px" y2="2061.4000014305116px" gradientUnits="userSpaceOnUse"><stop offset="0" stop-color="rgb(211,211,211)" stop-opacity="1"/><stop offset="1" stop-color="rgb(29,122,218)" stop-opacity="1"/></linearGradient><linearGradient id="HOqvypLspodW" x1="1703.0000007152557px" x2="600px" y1="1472.2000007152558px" y2="2418.900003576279px" gradientUnits="userSpaceOnUse"><stop offset="0" stop-color="rgb(211,211,211)" stop-opacity="1"/><stop offset="1" stop-color="rgb(29,122,218)" stop-opacity="1"/></linearGradient><linearGradient id="DaKciHZLeuOK" x1="1703.0000007152557px" x2="600px" y1="1472.2000007152558px" y2="2152.9000021457673px" gradientUnits="userSpaceOnUse"><stop offset="0" stop-color="rgb(211,211,211)" stop-opacity="1"/><stop offset="1" stop-color="rgb(29,122,218)" stop-opacity="1"/></linearGradient><linearGradient id="IXLxShrdwxzh" x1="1703.0000007152557px" x2="600px" y1="1472.2000007152558px" y2="2551.9000042915345px" gradientUnits="userSpaceOnUse"><stop offset="0" stop-color="rgb(211,211,211)" stop-opacity="1"/><stop offset="1" stop-color="rgb(29,122,218)" stop-opacity="1"/></linearGradient><linearGradient id="UZKHvHZrJzeS" x1="1703.0000007152557px" x2="600px" y1="1472.2000007152558px" y2="2285.900002861023px" gradientUnits="userSpaceOnUse"><stop offset="0" stop-color="rgb(211,211,211)" stop-opacity="1"/><stop offset="1" stop-color="rgb(29,122,218)" stop-opacity="1"/></linearGradient><linearGradient id="VvUNcPedVvzi" x1="3477.7000014305113px" x2="4030.200002145767px" y1="1333.2000007152558px" y2="1433.2000007152558px" gradientUnits="userSpaceOnUse"><stop offset="0" stop-color="rgb(255,193,7)" stop-opacity="1"/><stop offset="1" stop-color="rgb(211,211,211)" stop-opacity="1"/></linearGradient><linearGradient id="fsuXFiaMTEtc" x1="3477.7000014305113px" x2="4030.200002145767px" y1="1466.2000014305115px" y2="1433.2000007152558px" gradientUnits="userSpaceOnUse"><stop offset="0" stop-color="rgb(255,193,7)" stop-opacity="1"/><stop offset="1" stop-color="rgb(211,211,211)" stop-opacity="1"/></linearGradient><linearGradient id="GcBvbtyrJeSr" x1="4304.200002145767px" x2="3201.2000014305113px" y1="1472.2000007152558px" y2="2551.9000042915345px" gradientUnits="userSpaceOnUse"><stop offset="0" stop-color="rgb(211,211,211)" stop-opacity="1"/><stop offset="1" stop-color="rgb(29,122,218)" stop-opacity="1"/></linearGradient><linearGradient id="MBCzNOZsdGzM" x1="4304.200002145767px" x2="3201.2000014305113px" y1="1472.2000007152558px" y2="2285.900002861023px" gradientUnits="userSpaceOnUse"><stop offset="0" stop-color="rgb(211,211,211)" stop-opacity="1"/><stop offset="1" stop-color="rgb(29,122,218)" stop-opacity="1"/></linearGradient><linearGradient id="HxfnmuAShtVF" x1="4030.200002145767px" x2="3477.7000014305113px" y1="1433.2000007152558px" y2="2061.4000014305116px" gradientUnits="userSpaceOnUse"><stop offset="0" stop-color="rgb(211,211,211)" stop-opacity="1"/><stop offset="1" stop-color="rgb(29,122,218)" stop-opacity="1"/></linearGradient><linearGradient id="PTkkXpvJrtLT" x1="4304.200002145767px" x2="3201.2000014305113px" y1="1472.2000007152558px" y2="2418.900003576279px" gradientUnits="userSpaceOnUse"><stop offset="0" stop-color="rgb(211,211,211)" stop-opacity="1"/><stop offset="1" stop-color="rgb(29,122,218)" stop-opacity="1"/></linearGradient><linearGradient id="NIMgXTlipvuC" x1="4304.200002145767px" x2="3201.2000014305113px" y1="1472.2000007152558px" y2="2152.9000021457673px" gradientUnits="userSpaceOnUse"><stop offset="0" stop-color="rgb(211,211,211)" stop-opacity="1"/><stop offset="1" stop-color="rgb(29,122,218)" stop-opacity="1"/></linearGradient><linearGradient id="TVIDxQczSTbX" x1="876.5px" x2="1429.0000007152557px" y1="3526.40000500679px" y2="3626.40000500679px" gradientUnits="userSpaceOnUse"><stop offset="0" stop-color="rgb(255,193,7)" stop-opacity="1"/><stop offset="1" stop-color="rgb(211,211,211)" stop-opacity="1"/></linearGradient><linearGradient id="GgTWMUpcLSEW" x1="876.5px" x2="1429.0000007152557px" y1="3659.4000057220455px" y2="3626.40000500679px" gradientUnits="userSpaceOnUse"><stop offset="0" stop-color="rgb(255,193,7)" stop-opacity="1"/><stop offset="1" stop-color="rgb(211,211,211)" stop-opacity="1"/></linearGradient><linearGradient id="ocAFhhBopPsS" x1="1703.0000007152557px" x2="600px" y1="3665.40000500679px" y2="4745.100008583068px" gradientUnits="userSpaceOnUse"><stop offset="0" stop-color="rgb(211,211,211)" stop-opacity="1"/><stop offset="1" stop-color="rgb(29,122,218)" stop-opacity="1"/></linearGradient><linearGradient id="IWGJMTrHVAkx" x1="1703.0000007152557px" x2="600px" y1="3665.40000500679px" y2="4479.100007152557px" gradientUnits="userSpaceOnUse"><stop offset="0" stop-color="rgb(211,211,211)" stop-opacity="1"/><stop offset="1" stop-color="rgb(29,122,218)" stop-opacity="1"/></linearGradient><linearGradient id="CwcEaPMMSzsT" x1="1429.0000007152557px" x2="876.5px" y1="3626.40000500679px" y2="4254.600005722045px" gradientUnits="userSpaceOnUse"><stop offset="0" stop-color="rgb(211,211,211)" stop-opacity="1"/><stop offset="1" stop-color="rgb(29,122,218)" stop-opacity="1"/></linearGradient><linearGradient id="rGVNGAnxcGkP" x1="1703.0000007152557px" x2="600px" y1="3665.40000500679px" y2="4612.100007867813px" gradientUnits="userSpaceOnUse"><stop offset="0" stop-color="rgb(211,211,211)" stop-opacity="1"/><stop offset="1" stop-color="rgb(29,122,218)" stop-opacity="1"/></linearGradient><linearGradient id="CCdoVtJWykkM" x1="1703.0000007152557px" x2="600px" y1="3665.40000500679px" y2="4346.100006437301px" gradientUnits="userSpaceOnUse"><stop offset="0" stop-color="rgb(211,211,211)" stop-opacity="1"/><stop offset="1" stop-color="rgb(29,122,218)" stop-opacity="1"/></linearGradient><linearGradient id="SEyozhHfrAOM" x1="2306.0000014305115px" x2="2480.1000010728835px" y1="341.5px" y2="976.7000007152565px" gradientUnits="userSpaceOnUse"><stop offset="0" stop-color="rgb(255,193,7)" stop-opacity="1"/><stop offset="1" stop-color="rgb(132,80,186)" stop-opacity="1"/></linearGradient><linearGradient id="ftlqUFNqCkQR" x1="2306.0000014305115px" x2="2480.1000010728835px" y1="474.50000071525574px" y2="976.7000007152565px" gradientUnits="userSpaceOnUse"><stop offset="0" stop-color="rgb(255,193,7)" stop-opacity="1"/><stop offset="1" stop-color="rgb(132,80,186)" stop-opacity="1"/></linearGradient></defs><g transform="translate(58.900000000000006,10.100000000000001) scale(0.2,0.2)"><path fill="rgb(244,236,255)" stroke="rgb(255,255,255)" paint-order="fill stroke markers" d=" M 2480.1000010728835 -48.5 L 5244.700002145767 -48.5 L 5244.700002145767 -48.5 A 8 8 0 0 1 5252.700002145767 -40.5 L 5252.700002145767 5436.100008583069 L 5252.700002145767 5436.100008583069 A 8 8 0 0 1 5244.700002145767 5444.100008583069 L -284.5 5444.100008583069 L -284.5 5444.100008583069 A 8 8 0 0 1 -292.5 5436.100008583069 L -292.5 -40.5 L -292.5 -40.5 A 8 8 0 0 1 -284.5 -48.5 L 2480.1000010728835 -48.5 Z" fill-opacity="1" stroke-opacity="1" stroke-miterlimit="10" stroke-width="2"/><text fill="rgb(0,0,0)" stroke="none" font-family="Avenir, Helvetica, Arial, sans-serif" font-size="32px" font-style="normal" font-weight="bold" text-decoration="normal" x="2480.1000010728835" y="26.5" text-anchor="middle" dominant-baseline="text-after-edge" fill-opacity="1">.</text><path fill="rgb(255,255,255)" stroke="rgb(211,211,211)" paint-order="fill stroke markers" d=" M 300 157.5 L 669.5 157.5 L 669.5 157.5 A 8 8 0 0 1 677.5 165.5 L 677.5 434.5 L 677.5 434.5 A 8 8 0 0 1 669.5 442.5 L -69.5 442.5 L -69.5 442.5 A 8 8 0 0 1 -77.5 434.5 L -77.5 165.5 L -77.5 165.5 A 8 8 0 0 1 -69.5 157.5 L 300 157.5 Z" fill-opacity="1" stroke-opacity="1" stroke-miterlimit="10"/><text fill="rgb(0,0,0)" stroke="none" font-family="Avenir, Helvetica, Arial, sans-serif" font-size="32px" font-style="normal" font-weight="bold" text-decoration="normal" x="300" y="232.5" text-anchor="middle" dominant-baseline="text-after-edge" fill-opacity="1">variables.tf</text><path fill="rgb(255,255,255)" stroke="rgb(211,211,211)" paint-order="fill stroke markers" d=" M 3409.000002145767 153 L 3837.500002145767 153 L 3837.500002145767 153 A 8 8 0 0 1 3845.500002145767 161 L 3845.500002145767 593.5 L 3845.500002145767 593.5 A 8 8 0 0 1 3837.500002145767 601.5 L 2980.500002145767 601.5 L 2980.500002145767 601.5 A 8 8 0 0 1 2972.500002145767 593.5 L 2972.500002145767 161 L 2972.500002145767 161 A 8 8 0 0 1 2980.500002145767 153 L 3409.000002145767 153 Z" fill-opacity="1" stroke-opacity="1" stroke-miterlimit="10"/><text fill="rgb(0,0,0)" stroke="none" font-family="Avenir, Helvetica, Arial, sans-serif" font-size="32px" font-style="normal" font-weight="bold" text-decoration="normal" x="3409.000002145767" y="228" text-anchor="middle" dominant-baseline="text-after-edge" fill-opacity="1">data.tf</text><path fill="rgb(255,255,255)" stroke="rgb(211,211,211)" paint-order="fill stroke markers" d=" M 2480.1000010728835 875.7000007152565 L 5043.200002145767 875.7000007152565 L 5043.200002145767 875.7000007152565 A 8 8 0 0 1 5051.200002145767 883.7000007152565 L 5051.200002145767 5234.600008583069 L 5051.200002145767 5234.600008583069 A 8 8 0 0 1 5043.200002145767 5242.600008583069 L -83 5242.600008583069 L -83 5242.600008583069 A 8 8 0 0 1 -91 5234.600008583069 L -91 883.7000007152565 L -91 883.7000007152565 A 8 8 0 0 1 -83 875.7000007152565 L 2480.1000010728835 875.7000007152565 Z" fill-opacity="1" stroke-opacity="1" stroke-miterlimit="10"/><text fill="rgb(0,0,0)" stroke="none" font-family="Avenir, Helvetica, Arial, sans-serif" font-size="32px" font-style="normal" font-weight="bold" text-decoration="normal" x="2480.1000010728835" y="950.7000007152565" text-anchor="middle" dominant-baseline="text-after-edge" fill-opacity="1">main.tf</text><path fill="rgb(255,255,255)" stroke="rgb(211,211,211)" paint-order="fill stroke markers" d=" M 1303.0000007152557 157.5 L 1672.5000007152557 157.5 L 1672.5000007152557 157.5 A 8 8 0 0 1 1680.5000007152557 165.5 L 1680.5000007152557 434.5 L 1680.5000007152557 434.5 A 8 8 0 0 1 1672.5000007152557 442.5 L 933.5000007152557 442.5 L 933.5000007152557 442.5 A 8 8 0 0 1 925.5000007152557 434.5 L 925.5000007152557 165.5 L 925.5000007152557 165.5 A 8 8 0 0 1 933.5000007152557 157.5 L 1303.0000007152557 157.5 Z" fill-opacity="1" stroke-opacity="1" stroke-miterlimit="10"/><text fill="rgb(0,0,0)" stroke="none" font-family="Avenir, Helvetica, Arial, sans-serif" font-size="32px" font-style="normal" font-weight="bold" text-decoration="normal" x="1303.0000007152557" y="232.5" text-anchor="middle" dominant-baseline="text-after-edge" fill-opacity="1">unknown file</text><path fill="rgb(255,255,255)" stroke="rgb(211,211,211)" paint-order="fill stroke markers" d=" M 2306.0000014305115 157.5 L 2675.5000014305115 157.5 L 2675.5000014305115 157.5 A 8 8 0 0 1 2683.5000014305115 165.5 L 2683.5000014305115 567.5000007152557 L 2683.5000014305115 567.5000007152557 A 8 8 0 0 1 2675.5000014305115 575.5000007152557 L 1936.5000014305115 575.5000007152557 L 1936.5000014305115 575.5000007152557 A 8 8 0 0 1 1928.5000014305115 567.5000007152557 L 1928.5000014305115 165.5 L 1928.5000014305115 165.5 A 8 8 0 0 1 1936.5000014305115 157.5 L 2306.0000014305115 157.5 Z" fill-opacity="1" stroke-opacity="1" stroke-miterlimit="10"/><text fill="rgb(0,0,0)" stroke="none" font-family="Avenir, Helvetica, Arial, sans-serif" font-size="32px" font-style="normal" font-weight="bold" text-decoration="normal" x="2306.0000014305115" y="232.5" text-anchor="middle" dominant-baseline="text-after-edge" fill-opacity="1">outputs.tf</text><path fill="rgb(255,255,255)" stroke="rgb(0,0,0)" paint-order="fill stroke markers" d=" M 3409.000002145767 302 L 3734.000002145767 302 L 3734.000002145767 302 A 8 8 0 0 1 3742.000002145767 310 L 3742.000002145767 490 L 3742.000002145767 490 A 8 8 0 0 1 3734.000002145767 498 L 3084.000002145767 498 L 3084.000002145767 498 A 8 8 0 0 1 3076.000002145767 490 L 3076.000002145767 310 L 3076.000002145767 310 A 8 8 0 0 1 3084.000002145767 302 L 3409.000002145767 302 Z" fill-opacity="1" stroke-opacity="1" stroke-miterlimit="10" stroke-width="5"/><rect fill="rgb(255,255,255)" stroke="none" x="3265.500002145767" y="253" width="287" height="96" fill-opacity="1"/><text fill="rgb(0,0,0)" stroke="none" font-family="Avenir, Helvetica, Arial, sans-serif" font-size="32px" font-style="normal" font-weight="bold" text-decoration="normal" x="3409.000002145767" y="317" text-anchor="middle" dominant-baseline="text-after-edge" fill-opacity="1">hcloud_servers</text><path fill="rgb(255,255,255)" stroke="rgb(132,80,186)" paint-order="fill stroke markers" d=" M 2480.1000010728835 981.7000007152565 L 4937.200002145767 981.7000007152565 L 4937.200002145767 981.7000007152565 A 8 8 0 0 1 4945.200002145767 989.7000007152565 L 4945.200002145767 5128.600008583069 L 4945.200002145767 5128.600008583069 A 8 8 0 0 1 4937.200002145767 5136.600008583069 L 23 5136.600008583069 L 23 5136.600008583069 A 8 8 0 0 1 15 5128.600008583069 L 15 989.7000007152565 L 15 989.7000007152565 A 8 8 0 0 1 23 981.7000007152565 L 2480.1000010728835 981.7000007152565 Z" fill-opacity="1" stroke-opacity="1" stroke-miterlimit="10" stroke-width="10"/><text fill="rgb(132,80,186)" stroke="none" font-family="Avenir, Helvetica, Arial, sans-serif" font-size="32px" font-style="normal" font-weight="bold" text-decoration="normal" x="2480.1000010728835" y="1041.7000007152562" text-anchor="middle" dominant-baseline="text-after-edge" fill-opacity="1">hcloud_rdns</text><path fill="rgb(255,255,255)" stroke="rgb(132,80,186)" paint-order="fill stroke markers" d=" M 1179.5000003576279 1087.700000715256 L 2230.0000007152557 1087.700000715256 L 2230.0000007152557 1087.700000715256 A 8 8 0 0 1 2238.0000007152557 1095.700000715256 L 2238.0000007152557 2829.4000042915345 L 2238.0000007152557 2829.4000042915345 A 8 8 0 0 1 2230.0000007152557 2837.4000042915345 L 129 2837.4000042915345 L 129 2837.4000042915345 A 8 8 0 0 1 121 2829.4000042915345 L 121 1095.700000715256 L 121 1095.700000715256 A 8 8 0 0 1 129 1087.700000715256 L 1179.5000003576279 1087.700000715256 Z" fill-opacity="1" stroke-opacity="1" stroke-miterlimit="10" stroke-width="10"/><text fill="rgb(132,80,186)" stroke="none" font-family="Avenir, Helvetica, Arial, sans-serif" font-size="32px" font-style="normal" font-weight="bold" text-decoration="normal" x="1179.5000003576279" y="1147.700000715256" text-anchor="middle" dominant-baseline="text-after-edge" fill-opacity="1">hcloud_rdns[0]</text><path fill="rgb(255,255,255)" stroke="rgb(132,80,186)" paint-order="fill stroke markers" d=" M 3780.700001788139 1087.700000715256 L 4831.200002145767 1087.700000715256 L 4831.200002145767 1087.700000715256 A 8 8 0 0 1 4839.200002145767 1095.700000715256 L 4839.200002145767 2829.4000042915345 L 4839.200002145767 2829.4000042915345 A 8 8 0 0 1 4831.200002145767 2837.4000042915345 L 2730.2000014305113 2837.4000042915345 L 2730.2000014305113 2837.4000042915345 A 8 8 0 0 1 2722.2000014305113 2829.4000042915345 L 2722.2000014305113 1095.700000715256 L 2722.2000014305113 1095.700000715256 A 8 8 0 0 1 2730.2000014305113 1087.700000715256 L 3780.700001788139 1087.700000715256 Z" fill-opacity="1" stroke-opacity="1" stroke-miterlimit="10" stroke-width="10"/><text fill="rgb(132,80,186)" stroke="none" font-family="Avenir, Helvetica, Arial, sans-serif" font-size="32px" font-style="normal" font-weight="bold" text-decoration="normal" x="3780.700001788139" y="1147.700000715256" text-anchor="middle" dominant-baseline="text-after-edge" fill-opacity="1">hcloud_rdns[1]</text><path fill="rgb(255,255,255)" stroke="rgb(132,80,186)" paint-order="fill stroke markers" d=" M 1179.5000003576279 3280.9000050067903 L 2230.0000007152557 3280.9000050067903 L 2230.0000007152557 3280.9000050067903 A 8 8 0 0 1 2238.0000007152557 3288.9000050067903 L 2238.0000007152557 5022.600008583069 L 2238.0000007152557 5022.600008583069 A 8 8 0 0 1 2230.0000007152557 5030.600008583069 L 129 5030.600008583069 L 129 5030.600008583069 A 8 8 0 0 1 121 5022.600008583069 L 121 3288.9000050067903 L 121 3288.9000050067903 A 8 8 0 0 1 129 3280.9000050067903 L 1179.5000003576279 3280.9000050067903 Z" fill-opacity="1" stroke-opacity="1" stroke-miterlimit="10" stroke-width="10"/><text fill="rgb(132,80,186)" stroke="none" font-family="Avenir, Helvetica, Arial, sans-serif" font-size="32px" font-style="normal" font-weight="bold" text-decoration="normal" x="1179.5000003576279" y="3340.9000050067903" text-anchor="middle" dominant-baseline="text-after-edge" fill-opacity="1">hcloud_rdns[2]</text><path fill="rgb(255,255,255)" stroke="rgb(211,211,211)" paint-order="fill stroke markers" d=" M 600 1190.7000007152558 L 969.5 1190.7000007152558 L 969.5 1190.7000007152558 A 8 8 0 0 1 977.5 1198.7000007152558 L 977.5 1600.7000014305115 L 977.5 1600.7000014305115 A 8 8 0 0 1 969.5 1608.7000014305115 L 230.5 1608.7000014305115 L 230.5 1608.7000014305115 A 8 8 0 0 1 222.5 1600.7000014305115 L 222.5 1198.7000007152558 L 222.5 1198.7000007152558 A 8 8 0 0 1 230.5 1190.7000007152558 L 600 1190.7000007152558 Z" fill-opacity="1" stroke-opacity="1" stroke-miterlimit="10"/><text fill="rgb(0,0,0)" stroke="none" font-family="Avenir, Helvetica, Arial, sans-serif" font-size="32px" font-style="normal" font-weight="bold" text-decoration="normal" x="600" y="1265.7000007152558" text-anchor="middle" dominant-baseline="text-after-edge" fill-opacity="1">outputs.tf</text><path fill="rgb(255,255,255)" stroke="rgb(211,211,211)" paint-order="fill stroke markers" d=" M 600 1918.9000014305116 L 969.5 1918.9000014305116 L 969.5 1918.9000014305116 A 8 8 0 0 1 977.5 1926.9000014305116 L 977.5 2727.9000042915345 L 977.5 2727.9000042915345 A 8 8 0 0 1 969.5 2735.9000042915345 L 230.5 2735.9000042915345 L 230.5 2735.9000042915345 A 8 8 0 0 1 222.5 2727.9000042915345 L 222.5 1926.9000014305116 L 222.5 1926.9000014305116 A 8 8 0 0 1 230.5 1918.9000014305116 L 600 1918.9000014305116 Z" fill-opacity="1" stroke-opacity="1" stroke-miterlimit="10"/><text fill="rgb(0,0,0)" stroke="none" font-family="Avenir, Helvetica, Arial, sans-serif" font-size="32px" font-style="normal" font-weight="bold" text-decoration="normal" x="600" y="1993.9000014305116" text-anchor="middle" dominant-baseline="text-after-edge" fill-opacity="1">variables.tf</text><path fill="rgb(255,255,255)" stroke="rgb(211,211,211)" paint-order="fill stroke markers" d=" M 1703.0000007152557 1189.2000007152558 L 2128.5000007152557 1189.2000007152558 L 2128.5000007152557 1189.2000007152558 A 8 8 0 0 1 2136.5000007152557 1197.2000007152558 L 2136.5000007152557 1623.7000007152558 L 2136.5000007152557 1623.7000007152558 A 8 8 0 0 1 2128.5000007152557 1631.7000007152558 L 1277.5000007152557 1631.7000007152558 L 1277.5000007152557 1631.7000007152558 A 8 8 0 0 1 1269.5000007152557 1623.7000007152558 L 1269.5000007152557 1197.2000007152558 L 1269.5000007152557 1197.2000007152558 A 8 8 0 0 1 1277.5000007152557 1189.2000007152558 L 1703.0000007152557 1189.2000007152558 Z" fill-opacity="1" stroke-opacity="1" stroke-miterlimit="10"/><text fill="rgb(0,0,0)" stroke="none" font-family="Avenir, Helvetica, Arial, sans-serif" font-size="32px" font-style="normal" font-weight="bold" text-decoration="normal" x="1703.0000007152557" y="1264.2000007152558" text-anchor="middle" dominant-baseline="text-after-edge" fill-opacity="1">main.tf</text><path fill="rgb(255,255,255)" stroke="rgb(211,211,211)" paint-order="fill stroke markers" d=" M 3201.2000014305113 1190.7000007152558 L 3570.7000014305113 1190.7000007152558 L 3570.7000014305113 1190.7000007152558 A 8 8 0 0 1 3578.7000014305113 1198.7000007152558 L 3578.7000014305113 1600.7000014305115 L 3578.7000014305113 1600.7000014305115 A 8 8 0 0 1 3570.7000014305113 1608.7000014305115 L 2831.7000014305113 1608.7000014305115 L 2831.7000014305113 1608.7000014305115 A 8 8 0 0 1 2823.7000014305113 1600.7000014305115 L 2823.7000014305113 1198.7000007152558 L 2823.7000014305113 1198.7000007152558 A 8 8 0 0 1 2831.7000014305113 1190.7000007152558 L 3201.2000014305113 1190.7000007152558 Z" fill-opacity="1" stroke-opacity="1" stroke-miterlimit="10"/><text fill="rgb(0,0,0)" stroke="none" font-family="Avenir, Helvetica, Arial, sans-serif" font-size="32px" font-style="normal" font-weight="bold" text-decoration="normal" x="3201.2000014305113" y="1265.7000007152558" text-anchor="middle" dominant-baseline="text-after-edge" fill-opacity="1">outputs.tf</text><path fill="rgb(255,255,255)" stroke="rgb(211,211,211)" paint-order="fill stroke markers" d=" M 3201.2000014305113 1918.9000014305116 L 3570.7000014305113 1918.9000014305116 L 3570.7000014305113 1918.9000014305116 A 8 8 0 0 1 3578.7000014305113 1926.9000014305116 L 3578.7000014305113 2727.9000042915345 L 3578.7000014305113 2727.9000042915345 A 8 8 0 0 1 3570.7000014305113 2735.9000042915345 L 2831.7000014305113 2735.9000042915345 L 2831.7000014305113 2735.9000042915345 A 8 8 0 0 1 2823.7000014305113 2727.9000042915345 L 2823.7000014305113 1926.9000014305116 L 2823.7000014305113 1926.9000014305116 A 8 8 0 0 1 2831.7000014305113 1918.9000014305116 L 3201.2000014305113 1918.9000014305116 Z" fill-opacity="1" stroke-opacity="1" stroke-miterlimit="10"/><text fill="rgb(0,0,0)" stroke="none" font-family="Avenir, Helvetica, Arial, sans-serif" font-size="32px" font-style="normal" font-weight="bold" text-decoration="normal" x="3201.2000014305113" y="1993.9000014305116" text-anchor="middle" dominant-baseline="text-after-edge" fill-opacity="1">variables.tf</text><path fill="rgb(255,255,255)" stroke="rgb(211,211,211)" paint-order="fill stroke markers" d=" M 4304.200002145767 1189.2000007152558 L 4729.700002145767 1189.2000007152558 L 4729.700002145767 1189.2000007152558 A 8 8 0 0 1 4737.700002145767 1197.2000007152558 L 4737.700002145767 1623.7000007152558 L 4737.700002145767 1623.7000007152558 A 8 8 0 0 1 4729.700002145767 1631.7000007152558 L 3878.700002145767 1631.7000007152558 L 3878.700002145767 1631.7000007152558 A 8 8 0 0 1 3870.700002145767 1623.7000007152558 L 3870.700002145767 1197.2000007152558 L 3870.700002145767 1197.2000007152558 A 8 8 0 0 1 3878.700002145767 1189.2000007152558 L 4304.200002145767 1189.2000007152558 Z" fill-opacity="1" stroke-opacity="1" stroke-miterlimit="10"/><text fill="rgb(0,0,0)" stroke="none" font-family="Avenir, Helvetica, Arial, sans-serif" font-size="32px" font-style="normal" font-weight="bold" text-decoration="normal" x="4304.200002145767" y="1264.2000007152558" text-anchor="middle" dominant-baseline="text-after-edge" fill-opacity="1">main.tf</text><path fill="rgb(255,255,255)" stroke="rgb(211,211,211)" paint-order="fill stroke markers" d=" M 600 4112.100005722045 L 969.5 4112.100005722045 L 969.5 4112.100005722045 A 8 8 0 0 1 977.5 4120.100005722045 L 977.5 4921.100008583068 L 977.5 4921.100008583068 A 8 8 0 0 1 969.5 4929.100008583068 L 230.5 4929.100008583068 L 230.5 4929.100008583068 A 8 8 0 0 1 222.5 4921.100008583068 L 222.5 4120.100005722045 L 222.5 4120.100005722045 A 8 8 0 0 1 230.5 4112.100005722045 L 600 4112.100005722045 Z" fill-opacity="1" stroke-opacity="1" stroke-miterlimit="10"/><text fill="rgb(0,0,0)" stroke="none" font-family="Avenir, Helvetica, Arial, sans-serif" font-size="32px" font-style="normal" font-weight="bold" text-decoration="normal" x="600" y="4187.100005722045" text-anchor="middle" dominant-baseline="text-after-edge" fill-opacity="1">variables.tf</text><path fill="rgb(255,255,255)" stroke="rgb(211,211,211)" paint-order="fill stroke markers" d=" M 1703.0000007152557 3382.40000500679 L 2128.5000007152557 3382.40000500679 L 2128.5000007152557 3382.40000500679 A 8 8 0 0 1 2136.5000007152557 3390.40000500679 L 2136.5000007152557 3816.90000500679 L 2136.5000007152557 3816.90000500679 A 8 8 0 0 1 2128.5000007152557 3824.90000500679 L 1277.5000007152557 3824.90000500679 L 1277.5000007152557 3824.90000500679 A 8 8 0 0 1 1269.5000007152557 3816.90000500679 L 1269.5000007152557 3390.40000500679 L 1269.5000007152557 3390.40000500679 A 8 8 0 0 1 1277.5000007152557 3382.40000500679 L 1703.0000007152557 3382.40000500679 Z" fill-opacity="1" stroke-opacity="1" stroke-miterlimit="10"/><text fill="rgb(0,0,0)" stroke="none" font-family="Avenir, Helvetica, Arial, sans-serif" font-size="32px" font-style="normal" font-weight="bold" text-decoration="normal" x="1703.0000007152557" y="3457.40000500679" text-anchor="middle" dominant-baseline="text-after-edge" fill-opacity="1">main.tf</text><path fill="rgb(255,255,255)" stroke="rgb(211,211,211)" paint-order="fill stroke markers" d=" M 600 3383.90000500679 L 969.5 3383.90000500679 L 969.5 3383.90000500679 A 8 8 0 0 1 977.5 3391.90000500679 L 977.5 3793.9000057220455 L 977.5 3793.9000057220455 A 8 8 0 0 1 969.5 3801.9000057220455 L 230.5 3801.9000057220455 L 230.5 3801.9000057220455 A 8 8 0 0 1 222.5 3793.9000057220455 L 222.5 3391.90000500679 L 222.5 3391.90000500679 A 8 8 0 0 1 230.5 3383.90000500679 L 600 3383.90000500679 Z" fill-opacity="1" stroke-opacity="1" stroke-miterlimit="10"/><text fill="rgb(0,0,0)" stroke="none" font-family="Avenir, Helvetica, Arial, sans-serif" font-size="32px" font-style="normal" font-weight="bold" text-decoration="normal" x="600" y="3458.90000500679" text-anchor="middle" dominant-baseline="text-after-edge" fill-opacity="1">outputs.tf</text><path fill="rgb(255,255,255)" stroke="rgb(0,0,0)" paint-order="fill stroke markers" d=" M 1703.0000007152557 1338.2000007152558 L 2025.0000007152557 1338.2000007152558 L 2025.0000007152557 1338.2000007152558 A 8 8 0 0 1 2033.0000007152557 1346.2000007152558 L 2033.0000007152557 1520.2000007152558 L 2033.0000007152557 1520.2000007152558 A 8 8 0 0 1 2025.0000007152557 1528.2000007152558 L 1381.0000007152557 1528.2000007152558 L 1381.0000007152557 1528.2000007152558 A 8 8 0 0 1 1373.0000007152557 1520.2000007152558 L 1373.0000007152557 1346.2000007152558 L 1373.0000007152557 1346.2000007152558 A 8 8 0 0 1 1381.0000007152557 1338.2000007152558 L 1703.0000007152557 1338.2000007152558 Z" fill-opacity="1" stroke-opacity="1" stroke-miterlimit="10" stroke-width="5"/><rect fill="rgb(255,255,255)" stroke="none" x="1580.5000007152557" y="1289.2000007152558" width="245" height="96" fill-opacity="1"/><text fill="rgb(0,0,0)" stroke="none" font-family="Avenir, Helvetica, Arial, sans-serif" font-size="32px" font-style="normal" font-weight="bold" text-decoration="normal" x="1703.0000007152557" y="1353.2000007152558" text-anchor="middle" dominant-baseline="text-after-edge" fill-opacity="1">hcloud_rdns</text><path fill="rgb(255,255,255)" stroke="rgb(0,0,0)" paint-order="fill stroke markers" d=" M 4304.200002145767 1338.2000007152558 L 4626.200002145767 1338.2000007152558 L 4626.200002145767 1338.2000007152558 A 8 8 0 0 1 4634.200002145767 1346.2000007152558 L 4634.200002145767 1520.2000007152558 L 4634.200002145767 1520.2000007152558 A 8 8 0 0 1 4626.200002145767 1528.2000007152558 L 3982.200002145767 1528.2000007152558 L 3982.200002145767 1528.2000007152558 A 8 8 0 0 1 3974.200002145767 1520.2000007152558 L 3974.200002145767 1346.2000007152558 L 3974.200002145767 1346.2000007152558 A 8 8 0 0 1 3982.200002145767 1338.2000007152558 L 4304.200002145767 1338.2000007152558 Z" fill-opacity="1" stroke-opacity="1" stroke-miterlimit="10" stroke-width="5"/><rect fill="rgb(255,255,255)" stroke="none" x="4181.700002145767" y="1289.2000007152558" width="245" height="96" fill-opacity="1"/><text fill="rgb(0,0,0)" stroke="none" font-family="Avenir, Helvetica, Arial, sans-serif" font-size="32px" font-style="normal" font-weight="bold" text-decoration="normal" x="4304.200002145767" y="1353.2000007152558" text-anchor="middle" dominant-baseline="text-after-edge" fill-opacity="1">hcloud_rdns</text><path fill="rgb(255,255,255)" stroke="rgb(0,0,0)" paint-order="fill stroke markers" d=" M 1703.0000007152557 3531.40000500679 L 2025.0000007152557 3531.40000500679 L 2025.0000007152557 3531.40000500679 A 8 8 0 0 1 2033.0000007152557 3539.40000500679 L 2033.0000007152557 3713.40000500679 L 2033.0000007152557 3713.40000500679 A 8 8 0 0 1 2025.0000007152557 3721.40000500679 L 1381.0000007152557 3721.40000500679 L 1381.0000007152557 3721.40000500679 A 8 8 0 0 1 1373.0000007152557 3713.40000500679 L 1373.0000007152557 3539.40000500679 L 1373.0000007152557 3539.40000500679 A 8 8 0 0 1 1381.0000007152557 3531.40000500679 L 1703.0000007152557 3531.40000500679 Z" fill-opacity="1" stroke-opacity="1" stroke-miterlimit="10" stroke-width="5"/><rect fill="rgb(255,255,255)" stroke="none" x="1580.5000007152557" y="3482.40000500679" width="245" height="96" fill-opacity="1"/><text fill="rgb(0,0,0)" stroke="none" font-family="Avenir, Helvetica, Arial, sans-serif" font-size="32px" font-style="normal" font-weight="bold" text-decoration="normal" x="1703.0000007152557" y="3546.40000500679" text-anchor="middle" dominant-baseline="text-after-edge" fill-opacity="1">hcloud_rdns</text><path fill="none" stroke="url(#SGCuLrFxKptQ)" paint-order="fill stroke markers" d=" M 2480.1000010728835 976.7000007152565 L 2480.1000010728835 709.1000003576282 L 3409.000002145767 709.1000003576282 L 3409.000002145767 441.5" stroke-linejoin="round" stroke-miterlimit="10" stroke-width="10"/><path fill="none" stroke="url(#BntNZWBFOruB)" paint-order="fill stroke markers" d=" M 2480.1000010728835 976.7000007152565 L 2480.1000010728835 659.1000003576282 L 1303.0000007152557 659.1000003576282 L 1303.0000007152557 341.5" stroke-linejoin="round" stroke-miterlimit="10" stroke-width="10"/><path fill="none" stroke="url(#TRyTNNTfXIyR)" paint-order="fill stroke markers" d=" M 876.5 1333.2000007152558 L 1152.7500003576279 1333.2000007152558 L 1152.7500003576279 1433.2000007152558 L 1429.0000007152557 1433.2000007152558" stroke-linejoin="round" stroke-miterlimit="10" stroke-width="10"/><path fill="none" stroke="url(#QkTBFiElykST)" paint-order="fill stroke markers" d=" M 876.5 1466.2000014305115 L 1152.7500003576279 1466.2000014305115 L 1152.7500003576279 1433.2000007152558 L 1429.0000007152557 1433.2000007152558" stroke-linejoin="round" stroke-miterlimit="10" stroke-width="10"/><path fill="none" stroke="url(#AkrmhottFfkO)" paint-order="fill stroke markers" d=" M 1429.0000007152557 1433.2000007152558 L 1152.7500003576279 1433.2000007152558 L 1152.7500003576279 2061.4000014305116 L 876.5 2061.4000014305116" stroke-linejoin="round" stroke-miterlimit="10" stroke-width="10"/><path fill="none" stroke="url(#HOqvypLspodW)" paint-order="fill stroke markers" d=" M 1703.0000007152557 1472.2000007152558 L 1703.0000007152557 1945.5500021457674 L 600 1945.5500021457674 L 600 2418.900003576279" stroke-linejoin="round" stroke-miterlimit="10" stroke-width="10"/><path fill="none" stroke="url(#DaKciHZLeuOK)" paint-order="fill stroke markers" d=" M 1703.0000007152557 1472.2000007152558 L 1703.0000007152557 1812.5500014305117 L 600 1812.5500014305117 L 600 2152.9000021457673" stroke-linejoin="round" stroke-miterlimit="10" stroke-width="10"/><path fill="none" stroke="url(#IXLxShrdwxzh)" paint-order="fill stroke markers" d=" M 1703.0000007152557 1472.2000007152558 L 1703.0000007152557 2012.0500025033953 L 600 2012.0500025033953 L 600 2551.9000042915345" stroke-linejoin="round" stroke-miterlimit="10" stroke-width="10"/><path fill="none" stroke="url(#UZKHvHZrJzeS)" paint-order="fill stroke markers" d=" M 1703.0000007152557 1472.2000007152558 L 1703.0000007152557 1879.0500017881395 L 600 1879.0500017881395 L 600 2285.900002861023" stroke-linejoin="round" stroke-miterlimit="10" stroke-width="10"/><path fill="none" stroke="url(#VvUNcPedVvzi)" paint-order="fill stroke markers" d=" M 3477.7000014305113 1333.2000007152558 L 3753.950001788139 1333.2000007152558 L 3753.950001788139 1433.2000007152558 L 4030.200002145767 1433.2000007152558" stroke-linejoin="round" stroke-miterlimit="10" stroke-width="10"/><path fill="none" stroke="url(#fsuXFiaMTEtc)" paint-order="fill stroke markers" d=" M 3477.7000014305113 1466.2000014305115 L 3753.950001788139 1466.2000014305115 L 3753.950001788139 1433.2000007152558 L 4030.200002145767 1433.2000007152558" stroke-linejoin="round" stroke-miterlimit="10" stroke-width="10"/><path fill="none" stroke="url(#GcBvbtyrJeSr)" paint-order="fill stroke markers" d=" M 4304.200002145767 1472.2000007152558 L 4304.200002145767 2012.0500025033953 L 3201.2000014305113 2012.0500025033953 L 3201.2000014305113 2551.9000042915345" stroke-linejoin="round" stroke-miterlimit="10" stroke-width="10"/><path fill="none" stroke="url(#MBCzNOZsdGzM)" paint-order="fill stroke markers" d=" M 4304.200002145767 1472.2000007152558 L 4304.200002145767 1879.0500017881395 L 3201.2000014305113 1879.0500017881395 L 3201.2000014305113 2285.900002861023" stroke-linejoin="round" stroke-miterlimit="10" stroke-width="10"/><path fill="none" stroke="url(#HxfnmuAShtVF)" paint-order="fill stroke markers" d=" M 4030.200002145767 1433.2000007152558 L 3753.950001788139 1433.2000007152558 L 3753.950001788139 2061.4000014305116 L 3477.7000014305113 2061.4000014305116" stroke-linejoin="round" stroke-miterlimit="10" stroke-width="10"/><path fill="none" stroke="url(#PTkkXpvJrtLT)" paint-order="fill stroke markers" d=" M 4304.200002145767 1472.2000007152558 L 4304.200002145767 1945.5500021457674 L 3201.2000014305113 1945.5500021457674 L 3201.2000014305113 2418.900003576279" stroke-linejoin="round" stroke-miterlimit="10" stroke-width="10"/><path fill="none" stroke="url(#NIMgXTlipvuC)" paint-order="fill stroke markers" d=" M 4304.200002145767 1472.2000007152558 L 4304.200002145767 1812.5500014305117 L 3201.2000014305113 1812.5500014305117 L 3201.2000014305113 2152.9000021457673" stroke-linejoin="round" stroke-miterlimit="10" stroke-width="10"/><path fill="none" stroke="url(#TVIDxQczSTbX)" paint-order="fill stroke markers" d=" M 876.5 3526.40000500679 L 1152.7500003576279 3526.40000500679 L 1152.7500003576279 3626.40000500679 L 1429.0000007152557 3626.40000500679" stroke-linejoin="round" stroke-miterlimit="10" stroke-width="10"/><path fill="none" stroke="url(#GgTWMUpcLSEW)" paint-order="fill stroke markers" d=" M 876.5 3659.4000057220455 L 1152.7500003576279 3659.4000057220455 L 1152.7500003576279 3626.40000500679 L 1429.0000007152557 3626.40000500679" stroke-linejoin="round" stroke-miterlimit="10" stroke-width="10"/><path fill="none" stroke="url(#ocAFhhBopPsS)" paint-order="fill stroke markers" d=" M 1703.0000007152557 3665.40000500679 L 1703.0000007152557 4205.2500067949295 L 600 4205.2500067949295 L 600 4745.100008583068" stroke-linejoin="round" stroke-miterlimit="10" stroke-width="10"/><path fill="none" stroke="url(#IWGJMTrHVAkx)" paint-order="fill stroke markers" d=" M 1703.0000007152557 3665.40000500679 L 1703.0000007152557 4072.2500060796733 L 600 4072.2500060796733 L 600 4479.100007152557" stroke-linejoin="round" stroke-miterlimit="10" stroke-width="10"/><path fill="none" stroke="url(#CwcEaPMMSzsT)" paint-order="fill stroke markers" d=" M 1429.0000007152557 3626.40000500679 L 1152.7500003576279 3626.40000500679 L 1152.7500003576279 4254.600005722045 L 876.5 4254.600005722045" stroke-linejoin="round" stroke-miterlimit="10" stroke-width="10"/><path fill="none" stroke="url(#rGVNGAnxcGkP)" paint-order="fill stroke markers" d=" M 1703.0000007152557 3665.40000500679 L 1703.0000007152557 4138.750006437302 L 600 4138.750006437302 L 600 4612.100007867813" stroke-linejoin="round" stroke-miterlimit="10" stroke-width="10"/><path fill="none" stroke="url(#CCdoVtJWykkM)" paint-order="fill stroke markers" d=" M 1703.0000007152557 3665.40000500679 L 1703.0000007152557 4005.7500057220454 L 600 4005.7500057220454 L 600 4346.100006437301" stroke-linejoin="round" stroke-miterlimit="10" stroke-width="10"/><path fill="none" stroke="url(#SEyozhHfrAOM)" paint-order="fill stroke markers" d=" M 2306.0000014305115 341.5 L 2306.0000014305115 659.1000003576282 L 2480.1000010728835 659.1000003576282 L 2480.1000010728835 976.7000007152565" stroke-linejoin="round" stroke-miterlimit="10" stroke-width="10"/><path fill="none" stroke="url(#ftlqUFNqCkQR)" paint-order="fill stroke markers" d=" M 2306.0000014305115 474.50000071525574 L 2306.0000014305115 725.6000007152561 L 2480.1000010728835 725.6000007152561 L 2480.1000010728835 976.7000007152565" stroke-linejoin="round" stroke-miterlimit="10" stroke-width="10"/><path fill="rgb(225,240,255)" stroke="rgb(29,122,218)" paint-order="fill stroke markers" d=" M 300 261 L 566 261 L 566 261 A 8 8 0 0 1 574 269 L 574 331 L 574 331 A 8 8 0 0 1 566 339 L 34 339 L 34 339 A 8 8 0 0 1 26 331 L 26 269 L 26 269 A 8 8 0 0 1 34 261 L 300 261 Z" fill-opacity="1" stroke-opacity="1" stroke-miterlimit="10" stroke-width="5"/><text fill="rgb(0,0,0)" stroke="none" font-family="Avenir, Helvetica, Arial, sans-serif" font-size="32px" font-style="normal" font-weight="bold" text-decoration="normal" x="300" y="316" text-anchor="middle" dominant-baseline="text-after-edge" fill-opacity="1">token</text><path fill="rgb(255,236,236)" stroke="rgb(220,71,125)" paint-order="fill stroke markers" d=" M 3409.000002145767 361 L 3675.000002145767 361 L 3675.000002145767 361 A 8 8 0 0 1 3683.000002145767 369 L 3683.000002145767 431 L 3683.000002145767 431 A 8 8 0 0 1 3675.000002145767 439 L 3143.000002145767 439 L 3143.000002145767 439 A 8 8 0 0 1 3135.000002145767 431 L 3135.000002145767 369 L 3135.000002145767 369 A 8 8 0 0 1 3143.000002145767 361 L 3409.000002145767 361 Z" fill-opacity="1" stroke-opacity="1" stroke-miterlimit="10" stroke-width="5"/><text fill="rgb(0,0,0)" stroke="none" font-family="Avenir, Helvetica, Arial, sans-serif" font-size="32px" font-style="normal" font-weight="bold" text-decoration="normal" x="3409.000002145767" y="416" text-anchor="middle" dominant-baseline="text-after-edge" fill-opacity="1">default</text><path fill="rgb(255,247,224)" stroke="rgb(255,193,7)" paint-order="fill stroke markers" d=" M 600 1294.2000007152558 L 866 1294.2000007152558 L 866 1294.2000007152558 A 8 8 0 0 1 874 1302.2000007152558 L 874 1364.2000007152558 L 874 1364.2000007152558 A 8 8 0 0 1 866 1372.2000007152558 L 334 1372.2000007152558 L 334 1372.2000007152558 A 8 8 0 0 1 326 1364.2000007152558 L 326 1302.2000007152558 L 326 1302.2000007152558 A 8 8 0 0 1 334 1294.2000007152558 L 600 1294.2000007152558 Z" fill-opacity="1" stroke-opacity="1" stroke-miterlimit="10" stroke-width="5"/><text fill="rgb(0,0,0)" stroke="none" font-family="Avenir, Helvetica, Arial, sans-serif" font-size="32px" font-style="normal" font-weight="bold" text-decoration="normal" x="600" y="1349.2000007152558" text-anchor="middle" dominant-baseline="text-after-edge" fill-opacity="1">dns_ptr</text><path fill="rgb(255,247,224)" stroke="rgb(255,193,7)" paint-order="fill stroke markers" d=" M 600 1427.2000014305115 L 866 1427.2000014305115 L 866 1427.2000014305115 A 8 8 0 0 1 874 1435.2000014305115 L 874 1497.2000014305115 L 874 1497.2000014305115 A 8 8 0 0 1 866 1505.2000014305115 L 334 1505.2000014305115 L 334 1505.2000014305115 A 8 8 0 0 1 326 1497.2000014305115 L 326 1435.2000014305115 L 326 1435.2000014305115 A 8 8 0 0 1 334 1427.2000014305115 L 600 1427.2000014305115 Z" fill-opacity="1" stroke-opacity="1" stroke-miterlimit="10" stroke-width="5"/><text fill="rgb(0,0,0)" stroke="none" font-family="Avenir, Helvetica, Arial, sans-serif" font-size="32px" font-style="normal" font-weight="bold" text-decoration="normal" x="600" y="1482.2000014305115" text-anchor="middle" dominant-baseline="text-after-edge" fill-opacity="1">ip_address</text><path fill="rgb(225,240,255)" stroke="rgb(29,122,218)" paint-order="fill stroke markers" d=" M 600 2022.4000014305116 L 866 2022.4000014305116 L 866 2022.4000014305116 A 8 8 0 0 1 874 2030.4000014305116 L 874 2092.4000014305116 L 874 2092.4000014305116 A 8 8 0 0 1 866 2100.4000014305116 L 334 2100.4000014305116 L 334 2100.4000014305116 A 8 8 0 0 1 326 2092.4000014305116 L 326 2030.4000014305116 L 326 2030.4000014305116 A 8 8 0 0 1 334 2022.4000014305116 L 600 2022.4000014305116 Z" fill-opacity="1" stroke-opacity="1" stroke-miterlimit="10" stroke-width="5"/><text fill="rgb(0,0,0)" stroke="none" font-family="Avenir, Helvetica, Arial, sans-serif" font-size="32px" font-style="normal" font-weight="bold" text-decoration="normal" x="600" y="2077.4000014305116" text-anchor="middle" dominant-baseline="text-after-edge" fill-opacity="1">dns_ptr</text><path fill="rgb(225,240,255)" stroke="rgb(29,122,218)" paint-order="fill stroke markers" d=" M 600 2155.4000021457673 L 866 2155.4000021457673 L 866 2155.4000021457673 A 8 8 0 0 1 874 2163.4000021457673 L 874 2225.4000021457673 L 874 2225.4000021457673 A 8 8 0 0 1 866 2233.4000021457673 L 334 2233.4000021457673 L 334 2233.4000021457673 A 8 8 0 0 1 326 2225.4000021457673 L 326 2163.4000021457673 L 326 2163.4000021457673 A 8 8 0 0 1 334 2155.4000021457673 L 600 2155.4000021457673 Z" fill-opacity="1" stroke-opacity="1" stroke-miterlimit="10" stroke-width="5"/><text fill="rgb(0,0,0)" stroke="none" font-family="Avenir, Helvetica, Arial, sans-serif" font-size="32px" font-style="normal" font-weight="bold" text-decoration="normal" x="600" y="2210.4000021457673" text-anchor="middle" dominant-baseline="text-after-edge" fill-opacity="1">ip_address</text><path fill="rgb(225,240,255)" stroke="rgb(29,122,218)" paint-order="fill stroke markers" d=" M 600 2288.400002861023 L 866 2288.400002861023 L 866 2288.400002861023 A 8 8 0 0 1 874 2296.400002861023 L 874 2358.400002861023 L 874 2358.400002861023 A 8 8 0 0 1 866 2366.400002861023 L 334 2366.400002861023 L 334 2366.400002861023 A 8 8 0 0 1 326 2358.400002861023 L 326 2296.400002861023 L 326 2296.400002861023 A 8 8 0 0 1 334 2288.400002861023 L 600 2288.400002861023 Z" fill-opacity="1" stroke-opacity="1" stroke-miterlimit="10" stroke-width="5"/><text fill="rgb(0,0,0)" stroke="none" font-family="Avenir, Helvetica, Arial, sans-serif" font-size="32px" font-style="normal" font-weight="bold" text-decoration="normal" x="600" y="2343.400002861023" text-anchor="middle" dominant-baseline="text-after-edge" fill-opacity="1">server_id</text><path fill="rgb(225,240,255)" stroke="rgb(29,122,218)" paint-order="fill stroke markers" d=" M 600 2421.400003576279 L 866 2421.400003576279 L 866 2421.400003576279 A 8 8 0 0 1 874 2429.400003576279 L 874 2491.400003576279 L 874 2491.400003576279 A 8 8 0 0 1 866 2499.400003576279 L 334 2499.400003576279 L 334 2499.400003576279 A 8 8 0 0 1 326 2491.400003576279 L 326 2429.400003576279 L 326 2429.400003576279 A 8 8 0 0 1 334 2421.400003576279 L 600 2421.400003576279 Z" fill-opacity="1" stroke-opacity="1" stroke-miterlimit="10" stroke-width="5"/><text fill="rgb(0,0,0)" stroke="none" font-family="Avenir, Helvetica, Arial, sans-serif" font-size="32px" font-style="normal" font-weight="bold" text-decoration="normal" x="600" y="2476.400003576279" text-anchor="middle" dominant-baseline="text-after-edge" fill-opacity="1">floating_ip_id</text><path fill="rgb(225,240,255)" stroke="rgb(29,122,218)" paint-order="fill stroke markers" d=" M 600 2554.4000042915345 L 866 2554.4000042915345 L 866 2554.4000042915345 A 8 8 0 0 1 874 2562.4000042915345 L 874 2624.4000042915345 L 874 2624.4000042915345 A 8 8 0 0 1 866 2632.4000042915345 L 334 2632.4000042915345 L 334 2632.4000042915345 A 8 8 0 0 1 326 2624.4000042915345 L 326 2562.4000042915345 L 326 2562.4000042915345 A 8 8 0 0 1 334 2554.4000042915345 L 600 2554.4000042915345 Z" fill-opacity="1" stroke-opacity="1" stroke-miterlimit="10" stroke-width="5"/><text fill="rgb(0,0,0)" stroke="none" font-family="Avenir, Helvetica, Arial, sans-serif" font-size="32px" font-style="normal" font-weight="bold" text-decoration="normal" x="600" y="2609.4000042915345" text-anchor="middle" dominant-baseline="text-after-edge" fill-opacity="1">load_balancer_id</text><path fill="rgb(40,167,69)" stroke="none" paint-order="stroke fill markers" d=" M 1703.0000007152557 1394.2000007152558 L 1969.0000007152557 1394.2000007152558 L 1969.0000007152557 1394.2000007152558 A 8 8 0 0 1 1977.0000007152557 1402.2000007152558 L 1977.0000007152557 1464.2000007152558 L 1977.0000007152557 1464.2000007152558 A 8 8 0 0 1 1969.0000007152557 1472.2000007152558 L 1437.0000007152557 1472.2000007152558 L 1437.0000007152557 1472.2000007152558 A 8 8 0 0 1 1429.0000007152557 1464.2000007152558 L 1429.0000007152557 1402.2000007152558 L 1429.0000007152557 1402.2000007152558 A 8 8 0 0 1 1437.0000007152557 1394.2000007152558 L 1703.0000007152557 1394.2000007152558 Z" fill-opacity="1"/><text fill="rgb(255,255,255)" stroke="none" font-family="Avenir, Helvetica, Arial, sans-serif" font-size="32px" font-style="normal" font-weight="bold" text-decoration="normal" x="1703.0000007152557" y="1449.2000007152558" text-anchor="middle" dominant-baseline="text-after-edge" fill-opacity="1">default</text><path fill="rgb(255,247,224)" stroke="rgb(255,193,7)" paint-order="fill stroke markers" d=" M 3201.2000014305113 1294.2000007152558 L 3467.2000014305113 1294.2000007152558 L 3467.2000014305113 1294.2000007152558 A 8 8 0 0 1 3475.2000014305113 1302.2000007152558 L 3475.2000014305113 1364.2000007152558 L 3475.2000014305113 1364.2000007152558 A 8 8 0 0 1 3467.2000014305113 1372.2000007152558 L 2935.2000014305113 1372.2000007152558 L 2935.2000014305113 1372.2000007152558 A 8 8 0 0 1 2927.2000014305113 1364.2000007152558 L 2927.2000014305113 1302.2000007152558 L 2927.2000014305113 1302.2000007152558 A 8 8 0 0 1 2935.2000014305113 1294.2000007152558 L 3201.2000014305113 1294.2000007152558 Z" fill-opacity="1" stroke-opacity="1" stroke-miterlimit="10" stroke-width="5"/><text fill="rgb(0,0,0)" stroke="none" font-family="Avenir, Helvetica, Arial, sans-serif" font-size="32px" font-style="normal" font-weight="bold" text-decoration="normal" x="3201.2000014305113" y="1349.2000007152558" text-anchor="middle" dominant-baseline="text-after-edge" fill-opacity="1">dns_ptr</text><path fill="rgb(255,247,224)" stroke="rgb(255,193,7)" paint-order="fill stroke markers" d=" M 3201.2000014305113 1427.2000014305115 L 3467.2000014305113 1427.2000014305115 L 3467.2000014305113 1427.2000014305115 A 8 8 0 0 1 3475.2000014305113 1435.2000014305115 L 3475.2000014305113 1497.2000014305115 L 3475.2000014305113 1497.2000014305115 A 8 8 0 0 1 3467.2000014305113 1505.2000014305115 L 2935.2000014305113 1505.2000014305115 L 2935.2000014305113 1505.2000014305115 A 8 8 0 0 1 2927.2000014305113 1497.2000014305115 L 2927.2000014305113 1435.2000014305115 L 2927.2000014305113 1435.2000014305115 A 8 8 0 0 1 2935.2000014305113 1427.2000014305115 L 3201.2000014305113 1427.2000014305115 Z" fill-opacity="1" stroke-opacity="1" stroke-miterlimit="10" stroke-width="5"/><text fill="rgb(0,0,0)" stroke="none" font-family="Avenir, Helvetica, Arial, sans-serif" font-size="32px" font-style="normal" font-weight="bold" text-decoration="normal" x="3201.2000014305113" y="1482.2000014305115" text-anchor="middle" dominant-baseline="text-after-edge" fill-opacity="1">ip_address</text><path fill="rgb(225,240,255)" stroke="rgb(29,122,218)" paint-order="fill stroke markers" d=" M 3201.2000014305113 2022.4000014305116 L 3467.2000014305113 2022.4000014305116 L 3467.2000014305113 2022.4000014305116 A 8 8 0 0 1 3475.2000014305113 2030.4000014305116 L 3475.2000014305113 2092.4000014305116 L 3475.2000014305113 2092.4000014305116 A 8 8 0 0 1 3467.2000014305113 2100.4000014305116 L 2935.2000014305113 2100.4000014305116 L 2935.2000014305113 2100.4000014305116 A 8 8 0 0 1 2927.2000014305113 2092.4000014305116 L 2927.2000014305113 2030.4000014305116 L 2927.2000014305113 2030.4000014305116 A 8 8 0 0 1 2935.2000014305113 2022.4000014305116 L 3201.2000014305113 2022.4000014305116 Z" fill-opacity="1" stroke-opacity="1" stroke-miterlimit="10" stroke-width="5"/><text fill="rgb(0,0,0)" stroke="none" font-family="Avenir, Helvetica, Arial, sans-serif" font-size="32px" font-style="normal" font-weight="bold" text-decoration="normal" x="3201.2000014305113" y="2077.4000014305116" text-anchor="middle" dominant-baseline="text-after-edge" fill-opacity="1">floating_ip_id</text><path fill="rgb(225,240,255)" stroke="rgb(29,122,218)" paint-order="fill stroke markers" d=" M 3201.2000014305113 2155.4000021457673 L 3467.2000014305113 2155.4000021457673 L 3467.2000014305113 2155.4000021457673 A 8 8 0 0 1 3475.2000014305113 2163.4000021457673 L 3475.2000014305113 2225.4000021457673 L 3475.2000014305113 2225.4000021457673 A 8 8 0 0 1 3467.2000014305113 2233.4000021457673 L 2935.2000014305113 2233.4000021457673 L 2935.2000014305113 2233.4000021457673 A 8 8 0 0 1 2927.2000014305113 2225.4000021457673 L 2927.2000014305113 2163.4000021457673 L 2927.2000014305113 2163.4000021457673 A 8 8 0 0 1 2935.2000014305113 2155.4000021457673 L 3201.2000014305113 2155.4000021457673 Z" fill-opacity="1" stroke-opacity="1" stroke-miterlimit="10" stroke-width="5"/><text fill="rgb(0,0,0)" stroke="none" font-family="Avenir, Helvetica, Arial, sans-serif" font-size="32px" font-style="normal" font-weight="bold" text-decoration="normal" x="3201.2000014305113" y="2210.4000021457673" text-anchor="middle" dominant-baseline="text-after-edge" fill-opacity="1">load_balancer_id</text><path fill="rgb(225,240,255)" stroke="rgb(29,122,218)" paint-order="fill stroke markers" d=" M 3201.2000014305113 2288.400002861023 L 3467.2000014305113 2288.400002861023 L 3467.2000014305113 2288.400002861023 A 8 8 0 0 1 3475.2000014305113 2296.400002861023 L 3475.2000014305113 2358.400002861023 L 3475.2000014305113 2358.400002861023 A 8 8 0 0 1 3467.2000014305113 2366.400002861023 L 2935.2000014305113 2366.400002861023 L 2935.2000014305113 2366.400002861023 A 8 8 0 0 1 2927.2000014305113 2358.400002861023 L 2927.2000014305113 2296.400002861023 L 2927.2000014305113 2296.400002861023 A 8 8 0 0 1 2935.2000014305113 2288.400002861023 L 3201.2000014305113 2288.400002861023 Z" fill-opacity="1" stroke-opacity="1" stroke-miterlimit="10" stroke-width="5"/><text fill="rgb(0,0,0)" stroke="none" font-family="Avenir, Helvetica, Arial, sans-serif" font-size="32px" font-style="normal" font-weight="bold" text-decoration="normal" x="3201.2000014305113" y="2343.400002861023" text-anchor="middle" dominant-baseline="text-after-edge" fill-opacity="1">dns_ptr</text><path fill="rgb(225,240,255)" stroke="rgb(29,122,218)" paint-order="fill stroke markers" d=" M 3201.2000014305113 2421.400003576279 L 3467.2000014305113 2421.400003576279 L 3467.2000014305113 2421.400003576279 A 8 8 0 0 1 3475.2000014305113 2429.400003576279 L 3475.2000014305113 2491.400003576279 L 3475.2000014305113 2491.400003576279 A 8 8 0 0 1 3467.2000014305113 2499.400003576279 L 2935.2000014305113 2499.400003576279 L 2935.2000014305113 2499.400003576279 A 8 8 0 0 1 2927.2000014305113 2491.400003576279 L 2927.2000014305113 2429.400003576279 L 2927.2000014305113 2429.400003576279 A 8 8 0 0 1 2935.2000014305113 2421.400003576279 L 3201.2000014305113 2421.400003576279 Z" fill-opacity="1" stroke-opacity="1" stroke-miterlimit="10" stroke-width="5"/><text fill="rgb(0,0,0)" stroke="none" font-family="Avenir, Helvetica, Arial, sans-serif" font-size="32px" font-style="normal" font-weight="bold" text-decoration="normal" x="3201.2000014305113" y="2476.400003576279" text-anchor="middle" dominant-baseline="text-after-edge" fill-opacity="1">ip_address</text><path fill="rgb(225,240,255)" stroke="rgb(29,122,218)" paint-order="fill stroke markers" d=" M 3201.2000014305113 2554.4000042915345 L 3467.2000014305113 2554.4000042915345 L 3467.2000014305113 2554.4000042915345 A 8 8 0 0 1 3475.2000014305113 2562.4000042915345 L 3475.2000014305113 2624.4000042915345 L 3475.2000014305113 2624.4000042915345 A 8 8 0 0 1 3467.2000014305113 2632.4000042915345 L 2935.2000014305113 2632.4000042915345 L 2935.2000014305113 2632.4000042915345 A 8 8 0 0 1 2927.2000014305113 2624.4000042915345 L 2927.2000014305113 2562.4000042915345 L 2927.2000014305113 2562.4000042915345 A 8 8 0 0 1 2935.2000014305113 2554.4000042915345 L 3201.2000014305113 2554.4000042915345 Z" fill-opacity="1" stroke-opacity="1" stroke-miterlimit="10" stroke-width="5"/><text fill="rgb(0,0,0)" stroke="none" font-family="Avenir, Helvetica, Arial, sans-serif" font-size="32px" font-style="normal" font-weight="bold" text-decoration="normal" x="3201.2000014305113" y="2609.4000042915345" text-anchor="middle" dominant-baseline="text-after-edge" fill-opacity="1">server_id</text><path fill="rgb(40,167,69)" stroke="none" paint-order="stroke fill markers" d=" M 4304.200002145767 1394.2000007152558 L 4570.200002145767 1394.2000007152558 L 4570.200002145767 1394.2000007152558 A 8 8 0 0 1 4578.200002145767 1402.2000007152558 L 4578.200002145767 1464.2000007152558 L 4578.200002145767 1464.2000007152558 A 8 8 0 0 1 4570.200002145767 1472.2000007152558 L 4038.200002145767 1472.2000007152558 L 4038.200002145767 1472.2000007152558 A 8 8 0 0 1 4030.200002145767 1464.2000007152558 L 4030.200002145767 1402.2000007152558 L 4030.200002145767 1402.2000007152558 A 8 8 0 0 1 4038.200002145767 1394.2000007152558 L 4304.200002145767 1394.2000007152558 Z" fill-opacity="1"/><text fill="rgb(255,255,255)" stroke="none" font-family="Avenir, Helvetica, Arial, sans-serif" font-size="32px" font-style="normal" font-weight="bold" text-decoration="normal" x="4304.200002145767" y="1449.2000007152558" text-anchor="middle" dominant-baseline="text-after-edge" fill-opacity="1">default</text><path fill="rgb(225,240,255)" stroke="rgb(29,122,218)" paint-order="fill stroke markers" d=" M 600 4215.600005722045 L 866 4215.600005722045 L 866 4215.600005722045 A 8 8 0 0 1 874 4223.600005722045 L 874 4285.600005722045 L 874 4285.600005722045 A 8 8 0 0 1 866 4293.600005722045 L 334 4293.600005722045 L 334 4293.600005722045 A 8 8 0 0 1 326 4285.600005722045 L 326 4223.600005722045 L 326 4223.600005722045 A 8 8 0 0 1 334 4215.600005722045 L 600 4215.600005722045 Z" fill-opacity="1" stroke-opacity="1" stroke-miterlimit="10" stroke-width="5"/><text fill="rgb(0,0,0)" stroke="none" font-family="Avenir, Helvetica, Arial, sans-serif" font-size="32px" font-style="normal" font-weight="bold" text-decoration="normal" x="600" y="4270.600005722045" text-anchor="middle" dominant-baseline="text-after-edge" fill-opacity="1">floating_ip_id</text><path fill="rgb(225,240,255)" stroke="rgb(29,122,218)" paint-order="fill stroke markers" d=" M 600 4348.600006437301 L 866 4348.600006437301 L 866 4348.600006437301 A 8 8 0 0 1 874 4356.600006437301 L 874 4418.600006437301 L 874 4418.600006437301 A 8 8 0 0 1 866 4426.600006437301 L 334 4426.600006437301 L 334 4426.600006437301 A 8 8 0 0 1 326 4418.600006437301 L 326 4356.600006437301 L 326 4356.600006437301 A 8 8 0 0 1 334 4348.600006437301 L 600 4348.600006437301 Z" fill-opacity="1" stroke-opacity="1" stroke-miterlimit="10" stroke-width="5"/><text fill="rgb(0,0,0)" stroke="none" font-family="Avenir, Helvetica, Arial, sans-serif" font-size="32px" font-style="normal" font-weight="bold" text-decoration="normal" x="600" y="4403.600006437301" text-anchor="middle" dominant-baseline="text-after-edge" fill-opacity="1">load_balancer_id</text><path fill="rgb(225,240,255)" stroke="rgb(29,122,218)" paint-order="fill stroke markers" d=" M 600 4481.600007152557 L 866 4481.600007152557 L 866 4481.600007152557 A 8 8 0 0 1 874 4489.600007152557 L 874 4551.600007152557 L 874 4551.600007152557 A 8 8 0 0 1 866 4559.600007152557 L 334 4559.600007152557 L 334 4559.600007152557 A 8 8 0 0 1 326 4551.600007152557 L 326 4489.600007152557 L 326 4489.600007152557 A 8 8 0 0 1 334 4481.600007152557 L 600 4481.600007152557 Z" fill-opacity="1" stroke-opacity="1" stroke-miterlimit="10" stroke-width="5"/><text fill="rgb(0,0,0)" stroke="none" font-family="Avenir, Helvetica, Arial, sans-serif" font-size="32px" font-style="normal" font-weight="bold" text-decoration="normal" x="600" y="4536.600007152557" text-anchor="middle" dominant-baseline="text-after-edge" fill-opacity="1">dns_ptr</text><path fill="rgb(225,240,255)" stroke="rgb(29,122,218)" paint-order="fill stroke markers" d=" M 600 4614.600007867813 L 866 4614.600007867813 L 866 4614.600007867813 A 8 8 0 0 1 874 4622.600007867813 L 874 4684.600007867813 L 874 4684.600007867813 A 8 8 0 0 1 866 4692.600007867813 L 334 4692.600007867813 L 334 4692.600007867813 A 8 8 0 0 1 326 4684.600007867813 L 326 4622.600007867813 L 326 4622.600007867813 A 8 8 0 0 1 334 4614.600007867813 L 600 4614.600007867813 Z" fill-opacity="1" stroke-opacity="1" stroke-miterlimit="10" stroke-width="5"/><text fill="rgb(0,0,0)" stroke="none" font-family="Avenir, Helvetica, Arial, sans-serif" font-size="32px" font-style="normal" font-weight="bold" text-decoration="normal" x="600" y="4669.600007867813" text-anchor="middle" dominant-baseline="text-after-edge" fill-opacity="1">ip_address</text><path fill="rgb(225,240,255)" stroke="rgb(29,122,218)" paint-order="fill stroke markers" d=" M 600 4747.600008583068 L 866 4747.600008583068 L 866 4747.600008583068 A 8 8 0 0 1 874 4755.600008583068 L 874 4817.600008583068 L 874 4817.600008583068 A 8 8 0 0 1 866 4825.600008583068 L 334 4825.600008583068 L 334 4825.600008583068 A 8 8 0 0 1 326 4817.600008583068 L 326 4755.600008583068 L 326 4755.600008583068 A 8 8 0 0 1 334 4747.600008583068 L 600 4747.600008583068 Z" fill-opacity="1" stroke-opacity="1" stroke-miterlimit="10" stroke-width="5"/><text fill="rgb(0,0,0)" stroke="none" font-family="Avenir, Helvetica, Arial, sans-serif" font-size="32px" font-style="normal" font-weight="bold" text-decoration="normal" x="600" y="4802.600008583068" text-anchor="middle" dominant-baseline="text-after-edge" fill-opacity="1">server_id</text><path fill="rgb(40,167,69)" stroke="none" paint-order="stroke fill markers" d=" M 1703.0000007152557 3587.40000500679 L 1969.0000007152557 3587.40000500679 L 1969.0000007152557 3587.40000500679 A 8 8 0 0 1 1977.0000007152557 3595.40000500679 L 1977.0000007152557 3657.40000500679 L 1977.0000007152557 3657.40000500679 A 8 8 0 0 1 1969.0000007152557 3665.40000500679 L 1437.0000007152557 3665.40000500679 L 1437.0000007152557 3665.40000500679 A 8 8 0 0 1 1429.0000007152557 3657.40000500679 L 1429.0000007152557 3595.40000500679 L 1429.0000007152557 3595.40000500679 A 8 8 0 0 1 1437.0000007152557 3587.40000500679 L 1703.0000007152557 3587.40000500679 Z" fill-opacity="1"/><text fill="rgb(255,255,255)" stroke="none" font-family="Avenir, Helvetica, Arial, sans-serif" font-size="32px" font-style="normal" font-weight="bold" text-decoration="normal" x="1703.0000007152557" y="3642.40000500679" text-anchor="middle" dominant-baseline="text-after-edge" fill-opacity="1">default</text><path fill="rgb(255,247,224)" stroke="rgb(255,193,7)" paint-order="fill stroke markers" d=" M 600 3487.40000500679 L 866 3487.40000500679 L 866 3487.40000500679 A 8 8 0 0 1 874 3495.40000500679 L 874 3557.40000500679 L 874 3557.40000500679 A 8 8 0 0 1 866 3565.40000500679 L 334 3565.40000500679 L 334 3565.40000500679 A 8 8 0 0 1 326 3557.40000500679 L 326 3495.40000500679 L 326 3495.40000500679 A 8 8 0 0 1 334 3487.40000500679 L 600 3487.40000500679 Z" fill-opacity="1" stroke-opacity="1" stroke-miterlimit="10" stroke-width="5"/><text fill="rgb(0,0,0)" stroke="none" font-family="Avenir, Helvetica, Arial, sans-serif" font-size="32px" font-style="normal" font-weight="bold" text-decoration="normal" x="600" y="3542.40000500679" text-anchor="middle" dominant-baseline="text-after-edge" fill-opacity="1">dns_ptr</text><path fill="rgb(255,247,224)" stroke="rgb(255,193,7)" paint-order="fill stroke markers" d=" M 600 3620.4000057220455 L 866 3620.4000057220455 L 866 3620.4000057220455 A 8 8 0 0 1 874 3628.4000057220455 L 874 3690.4000057220455 L 874 3690.4000057220455 A 8 8 0 0 1 866 3698.4000057220455 L 334 3698.4000057220455 L 334 3698.4000057220455 A 8 8 0 0 1 326 3690.4000057220455 L 326 3628.4000057220455 L 326 3628.4000057220455 A 8 8 0 0 1 334 3620.4000057220455 L 600 3620.4000057220455 Z" fill-opacity="1" stroke-opacity="1" stroke-miterlimit="10" stroke-width="5"/><text fill="rgb(0,0,0)" stroke="none" font-family="Avenir, Helvetica, Arial, sans-serif" font-size="32px" font-style="normal" font-weight="bold" text-decoration="normal" x="600" y="3675.4000057220455" text-anchor="middle" dominant-baseline="text-after-edge" fill-opacity="1">ip_address</text><path fill="rgb(0,0,0)" stroke="rgb(0,0,0)" paint-order="fill stroke markers" d=" M 1303.0000007152557 261 L 1569.0000007152557 261 L 1569.0000007152557 261 A 8 8 0 0 1 1577.0000007152557 269 L 1577.0000007152557 331 L 1577.0000007152557 331 A 8 8 0 0 1 1569.0000007152557 339 L 1037.0000007152557 339 L 1037.0000007152557 339 A 8 8 0 0 1 1029.0000007152557 331 L 1029.0000007152557 269 L 1029.0000007152557 269 A 8 8 0 0 1 1037.0000007152557 261 L 1303.0000007152557 261 Z" fill-opacity="1" stroke-opacity="1" stroke-miterlimit="10" stroke-width="5"/><text fill="rgb(255,255,255)" stroke="none" font-family="Avenir, Helvetica, Arial, sans-serif" font-size="32px" font-style="normal" font-weight="bold" text-decoration="normal" x="1303.0000007152557" y="316" text-anchor="middle" dominant-baseline="text-after-edge" fill-opacity="1">dns_ptr</text><path fill="rgb(255,247,224)" stroke="rgb(255,193,7)" paint-order="fill stroke markers" d=" M 2306.0000014305115 261 L 2572.0000014305115 261 L 2572.0000014305115 261 A 8 8 0 0 1 2580.0000014305115 269 L 2580.0000014305115 331 L 2580.0000014305115 331 A 8 8 0 0 1 2572.0000014305115 339 L 2040.0000014305115 339 L 2040.0000014305115 339 A 8 8 0 0 1 2032.0000014305115 331 L 2032.0000014305115 269 L 2032.0000014305115 269 A 8 8 0 0 1 2040.0000014305115 261 L 2306.0000014305115 261 Z" fill-opacity="1" stroke-opacity="1" stroke-miterlimit="10" stroke-width="5"/><text fill="rgb(0,0,0)" stroke="none" font-family="Avenir, Helvetica, Arial, sans-serif" font-size="32px" font-style="normal" font-weight="bold" text-decoration="normal" x="2306.0000014305115" y="316" text-anchor="middle" dominant-baseline="text-after-edge" fill-opacity="1">rdns_dns_ptr</text><path fill="rgb(255,247,224)" stroke="rgb(255,193,7)" paint-order="fill stroke markers" d=" M 2306.0000014305115 394.00000071525574 L 2572.0000014305115 394.00000071525574 L 2572.0000014305115 394.00000071525574 A 8 8 0 0 1 2580.0000014305115 402.00000071525574 L 2580.0000014305115 464.00000071525574 L 2580.0000014305115 464.00000071525574 A 8 8 0 0 1 2572.0000014305115 472.00000071525574 L 2040.0000014305115 472.00000071525574 L 2040.0000014305115 472.00000071525574 A 8 8 0 0 1 2032.0000014305115 464.00000071525574 L 2032.0000014305115 402.00000071525574 L 2032.0000014305115 402.00000071525574 A 8 8 0 0 1 2040.0000014305115 394.00000071525574 L 2306.0000014305115 394.00000071525574 Z" fill-opacity="1" stroke-opacity="1" stroke-miterlimit="10" stroke-width="5"/><text fill="rgb(0,0,0)" stroke="none" font-family="Avenir, Helvetica, Arial, sans-serif" font-size="32px" font-style="normal" font-weight="bold" text-decoration="normal" x="2306.0000014305115" y="449.00000071525574" text-anchor="middle" dominant-baseline="text-after-edge" fill-opacity="1">rdns_ip_address</text><g transform="scale(5,5) translate(-58.900000000000006,-10.100000000000001)"/></g></svg>