<svg version="1.1" xmlns="http://www.w3.org/2000/svg" xmlns:xlink="http://www.w3.org/1999/xlink" width="1110" height="1112.6000000000001"><defs><linearGradient id="NbTEHQqQwbQS" x1="2306.0000014305115px" x2="2480.1000010728835px" y1="341.5px" y2="1042.5000021457672px" gradientUnits="userSpaceOnUse"><stop offset="0" stop-color="rgb(255,193,7)" stop-opacity="1"/><stop offset="1" stop-color="rgb(132,80,186)" stop-opacity="1"/></linearGradient><linearGradient id="NVWRhKbZnyTJ" x1="2306.0000014305115px" x2="2480.1000010728835px" y1="474.50000071525574px" y2="1042.5000021457672px" gradientUnits="userSpaceOnUse"><stop offset="0" stop-color="rgb(255,193,7)" stop-opacity="1"/><stop offset="1" stop-color="rgb(132,80,186)" stop-opacity="1"/></linearGradient><linearGradient id="GzuJkCLhFmXi" x1="2306.0000014305115px" x2="2480.1000010728835px" y1="607.5000014305115px" y2="1042.5000021457672px" gradientUnits="userSpaceOnUse"><stop offset="0" stop-color="rgb(255,193,7)" stop-opacity="1"/><stop offset="1" stop-color="rgb(132,80,186)" stop-opacity="1"/></linearGradient><linearGradient id="ymqNDNtGmZfU" x1="2306.0000014305115px" x2="2480.1000010728835px" y1="607.5000014305115px" y2="1042.5000021457672px" gradientUnits="userSpaceOnUse"><stop offset="0" stop-color="rgb(255,193,7)" stop-opacity="1"/><stop offset="1" stop-color="rgb(132,80,186)" stop-opacity="1"/></linearGradient><linearGradient id="pXtrLODrKzxx" x1="2480.1000010728835px" x2="3409.000002145767px" y1="1042.5000021457672px" y2="441.5px" gradientUnits="userSpaceOnUse"><stop offset="0" stop-color="rgb(132,80,186)" stop-opacity="1"/><stop offset="1" stop-color="rgb(220,71,125)" stop-opacity="1"/></linearGradient><linearGradient id="sXunHDrZyBbI" x1="2480.1000010728835px" x2="1303.0000007152557px" y1="1042.5000021457672px" y2="341.5px" gradientUnits="userSpaceOnUse"><stop offset="0" stop-color="rgb(132,80,186)" stop-opacity="1"/><stop offset="1" stop-color="rgb(0,0,0)" stop-opacity="1"/></linearGradient><linearGradient id="qWgttIdSHxDr" x1="876.5px" x2="1429.0000007152557px" y1="1399.0000021457672px" y2="1499.0000021457672px" gradientUnits="userSpaceOnUse"><stop offset="0" stop-color="rgb(255,193,7)" stop-opacity="1"/><stop offset="1" stop-color="rgb(211,211,211)" stop-opacity="1"/></linearGradient><linearGradient id="FJVWCCqOZQzX" x1="876.5px" x2="1429.0000007152557px" y1="1532.000002861023px" y2="1499.0000021457672px" gradientUnits="userSpaceOnUse"><stop offset="0" stop-color="rgb(255,193,7)" stop-opacity="1"/><stop offset="1" stop-color="rgb(211,211,211)" stop-opacity="1"/></linearGradient><linearGradient id="WABHvygroefH" x1="1429.0000007152557px" x2="876.5px" y1="1499.0000021457672px" y2="2127.2000028610228px" gradientUnits="userSpaceOnUse"><stop offset="0" stop-color="rgb(211,211,211)" stop-opacity="1"/><stop offset="1" stop-color="rgb(29,122,218)" stop-opacity="1"/></linearGradient><linearGradient id="RLovUypdTLVx" x1="1703.0000007152557px" x2="600px" y1="1538.0000021457672px" y2="2484.70000500679px" gradientUnits="userSpaceOnUse"><stop offset="0" stop-color="rgb(211,211,211)" stop-opacity="1"/><stop offset="1" stop-color="rgb(29,122,218)" stop-opacity="1"/></linearGradient><linearGradient id="zdczAdHLoSbX" x1="1703.0000007152557px" x2="600px" y1="1538.0000021457672px" y2="2218.7000035762785px" gradientUnits="userSpaceOnUse"><stop offset="0" stop-color="rgb(211,211,211)" stop-opacity="1"/><stop offset="1" stop-color="rgb(29,122,218)" stop-opacity="1"/></linearGradient><linearGradient id="CxKqKeeCQomq" x1="1703.0000007152557px" x2="600px" y1="1538.0000021457672px" y2="2617.7000057220457px" gradientUnits="userSpaceOnUse"><stop offset="0" stop-color="rgb(211,211,211)" stop-opacity="1"/><stop offset="1" stop-color="rgb(29,122,218)" stop-opacity="1"/></linearGradient><linearGradient id="aRLnvCKaohUG" x1="1703.0000007152557px" x2="600px" y1="1538.0000021457672px" y2="2351.7000042915342px" gradientUnits="userSpaceOnUse"><stop offset="0" stop-color="rgb(211,211,211)" stop-opacity="1"/><stop offset="1" stop-color="rgb(29,122,218)" stop-opacity="1"/></linearGradient><linearGradient id="TgFoKyDOhPQH" x1="3477.7000014305113px" x2="4030.200002145767px" y1="1532.000002861023px" y2="1499.0000021457672px" gradientUnits="userSpaceOnUse"><stop offset="0" stop-color="rgb(255,193,7)" stop-opacity="1"/><stop offset="1" stop-color="rgb(211,211,211)" stop-opacity="1"/></linearGradient><linearGradient id="OdyZHRtkKwcp" x1="3477.7000014305113px" x2="4030.200002145767px" y1="1399.0000021457672px" y2="1499.0000021457672px" gradientUnits="userSpaceOnUse"><stop offset="0" stop-color="rgb(255,193,7)" stop-opacity="1"/><stop offset="1" stop-color="rgb(211,211,211)" stop-opacity="1"/></linearGradient><linearGradient id="rxaIBBFvCUxR" x1="4030.200002145767px" x2="3477.7000014305113px" y1="1499.0000021457672px" y2="2127.2000028610228px" gradientUnits="userSpaceOnUse"><stop offset="0" stop-color="rgb(211,211,211)" stop-opacity="1"/><stop offset="1" stop-color="rgb(29,122,218)" stop-opacity="1"/></linearGradient><linearGradient id="iNgfLWFRFWZT" x1="4304.200002145767px" x2="3201.2000014305113px" y1="1538.0000021457672px" y2="2484.70000500679px" gradientUnits="userSpaceOnUse"><stop offset="0" stop-color="rgb(211,211,211)" stop-opacity="1"/><stop offset="1" stop-color="rgb(29,122,218)" stop-opacity="1"/></linearGradient><linearGradient id="SwuWsADGAFWQ" x1="4304.200002145767px" x2="3201.2000014305113px" y1="1538.0000021457672px" y2="2218.7000035762785px" gradientUnits="userSpaceOnUse"><stop offset="0" stop-color="rgb(211,211,211)" stop-opacity="1"/><stop offset="1" stop-color="rgb(29,122,218)" stop-opacity="1"/></linearGradient><linearGradient id="RbKvflNXzzGJ" x1="4304.200002145767px" x2="3201.2000014305113px" y1="1538.0000021457672px" y2="2617.7000057220457px" gradientUnits="userSpaceOnUse"><stop offset="0" stop-color="rgb(211,211,211)" stop-opacity="1"/><stop offset="1" stop-color="rgb(29,122,218)" stop-opacity="1"/></linearGradient><linearGradient id="wTTTWIqpOkuH" x1="4304.200002145767px" x2="3201.2000014305113px" y1="1538.0000021457672px" y2="2351.7000042915342px" gradientUnits="userSpaceOnUse"><stop offset="0" stop-color="rgb(211,211,211)" stop-opacity="1"/><stop offset="1" stop-color="rgb(29,122,218)" stop-opacity="1"/></linearGradient><linearGradient id="XBShIcNOcphy" x1="876.5px" x2="1429.0000007152557px" y1="3592.2000064373015px" y2="3692.2000064373015px" gradientUnits="userSpaceOnUse"><stop offset="0" stop-color="rgb(255,193,7)" stop-opacity="1"/><stop offset="1" stop-color="rgb(211,211,211)" stop-opacity="1"/></linearGradient><linearGradient id="iuDTqtkBGtZV" x1="876.5px" x2="1429.0000007152557px" y1="3725.200007152557px" y2="3692.2000064373015px" gradientUnits="userSpaceOnUse"><stop offset="0" stop-color="rgb(255,193,7)" stop-opacity="1"/><stop offset="1" stop-color="rgb(211,211,211)" stop-opacity="1"/></linearGradient><linearGradient id="uPHOBMLZfOqp" x1="1703.0000007152557px" x2="600px" y1="3731.2000064373015px" y2="4810.90001001358px" gradientUnits="userSpaceOnUse"><stop offset="0" stop-color="rgb(211,211,211)" stop-opacity="1"/><stop offset="1" stop-color="rgb(29,122,218)" stop-opacity="1"/></linearGradient><linearGradient id="VorIBJFdZqQS" x1="1703.0000007152557px" x2="600px" y1="3731.2000064373015px" y2="4544.9000085830685px" gradientUnits="userSpaceOnUse"><stop offset="0" stop-color="rgb(211,211,211)" stop-opacity="1"/><stop offset="1" stop-color="rgb(29,122,218)" stop-opacity="1"/></linearGradient><linearGradient id="PlkhDqUTzleh" x1="1429.0000007152557px" x2="876.5px" y1="3692.2000064373015px" y2="4320.400007152557px" gradientUnits="userSpaceOnUse"><stop offset="0" stop-color="rgb(211,211,211)" stop-opacity="1"/><stop offset="1" stop-color="rgb(29,122,218)" stop-opacity="1"/></linearGradient><linearGradient id="eIJTCdqKlFxy" x1="1703.0000007152557px" x2="600px" y1="3731.2000064373015px" y2="4677.900009298324px" gradientUnits="userSpaceOnUse"><stop offset="0" stop-color="rgb(211,211,211)" stop-opacity="1"/><stop offset="1" stop-color="rgb(29,122,218)" stop-opacity="1"/></linearGradient><linearGradient id="TmupUeySiNpo" x1="1703.0000007152557px" x2="600px" y1="3731.2000064373015px" y2="4411.900007867813px" gradientUnits="userSpaceOnUse"><stop offset="0" stop-color="rgb(211,211,211)" stop-opacity="1"/><stop offset="1" stop-color="rgb(29,122,218)" stop-opacity="1"/></linearGradient></defs><g transform="translate(58.900000000000006,10.100000000000001) scale(0.2,0.2)"><path fill="rgb(244,236,255)" stroke="rgb(255,255,255)" paint-order="fill stroke markers" d=" M 2480.1000010728835 -48.5 L 5244.700002145767 -48.5 L 5244.700002145767 -48.5 A 8 8 0 0 1 5252.700002145767 -40.5 L 5252.700002145767 5501.90001001358 L 5252.700002145767 5501.90001001358 A 8 8 0 0 1 5244.700002145767 5509.90001001358 L -284.5 5509.90001001358 L -284.5 5509.90001001358 A 8 8 0 0 1 -292.5 5501.90001001358 L -292.5 -40.5 L -292.5 -40.5 A 8 8 0 0 1 -284.5 -48.5 L 2480.1000010728835 -48.5 Z" fill-opacity="1" stroke-opacity="1" stroke-miterlimit="10" stroke-width="2"/><text fill="rgb(0,0,0)" stroke="none" font-family="Avenir, Helvetica, Arial, sans-serif" font-size="32px" font-style="normal" font-weight="bold" text-decoration="normal" x="2480.1000010728835" y="26.5" text-anchor="middle" dominant-baseline="text-after-edge" fill-opacity="1">.</text><path fill="rgb(255,255,255)" stroke="rgb(211,211,211)" paint-order="fill stroke markers" d=" M 300 157.5 L 669.5 157.5 L 669.5 157.5 A 8 8 0 0 1 677.5 165.5 L 677.5 434.5 L 677.5 434.5 A 8 8 0 0 1 669.5 442.5 L -69.5 442.5 L -69.5 442.5 A 8 8 0 0 1 -77.5 434.5 L -77.5 165.5 L -77.5 165.5 A 8 8 0 0 1 -69.5 157.5 L 300 157.5 Z" fill-opacity="1" stroke-opacity="1" stroke-miterlimit="10"/><text fill="rgb(0,0,0)" stroke="none" font-family="Avenir, Helvetica, Arial, sans-serif" font-size="32px" font-style="normal" font-weight="bold" text-decoration="normal" x="300" y="232.5" text-anchor="middle" dominant-baseline="text-after-edge" fill-opacity="1">variables.tf</text><path fill="rgb(255,255,255)" stroke="rgb(211,211,211)" paint-order="fill stroke markers" d=" M 3409.000002145767 153 L 3837.500002145767 153 L 3837.500002145767 153 A 8 8 0 0 1 3845.500002145767 161 L 3845.500002145767 593.5 L 3845.500002145767 593.5 A 8 8 0 0 1 3837.500002145767 601.5 L 2980.500002145767 601.5 L 2980.500002145767 601.5 A 8 8 0 0 1 2972.500002145767 593.5 L 2972.500002145767 161 L 2972.500002145767 161 A 8 8 0 0 1 2980.500002145767 153 L 3409.000002145767 153 Z" fill-opacity="1" stroke-opacity="1" stroke-miterlimit="10"/><text fill="rgb(0,0,0)" stroke="none" font-family="Avenir, Helvetica, Arial, sans-serif" font-size="32px" font-style="normal" font-weight="bold" text-decoration="normal" x="3409.000002145767" y="228" text-anchor="middle" dominant-baseline="text-after-edge" fill-opacity="1">data.tf</text><path fill="rgb(255,255,255)" stroke="rgb(211,211,211)" paint-order="fill stroke markers" d=" M 2480.1000010728835 941.5000021457672 L 5043.200002145767 941.5000021457672 L 5043.200002145767 941.5000021457672 A 8 8 0 0 1 5051.200002145767 949.5000021457672 L 5051.200002145767 5300.40001001358 L 5051.200002145767 5300.40001001358 A 8 8 0 0 1 5043.200002145767 5308.40001001358 L -83 5308.40001001358 L -83 5308.40001001358 A 8 8 0 0 1 -91 5300.40001001358 L -91 949.5000021457672 L -91 949.5000021457672 A 8 8 0 0 1 -83 941.5000021457672 L 2480.1000010728835 941.5000021457672 Z" fill-opacity="1" stroke-opacity="1" stroke-miterlimit="10"/><text fill="rgb(0,0,0)" stroke="none" font-family="Avenir, Helvetica, Arial, sans-serif" font-size="32px" font-style="normal" font-weight="bold" text-decoration="normal" x="2480.1000010728835" y="1016.5000021457672" text-anchor="middle" dominant-baseline="text-after-edge" fill-opacity="1">main.tf</text><path fill="rgb(255,255,255)" stroke="rgb(211,211,211)" paint-order="fill stroke markers" d=" M 1303.0000007152557 157.5 L 1672.5000007152557 157.5 L 1672.5000007152557 157.5 A 8 8 0 0 1 1680.5000007152557 165.5 L 1680.5000007152557 434.5 L 1680.5000007152557 434.5 A 8 8 0 0 1 1672.5000007152557 442.5 L 933.5000007152557 442.5 L 933.5000007152557 442.5 A 8 8 0 0 1 925.5000007152557 434.5 L 925.5000007152557 165.5 L 925.5000007152557 165.5 A 8 8 0 0 1 933.5000007152557 157.5 L 1303.0000007152557 157.5 Z" fill-opacity="1" stroke-opacity="1" stroke-miterlimit="10"/><text fill="rgb(0,0,0)" stroke="none" font-family="Avenir, Helvetica, Arial, sans-serif" font-size="32px" font-style="normal" font-weight="bold" text-decoration="normal" x="1303.0000007152557" y="232.5" text-anchor="middle" dominant-baseline="text-after-edge" fill-opacity="1">unknown file</text><path fill="rgb(255,255,255)" stroke="rgb(211,211,211)" paint-order="fill stroke markers" d=" M 2306.0000014305115 157.5 L 2675.5000014305115 157.5 L 2675.5000014305115 157.5 A 8 8 0 0 1 2683.5000014305115 165.5 L 2683.5000014305115 700.5000014305115 L 2683.5000014305115 700.5000014305115 A 8 8 0 0 1 2675.5000014305115 708.5000014305115 L 1936.5000014305115 708.5000014305115 L 1936.5000014305115 708.5000014305115 A 8 8 0 0 1 1928.5000014305115 700.5000014305115 L 1928.5000014305115 165.5 L 1928.5000014305115 165.5 A 8 8 0 0 1 1936.5000014305115 157.5 L 2306.0000014305115 157.5 Z" fill-opacity="1" stroke-opacity="1" stroke-miterlimit="10"/><text fill="rgb(0,0,0)" stroke="none" font-family="Avenir, Helvetica, Arial, sans-serif" font-size="32px" font-style="normal" font-weight="bold" text-decoration="normal" x="2306.0000014305115" y="232.5" text-anchor="middle" dominant-baseline="text-after-edge" fill-opacity="1">outputs.tf</text><path fill="rgb(255,255,255)" stroke="rgb(0,0,0)" paint-order="fill stroke markers" d=" M 3409.000002145767 302 L 3734.000002145767 302 L 3734.000002145767 302 A 8 8 0 0 1 3742.000002145767 310 L 3742.000002145767 490 L 3742.000002145767 490 A 8 8 0 0 1 3734.000002145767 498 L 3084.000002145767 498 L 3084.000002145767 498 A 8 8 0 0 1 3076.000002145767 490 L 3076.000002145767 310 L 3076.000002145767 310 A 8 8 0 0 1 3084.000002145767 302 L 3409.000002145767 302 Z" fill-opacity="1" stroke-opacity="1" stroke-miterlimit="10" stroke-width="5"/><rect fill="rgb(255,255,255)" stroke="none" x="3265.500002145767" y="253" width="287" height="96" fill-opacity="1"/><text fill="rgb(0,0,0)" stroke="none" font-family="Avenir, Helvetica, Arial, sans-serif" font-size="32px" font-style="normal" font-weight="bold" text-decoration="normal" x="3409.000002145767" y="317" text-anchor="middle" dominant-baseline="text-after-edge" fill-opacity="1">hcloud_servers</text><path fill="rgb(255,255,255)" stroke="rgb(132,80,186)" paint-order="fill stroke markers" d=" M 2480.1000010728835 1047.5000021457672 L 4937.200002145767 1047.5000021457672 L 4937.200002145767 1047.5000021457672 A 8 8 0 0 1 4945.200002145767 1055.5000021457672 L 4945.200002145767 5194.40001001358 L 4945.200002145767 5194.40001001358 A 8 8 0 0 1 4937.200002145767 5202.40001001358 L 23 5202.40001001358 L 23 5202.40001001358 A 8 8 0 0 1 15 5194.40001001358 L 15 1055.5000021457672 L 15 1055.5000021457672 A 8 8 0 0 1 23 1047.5000021457672 L 2480.1000010728835 1047.5000021457672 Z" fill-opacity="1" stroke-opacity="1" stroke-miterlimit="10" stroke-width="10"/><text fill="rgb(132,80,186)" stroke="none" font-family="Avenir, Helvetica, Arial, sans-serif" font-size="32px" font-style="normal" font-weight="bold" text-decoration="normal" x="2480.1000010728835" y="1107.5000021457672" text-anchor="middle" dominant-baseline="text-after-edge" fill-opacity="1">hcloud_rdns</text><path fill="rgb(255,255,255)" stroke="rgb(132,80,186)" paint-order="fill stroke markers" d=" M 1179.5000003576279 1153.5000021457672 L 2230.0000007152557 1153.5000021457672 L 2230.0000007152557 1153.5000021457672 A 8 8 0 0 1 2238.0000007152557 1161.5000021457672 L 2238.0000007152557 2895.2000057220457 L 2238.0000007152557 2895.2000057220457 A 8 8 0 0 1 2230.0000007152557 2903.2000057220457 L 129 2903.2000057220457 L 129 2903.2000057220457 A 8 8 0 0 1 121 2895.2000057220457 L 121 1161.5000021457672 L 121 1161.5000021457672 A 8 8 0 0 1 129 1153.5000021457672 L 1179.5000003576279 1153.5000021457672 Z" fill-opacity="1" stroke-opacity="1" stroke-miterlimit="10" stroke-width="10"/><text fill="rgb(132,80,186)" stroke="none" font-family="Avenir, Helvetica, Arial, sans-serif" font-size="32px" font-style="normal" font-weight="bold" text-decoration="normal" x="1179.5000003576279" y="1213.5000021457672" text-anchor="middle" dominant-baseline="text-after-edge" fill-opacity="1">hcloud_rdns[0]</text><path fill="rgb(255,255,255)" stroke="rgb(132,80,186)" paint-order="fill stroke markers" d=" M 3780.700001788139 1153.5000021457672 L 4831.200002145767 1153.5000021457672 L 4831.200002145767 1153.5000021457672 A 8 8 0 0 1 4839.200002145767 1161.5000021457672 L 4839.200002145767 2895.2000057220457 L 4839.200002145767 2895.2000057220457 A 8 8 0 0 1 4831.200002145767 2903.2000057220457 L 2730.2000014305113 2903.2000057220457 L 2730.2000014305113 2903.2000057220457 A 8 8 0 0 1 2722.2000014305113 2895.2000057220457 L 2722.2000014305113 1161.5000021457672 L 2722.2000014305113 1161.5000021457672 A 8 8 0 0 1 2730.2000014305113 1153.5000021457672 L 3780.700001788139 1153.5000021457672 Z" fill-opacity="1" stroke-opacity="1" stroke-miterlimit="10" stroke-width="10"/><text fill="rgb(132,80,186)" stroke="none" font-family="Avenir, Helvetica, Arial, sans-serif" font-size="32px" font-style="normal" font-weight="bold" text-decoration="normal" x="3780.700001788139" y="1213.5000021457672" text-anchor="middle" dominant-baseline="text-after-edge" fill-opacity="1">hcloud_rdns[1]</text><path fill="rgb(255,255,255)" stroke="rgb(132,80,186)" paint-order="fill stroke markers" d=" M 1179.5000003576279 3346.700006437301 L 2230.0000007152557 3346.700006437301 L 2230.0000007152557 3346.700006437301 A 8 8 0 0 1 2238.0000007152557 3354.700006437301 L 2238.0000007152557 5088.40001001358 L 2238.0000007152557 5088.40001001358 A 8 8 0 0 1 2230.0000007152557 5096.40001001358 L 129 5096.40001001358 L 129 5096.40001001358 A 8 8 0 0 1 121 5088.40001001358 L 121 3354.700006437301 L 121 3354.700006437301 A 8 8 0 0 1 129 3346.700006437301 L 1179.5000003576279 3346.700006437301 Z" fill-opacity="1" stroke-opacity="1" stroke-miterlimit="10" stroke-width="10"/><text fill="rgb(132,80,186)" stroke="none" font-family="Avenir, Helvetica, Arial, sans-serif" font-size="32px" font-style="normal" font-weight="bold" text-decoration="normal" x="1179.5000003576279" y="3406.700006437301" text-anchor="middle" dominant-baseline="text-after-edge" fill-opacity="1">hcloud_rdns[2]</text><path fill="rgb(255,255,255)" stroke="rgb(211,211,211)" paint-order="fill stroke markers" d=" M 600 1256.5000021457672 L 969.5 1256.5000021457672 L 969.5 1256.5000021457672 A 8 8 0 0 1 977.5 1264.5000021457672 L 977.5 1666.500002861023 L 977.5 1666.500002861023 A 8 8 0 0 1 969.5 1674.500002861023 L 230.5 1674.500002861023 L 230.5 1674.500002861023 A 8 8 0 0 1 222.5 1666.500002861023 L 222.5 1264.5000021457672 L 222.5 1264.5000021457672 A 8 8 0 0 1 230.5 1256.5000021457672 L 600 1256.5000021457672 Z" fill-opacity="1" stroke-opacity="1" stroke-miterlimit="10"/><text fill="rgb(0,0,0)" stroke="none" font-family="Avenir, Helvetica, Arial, sans-serif" font-size="32px" font-style="normal" font-weight="bold" text-decoration="normal" x="600" y="1331.5000021457672" text-anchor="middle" dominant-baseline="text-after-edge" fill-opacity="1">outputs.tf</text><path fill="rgb(255,255,255)" stroke="rgb(211,211,211)" paint-order="fill stroke markers" d=" M 600 1984.7000028610228 L 969.5 1984.7000028610228 L 969.5 1984.7000028610228 A 8 8 0 0 1 977.5 1992.7000028610228 L 977.5 2793.7000057220457 L 977.5 2793.7000057220457 A 8 8 0 0 1 969.5 2801.7000057220457 L 230.5 2801.7000057220457 L 230.5 2801.7000057220457 A 8 8 0 0 1 222.5 2793.7000057220457 L 222.5 1992.7000028610228 L 222.5 1992.7000028610228 A 8 8 0 0 1 230.5 1984.7000028610228 L 600 1984.7000028610228 Z" fill-opacity="1" stroke-opacity="1" stroke-miterlimit="10"/><text fill="rgb(0,0,0)" stroke="none" font-family="Avenir, Helvetica, Arial, sans-serif" font-size="32px" font-style="normal" font-weight="bold" text-decoration="normal" x="600" y="2059.7000028610228" text-anchor="middle" dominant-baseline="text-after-edge" fill-opacity="1">variables.tf</text><path fill="rgb(255,255,255)" stroke="rgb(211,211,211)" paint-order="fill stroke markers" d=" M 1703.0000007152557 1255.0000021457672 L 2128.5000007152557 1255.0000021457672 L 2128.5000007152557 1255.0000021457672 A 8 8 0 0 1 2136.5000007152557 1263.0000021457672 L 2136.5000007152557 1689.5000021457672 L 2136.5000007152557 1689.5000021457672 A 8 8 0 0 1 2128.5000007152557 1697.5000021457672 L 1277.5000007152557 1697.5000021457672 L 1277.5000007152557 1697.5000021457672 A 8 8 0 0 1 1269.5000007152557 1689.5000021457672 L 1269.5000007152557 1263.0000021457672 L 1269.5000007152557 1263.0000021457672 A 8 8 0 0 1 1277.5000007152557 1255.0000021457672 L 1703.0000007152557 1255.0000021457672 Z" fill-opacity="1" stroke-opacity="1" stroke-miterlimit="10"/><text fill="rgb(0,0,0)" stroke="none" font-family="Avenir, Helvetica, Arial, sans-serif" font-size="32px" font-style="normal" font-weight="bold" text-decoration="normal" x="1703.0000007152557" y="1330.0000021457672" text-anchor="middle" dominant-baseline="text-after-edge" fill-opacity="1">main.tf</text><path fill="rgb(255,255,255)" stroke="rgb(211,211,211)" paint-order="fill stroke markers" d=" M 4304.200002145767 1255.0000021457672 L 4729.700002145767 1255.0000021457672 L 4729.700002145767 1255.0000021457672 A 8 8 0 0 1 4737.700002145767 1263.0000021457672 L 4737.700002145767 1689.5000021457672 L 4737.700002145767 1689.5000021457672 A 8 8 0 0 1 4729.700002145767 1697.5000021457672 L 3878.700002145767 1697.5000021457672 L 3878.700002145767 1697.5000021457672 A 8 8 0 0 1 3870.700002145767 1689.5000021457672 L 3870.700002145767 1263.0000021457672 L 3870.700002145767 1263.0000021457672 A 8 8 0 0 1 3878.700002145767 1255.0000021457672 L 4304.200002145767 1255.0000021457672 Z" fill-opacity="1" stroke-opacity="1" stroke-miterlimit="10"/><text fill="rgb(0,0,0)" stroke="none" font-family="Avenir, Helvetica, Arial, sans-serif" font-size="32px" font-style="normal" font-weight="bold" text-decoration="normal" x="4304.200002145767" y="1330.0000021457672" text-anchor="middle" dominant-baseline="text-after-edge" fill-opacity="1">main.tf</text><path fill="rgb(255,255,255)" stroke="rgb(211,211,211)" paint-order="fill stroke markers" d=" M 3201.2000014305113 1256.5000021457672 L 3570.7000014305113 1256.5000021457672 L 3570.7000014305113 1256.5000021457672 A 8 8 0 0 1 3578.7000014305113 1264.5000021457672 L 3578.7000014305113 1666.500002861023 L 3578.7000014305113 1666.500002861023 A 8 8 0 0 1 3570.7000014305113 1674.500002861023 L 2831.7000014305113 1674.500002861023 L 2831.7000014305113 1674.500002861023 A 8 8 0 0 1 2823.7000014305113 1666.500002861023 L 2823.7000014305113 1264.5000021457672 L 2823.7000014305113 1264.5000021457672 A 8 8 0 0 1 2831.7000014305113 1256.5000021457672 L 3201.2000014305113 1256.5000021457672 Z" fill-opacity="1" stroke-opacity="1" stroke-miterlimit="10"/><text fill="rgb(0,0,0)" stroke="none" font-family="Avenir, Helvetica, Arial, sans-serif" font-size="32px" font-style="normal" font-weight="bold" text-decoration="normal" x="3201.2000014305113" y="1331.5000021457672" text-anchor="middle" dominant-baseline="text-after-edge" fill-opacity="1">outputs.tf</text><path fill="rgb(255,255,255)" stroke="rgb(211,211,211)" paint-order="fill stroke markers" d=" M 3201.2000014305113 1984.7000028610228 L 3570.7000014305113 1984.7000028610228 L 3570.7000014305113 1984.7000028610228 A 8 8 0 0 1 3578.7000014305113 1992.7000028610228 L 3578.7000014305113 2793.7000057220457 L 3578.7000014305113 2793.7000057220457 A 8 8 0 0 1 3570.7000014305113 2801.7000057220457 L 2831.7000014305113 2801.7000057220457 L 2831.7000014305113 2801.7000057220457 A 8 8 0 0 1 2823.7000014305113 2793.7000057220457 L 2823.7000014305113 1992.7000028610228 L 2823.7000014305113 1992.7000028610228 A 8 8 0 0 1 2831.7000014305113 1984.7000028610228 L 3201.2000014305113 1984.7000028610228 Z" fill-opacity="1" stroke-opacity="1" stroke-miterlimit="10"/><text fill="rgb(0,0,0)" stroke="none" font-family="Avenir, Helvetica, Arial, sans-serif" font-size="32px" font-style="normal" font-weight="bold" text-decoration="normal" x="3201.2000014305113" y="2059.7000028610228" text-anchor="middle" dominant-baseline="text-after-edge" fill-opacity="1">variables.tf</text><path fill="rgb(255,255,255)" stroke="rgb(211,211,211)" paint-order="fill stroke markers" d=" M 600 3449.7000064373015 L 969.5 3449.7000064373015 L 969.5 3449.7000064373015 A 8 8 0 0 1 977.5 3457.7000064373015 L 977.5 3859.700007152557 L 977.5 3859.700007152557 A 8 8 0 0 1 969.5 3867.700007152557 L 230.5 3867.700007152557 L 230.5 3867.700007152557 A 8 8 0 0 1 222.5 3859.700007152557 L 222.5 3457.7000064373015 L 222.5 3457.7000064373015 A 8 8 0 0 1 230.5 3449.7000064373015 L 600 3449.7000064373015 Z" fill-opacity="1" stroke-opacity="1" stroke-miterlimit="10"/><text fill="rgb(0,0,0)" stroke="none" font-family="Avenir, Helvetica, Arial, sans-serif" font-size="32px" font-style="normal" font-weight="bold" text-decoration="normal" x="600" y="3524.7000064373015" text-anchor="middle" dominant-baseline="text-after-edge" fill-opacity="1">outputs.tf</text><path fill="rgb(255,255,255)" stroke="rgb(211,211,211)" paint-order="fill stroke markers" d=" M 600 4177.900007152557 L 969.5 4177.900007152557 L 969.5 4177.900007152557 A 8 8 0 0 1 977.5 4185.900007152557 L 977.5 4986.90001001358 L 977.5 4986.90001001358 A 8 8 0 0 1 969.5 4994.90001001358 L 230.5 4994.90001001358 L 230.5 4994.90001001358 A 8 8 0 0 1 222.5 4986.90001001358 L 222.5 4185.900007152557 L 222.5 4185.900007152557 A 8 8 0 0 1 230.5 4177.900007152557 L 600 4177.900007152557 Z" fill-opacity="1" stroke-opacity="1" stroke-miterlimit="10"/><text fill="rgb(0,0,0)" stroke="none" font-family="Avenir, Helvetica, Arial, sans-serif" font-size="32px" font-style="normal" font-weight="bold" text-decoration="normal" x="600" y="4252.900007152557" text-anchor="middle" dominant-baseline="text-after-edge" fill-opacity="1">variables.tf</text><path fill="rgb(255,255,255)" stroke="rgb(211,211,211)" paint-order="fill stroke markers" d=" M 1703.0000007152557 3448.2000064373015 L 2128.5000007152557 3448.2000064373015 L 2128.5000007152557 3448.2000064373015 A 8 8 0 0 1 2136.5000007152557 3456.2000064373015 L 2136.5000007152557 3882.7000064373015 L 2136.5000007152557 3882.7000064373015 A 8 8 0 0 1 2128.5000007152557 3890.7000064373015 L 1277.5000007152557 3890.7000064373015 L 1277.5000007152557 3890.7000064373015 A 8 8 0 0 1 1269.5000007152557 3882.7000064373015 L 1269.5000007152557 3456.2000064373015 L 1269.5000007152557 3456.2000064373015 A 8 8 0 0 1 1277.5000007152557 3448.2000064373015 L 1703.0000007152557 3448.2000064373015 Z" fill-opacity="1" stroke-opacity="1" stroke-miterlimit="10"/><text fill="rgb(0,0,0)" stroke="none" font-family="Avenir, Helvetica, Arial, sans-serif" font-size="32px" font-style="normal" font-weight="bold" text-decoration="normal" x="1703.0000007152557" y="3523.2000064373015" text-anchor="middle" dominant-baseline="text-after-edge" fill-opacity="1">main.tf</text><path fill="rgb(255,255,255)" stroke="rgb(0,0,0)" paint-order="fill stroke markers" d=" M 1703.0000007152557 1404.0000021457672 L 2025.0000007152557 1404.0000021457672 L 2025.0000007152557 1404.0000021457672 A 8 8 0 0 1 2033.0000007152557 1412.0000021457672 L 2033.0000007152557 1586.0000021457672 L 2033.0000007152557 1586.0000021457672 A 8 8 0 0 1 2025.0000007152557 1594.0000021457672 L 1381.0000007152557 1594.0000021457672 L 1381.0000007152557 1594.0000021457672 A 8 8 0 0 1 1373.0000007152557 1586.0000021457672 L 1373.0000007152557 1412.0000021457672 L 1373.0000007152557 1412.0000021457672 A 8 8 0 0 1 1381.0000007152557 1404.0000021457672 L 1703.0000007152557 1404.0000021457672 Z" fill-opacity="1" stroke-opacity="1" stroke-miterlimit="10" stroke-width="5"/><rect fill="rgb(255,255,255)" stroke="none" x="1580.5000007152557" y="1355.0000021457672" width="245" height="96" fill-opacity="1"/><text fill="rgb(0,0,0)" stroke="none" font-family="Avenir, Helvetica, Arial, sans-serif" font-size="32px" font-style="normal" font-weight="bold" text-decoration="normal" x="1703.0000007152557" y="1419.0000021457672" text-anchor="middle" dominant-baseline="text-after-edge" fill-opacity="1">hcloud_rdns</text><path fill="rgb(255,255,255)" stroke="rgb(0,0,0)" paint-order="fill stroke markers" d=" M 4304.200002145767 1404.0000021457672 L 4626.200002145767 1404.0000021457672 L 4626.200002145767 1404.0000021457672 A 8 8 0 0 1 4634.200002145767 1412.0000021457672 L 4634.200002145767 1586.0000021457672 L 4634.200002145767 1586.0000021457672 A 8 8 0 0 1 4626.200002145767 1594.0000021457672 L 3982.200002145767 1594.0000021457672 L 3982.200002145767 1594.0000021457672 A 8 8 0 0 1 3974.200002145767 1586.0000021457672 L 3974.200002145767 1412.0000021457672 L 3974.200002145767 1412.0000021457672 A 8 8 0 0 1 3982.200002145767 1404.0000021457672 L 4304.200002145767 1404.0000021457672 Z" fill-opacity="1" stroke-opacity="1" stroke-miterlimit="10" stroke-width="5"/><rect fill="rgb(255,255,255)" stroke="none" x="4181.700002145767" y="1355.0000021457672" width="245" height="96" fill-opacity="1"/><text fill="rgb(0,0,0)" stroke="none" font-family="Avenir, Helvetica, Arial, sans-serif" font-size="32px" font-style="normal" font-weight="bold" text-decoration="normal" x="4304.200002145767" y="1419.0000021457672" text-anchor="middle" dominant-baseline="text-after-edge" fill-opacity="1">hcloud_rdns</text><path fill="rgb(255,255,255)" stroke="rgb(0,0,0)" paint-order="fill stroke markers" d=" M 1703.0000007152557 3597.2000064373015 L 2025.0000007152557 3597.2000064373015 L 2025.0000007152557 3597.2000064373015 A 8 8 0 0 1 2033.0000007152557 3605.2000064373015 L 2033.0000007152557 3779.2000064373015 L 2033.0000007152557 3779.2000064373015 A 8 8 0 0 1 2025.0000007152557 3787.2000064373015 L 1381.0000007152557 3787.2000064373015 L 1381.0000007152557 3787.2000064373015 A 8 8 0 0 1 1373.0000007152557 3779.2000064373015 L 1373.0000007152557 3605.2000064373015 L 1373.0000007152557 3605.2000064373015 A 8 8 0 0 1 1381.0000007152557 3597.2000064373015 L 1703.0000007152557 3597.2000064373015 Z" fill-opacity="1" stroke-opacity="1" stroke-miterlimit="10" stroke-width="5"/><rect fill="rgb(255,255,255)" stroke="none" x="1580.5000007152557" y="3548.2000064373015" width="245" height="96" fill-opacity="1"/><text fill="rgb(0,0,0)" stroke="none" font-family="Avenir, Helvetica, Arial, sans-serif" font-size="32px" font-style="normal" font-weight="bold" text-decoration="normal" x="1703.0000007152557" y="3612.2000064373015" text-anchor="middle" dominant-baseline="text-after-edge" fill-opacity="1">hcloud_rdns</text><path fill="none" stroke="url(#NbTEHQqQwbQS)" paint-order="fill stroke markers" d=" M 2306.0000014305115 341.5 L 2306.0000014305115 692.0000010728836 L 2480.1000010728835 692.0000010728836 L 2480.1000010728835 1042.5000021457672" stroke-linejoin="round" stroke-miterlimit="10" stroke-width="10"/><path fill="none" stroke="url(#NVWRhKbZnyTJ)" paint-order="fill stroke markers" d=" M 2306.0000014305115 474.50000071525574 L 2306.0000014305115 758.5000014305115 L 2480.1000010728835 758.5000014305115 L 2480.1000010728835 1042.5000021457672" stroke-linejoin="round" stroke-miterlimit="10" stroke-width="10"/><path fill="none" stroke="url(#GzuJkCLhFmXi)" paint-order="fill stroke markers" d=" M 2306.0000014305115 607.5000014305115 L 2306.0000014305115 825.0000017881393 L 2480.1000010728835 825.0000017881393 L 2480.1000010728835 1042.5000021457672" stroke-linejoin="round" stroke-miterlimit="10" stroke-width="10"/><path fill="none" stroke="url(#ymqNDNtGmZfU)" paint-order="fill stroke markers" d=" M 2306.0000014305115 607.5000014305115 L 2306.0000014305115 825.0000017881393 L 2480.1000010728835 825.0000017881393 L 2480.1000010728835 1042.5000021457672" stroke-linejoin="round" stroke-miterlimit="10" stroke-width="10"/><path fill="none" stroke="url(#pXtrLODrKzxx)" paint-order="fill stroke markers" d=" M 2480.1000010728835 1042.5000021457672 L 2480.1000010728835 742.0000010728836 L 3409.000002145767 742.0000010728836 L 3409.000002145767 441.5" stroke-linejoin="round" stroke-miterlimit="10" stroke-width="10"/><path fill="none" stroke="url(#sXunHDrZyBbI)" paint-order="fill stroke markers" d=" M 2480.1000010728835 1042.5000021457672 L 2480.1000010728835 692.0000010728836 L 1303.0000007152557 692.0000010728836 L 1303.0000007152557 341.5" stroke-linejoin="round" stroke-miterlimit="10" stroke-width="10"/><path fill="none" stroke="url(#qWgttIdSHxDr)" paint-order="fill stroke markers" d=" M 876.5 1399.0000021457672 L 1152.7500003576279 1399.0000021457672 L 1152.7500003576279 1499.0000021457672 L 1429.0000007152557 1499.0000021457672" stroke-linejoin="round" stroke-miterlimit="10" stroke-width="10"/><path fill="none" stroke="url(#FJVWCCqOZQzX)" paint-order="fill stroke markers" d=" M 876.5 1532.000002861023 L 1152.7500003576279 1532.000002861023 L 1152.7500003576279 1499.0000021457672 L 1429.0000007152557 1499.0000021457672" stroke-linejoin="round" stroke-miterlimit="10" stroke-width="10"/><path fill="none" stroke="url(#WABHvygroefH)" paint-order="fill stroke markers" d=" M 1429.0000007152557 1499.0000021457672 L 1152.7500003576279 1499.0000021457672 L 1152.7500003576279 2127.2000028610228 L 876.5 2127.2000028610228" stroke-linejoin="round" stroke-miterlimit="10" stroke-width="10"/><path fill="none" stroke="url(#RLovUypdTLVx)" paint-order="fill stroke markers" d=" M 1703.0000007152557 1538.0000021457672 L 1703.0000007152557 2011.3500035762786 L 600 2011.3500035762786 L 600 2484.70000500679" stroke-linejoin="round" stroke-miterlimit="10" stroke-width="10"/><path fill="none" stroke="url(#zdczAdHLoSbX)" paint-order="fill stroke markers" d=" M 1703.0000007152557 1538.0000021457672 L 1703.0000007152557 1878.3500028610229 L 600 1878.3500028610229 L 600 2218.7000035762785" stroke-linejoin="round" stroke-miterlimit="10" stroke-width="10"/><path fill="none" stroke="url(#CxKqKeeCQomq)" paint-order="fill stroke markers" d=" M 1703.0000007152557 1538.0000021457672 L 1703.0000007152557 2077.8500039339065 L 600 2077.8500039339065 L 600 2617.7000057220457" stroke-linejoin="round" stroke-miterlimit="10" stroke-width="10"/><path fill="none" stroke="url(#aRLnvCKaohUG)" paint-order="fill stroke markers" d=" M 1703.0000007152557 1538.0000021457672 L 1703.0000007152557 1944.8500032186507 L 600 1944.8500032186507 L 600 2351.7000042915342" stroke-linejoin="round" stroke-miterlimit="10" stroke-width="10"/><path fill="none" stroke="url(#TgFoKyDOhPQH)" paint-order="fill stroke markers" d=" M 3477.7000014305113 1532.000002861023 L 3753.950001788139 1532.000002861023 L 3753.950001788139 1499.0000021457672 L 4030.200002145767 1499.0000021457672" stroke-linejoin="round" stroke-miterlimit="10" stroke-width="10"/><path fill="none" stroke="url(#OdyZHRtkKwcp)" paint-order="fill stroke markers" d=" M 3477.7000014305113 1399.0000021457672 L 3753.950001788139 1399.0000021457672 L 3753.950001788139 1499.0000021457672 L 4030.200002145767 1499.0000021457672" stroke-linejoin="round" stroke-miterlimit="10" stroke-width="10"/><path fill="none" stroke="url(#rxaIBBFvCUxR)" paint-order="fill stroke markers" d=" M 4030.200002145767 1499.0000021457672 L 3753.950001788139 1499.0000021457672 L 3753.950001788139 2127.2000028610228 L 3477.7000014305113 2127.2000028610228" stroke-linejoin="round" stroke-miterlimit="10" stroke-width="10"/><path fill="none" stroke="url(#iNgfLWFRFWZT)" paint-order="fill stroke markers" d=" M 4304.200002145767 1538.0000021457672 L 4304.200002145767 2011.3500035762786 L 3201.2000014305113 2011.3500035762786 L 3201.2000014305113 2484.70000500679" stroke-linejoin="round" stroke-miterlimit="10" stroke-width="10"/><path fill="none" stroke="url(#SwuWsADGAFWQ)" paint-order="fill stroke markers" d=" M 4304.200002145767 1538.0000021457672 L 4304.200002145767 1878.3500028610229 L 3201.2000014305113 1878.3500028610229 L 3201.2000014305113 2218.7000035762785" stroke-linejoin="round" stroke-miterlimit="10" stroke-width="10"/><path fill="none" stroke="url(#RbKvflNXzzGJ)" paint-order="fill stroke markers" d=" M 4304.200002145767 1538.0000021457672 L 4304.200002145767 2077.8500039339065 L 3201.2000014305113 2077.8500039339065 L 3201.2000014305113 2617.7000057220457" stroke-linejoin="round" stroke-miterlimit="10" stroke-width="10"/><path fill="none" stroke="url(#wTTTWIqpOkuH)" paint-order="fill stroke markers" d=" M 4304.200002145767 1538.0000021457672 L 4304.200002145767 1944.8500032186507 L 3201.2000014305113 1944.8500032186507 L 3201.2000014305113 2351.7000042915342" stroke-linejoin="round" stroke-miterlimit="10" stroke-width="10"/><path fill="none" stroke="url(#XBShIcNOcphy)" paint-order="fill stroke markers" d=" M 876.5 3592.2000064373015 L 1152.7500003576279 3592.2000064373015 L 1152.7500003576279 3692.2000064373015 L 1429.0000007152557 3692.2000064373015" stroke-linejoin="round" stroke-miterlimit="10" stroke-width="10"/><path fill="none" stroke="url(#iuDTqtkBGtZV)" paint-order="fill stroke markers" d=" M 876.5 3725.200007152557 L 1152.7500003576279 3725.200007152557 L 1152.7500003576279 3692.2000064373015 L 1429.0000007152557 3692.2000064373015" stroke-linejoin="round" stroke-miterlimit="10" stroke-width="10"/><path fill="none" stroke="url(#uPHOBMLZfOqp)" paint-order="fill stroke markers" d=" M 1703.0000007152557 3731.2000064373015 L 1703.0000007152557 4271.05000822544 L 600 4271.05000822544 L 600 4810.90001001358" stroke-linejoin="round" stroke-miterlimit="10" stroke-width="10"/><path fill="none" stroke="url(#VorIBJFdZqQS)" paint-order="fill stroke markers" d=" M 1703.0000007152557 3731.2000064373015 L 1703.0000007152557 4138.0500075101845 L 600 4138.0500075101845 L 600 4544.9000085830685" stroke-linejoin="round" stroke-miterlimit="10" stroke-width="10"/><path fill="none" stroke="url(#PlkhDqUTzleh)" paint-order="fill stroke markers" d=" M 1429.0000007152557 3692.2000064373015 L 1152.7500003576279 3692.2000064373015 L 1152.7500003576279 4320.400007152557 L 876.5 4320.400007152557" stroke-linejoin="round" stroke-miterlimit="10" stroke-width="10"/><path fill="none" stroke="url(#eIJTCdqKlFxy)" paint-order="fill stroke markers" d=" M 1703.0000007152557 3731.2000064373015 L 1703.0000007152557 4204.550007867812 L 600 4204.550007867812 L 600 4677.900009298324" stroke-linejoin="round" stroke-miterlimit="10" stroke-width="10"/><path fill="none" stroke="url(#TmupUeySiNpo)" paint-order="fill stroke markers" d=" M 1703.0000007152557 3731.2000064373015 L 1703.0000007152557 4071.550007152557 L 600 4071.550007152557 L 600 4411.900007867813" stroke-linejoin="round" stroke-miterlimit="10" stroke-width="10"/><path fill="rgb(225,240,255)" stroke="rgb(29,122,218)" paint-order="fill stroke markers" d=" M 300 261 L 566 261 L 566 261 A 8 8 0 0 1 574 269 L 574 331 L 574 331 A 8 8 0 0 1 566 339 L 34 339 L 34 339 A 8 8 0 0 1 26 331 L 26 269 L 26 269 A 8 8 0 0 1 34 261 L 300 261 Z" fill-opacity="1" stroke-opacity="1" stroke-miterlimit="10" stroke-width="5"/><text fill="rgb(0,0,0)" stroke="none" font-family="Avenir, Helvetica, Arial, sans-serif" font-size="32px" font-style="normal" font-weight="bold" text-decoration="normal" x="300" y="316" text-anchor="middle" dominant-baseline="text-after-edge" fill-opacity="1">token</text><path fill="rgb(255,236,236)" stroke="rgb(220,71,125)" paint-order="fill stroke markers" d=" M 3409.000002145767 361 L 3675.000002145767 361 L 3675.000002145767 361 A 8 8 0 0 1 3683.000002145767 369 L 3683.000002145767 431 L 3683.000002145767 431 A 8 8 0 0 1 3675.000002145767 439 L 3143.000002145767 439 L 3143.000002145767 439 A 8 8 0 0 1 3135.000002145767 431 L 3135.000002145767 369 L 3135.000002145767 369 A 8 8 0 0 1 3143.000002145767 361 L 3409.000002145767 361 Z" fill-opacity="1" stroke-opacity="1" stroke-miterlimit="10" stroke-width="5"/><text fill="rgb(0,0,0)" stroke="none" font-family="Avenir, Helvetica, Arial, sans-serif" font-size="32px" font-style="normal" font-weight="bold" text-decoration="normal" x="3409.000002145767" y="416" text-anchor="middle" dominant-baseline="text-after-edge" fill-opacity="1">default</text><path fill="rgb(255,247,224)" stroke="rgb(255,193,7)" paint-order="fill stroke markers" d=" M 600 1360.0000021457672 L 866 1360.0000021457672 L 866 1360.0000021457672 A 8 8 0 0 1 874 1368.0000021457672 L 874 1430.0000021457672 L 874 1430.0000021457672 A 8 8 0 0 1 866 1438.0000021457672 L 334 1438.0000021457672 L 334 1438.0000021457672 A 8 8 0 0 1 326 1430.0000021457672 L 326 1368.0000021457672 L 326 1368.0000021457672 A 8 8 0 0 1 334 1360.0000021457672 L 600 1360.0000021457672 Z" fill-opacity="1" stroke-opacity="1" stroke-miterlimit="10" stroke-width="5"/><text fill="rgb(0,0,0)" stroke="none" font-family="Avenir, Helvetica, Arial, sans-serif" font-size="32px" font-style="normal" font-weight="bold" text-decoration="normal" x="600" y="1415.0000021457672" text-anchor="middle" dominant-baseline="text-after-edge" fill-opacity="1">ip_address</text><path fill="rgb(255,247,224)" stroke="rgb(255,193,7)" paint-order="fill stroke markers" d=" M 600 1493.000002861023 L 866 1493.000002861023 L 866 1493.000002861023 A 8 8 0 0 1 874 1501.000002861023 L 874 1563.000002861023 L 874 1563.000002861023 A 8 8 0 0 1 866 1571.000002861023 L 334 1571.000002861023 L 334 1571.000002861023 A 8 8 0 0 1 326 1563.000002861023 L 326 1501.000002861023 L 326 1501.000002861023 A 8 8 0 0 1 334 1493.000002861023 L 600 1493.000002861023 Z" fill-opacity="1" stroke-opacity="1" stroke-miterlimit="10" stroke-width="5"/><text fill="rgb(0,0,0)" stroke="none" font-family="Avenir, Helvetica, Arial, sans-serif" font-size="32px" font-style="normal" font-weight="bold" text-decoration="normal" x="600" y="1548.000002861023" text-anchor="middle" dominant-baseline="text-after-edge" fill-opacity="1">dns_ptr</text><path fill="rgb(225,240,255)" stroke="rgb(29,122,218)" paint-order="fill stroke markers" d=" M 600 2088.2000028610228 L 866 2088.2000028610228 L 866 2088.2000028610228 A 8 8 0 0 1 874 2096.2000028610228 L 874 2158.2000028610228 L 874 2158.2000028610228 A 8 8 0 0 1 866 2166.2000028610228 L 334 2166.2000028610228 L 334 2166.2000028610228 A 8 8 0 0 1 326 2158.2000028610228 L 326 2096.2000028610228 L 326 2096.2000028610228 A 8 8 0 0 1 334 2088.2000028610228 L 600 2088.2000028610228 Z" fill-opacity="1" stroke-opacity="1" stroke-miterlimit="10" stroke-width="5"/><text fill="rgb(0,0,0)" stroke="none" font-family="Avenir, Helvetica, Arial, sans-serif" font-size="32px" font-style="normal" font-weight="bold" text-decoration="normal" x="600" y="2143.2000028610228" text-anchor="middle" dominant-baseline="text-after-edge" fill-opacity="1">dns_ptr</text><path fill="rgb(225,240,255)" stroke="rgb(29,122,218)" paint-order="fill stroke markers" d=" M 600 2221.2000035762785 L 866 2221.2000035762785 L 866 2221.2000035762785 A 8 8 0 0 1 874 2229.2000035762785 L 874 2291.2000035762785 L 874 2291.2000035762785 A 8 8 0 0 1 866 2299.2000035762785 L 334 2299.2000035762785 L 334 2299.2000035762785 A 8 8 0 0 1 326 2291.2000035762785 L 326 2229.2000035762785 L 326 2229.2000035762785 A 8 8 0 0 1 334 2221.2000035762785 L 600 2221.2000035762785 Z" fill-opacity="1" stroke-opacity="1" stroke-miterlimit="10" stroke-width="5"/><text fill="rgb(0,0,0)" stroke="none" font-family="Avenir, Helvetica, Arial, sans-serif" font-size="32px" font-style="normal" font-weight="bold" text-decoration="normal" x="600" y="2276.2000035762785" text-anchor="middle" dominant-baseline="text-after-edge" fill-opacity="1">ip_address</text><path fill="rgb(225,240,255)" stroke="rgb(29,122,218)" paint-order="fill stroke markers" d=" M 600 2354.2000042915342 L 866 2354.2000042915342 L 866 2354.2000042915342 A 8 8 0 0 1 874 2362.2000042915342 L 874 2424.2000042915342 L 874 2424.2000042915342 A 8 8 0 0 1 866 2432.2000042915342 L 334 2432.2000042915342 L 334 2432.2000042915342 A 8 8 0 0 1 326 2424.2000042915342 L 326 2362.2000042915342 L 326 2362.2000042915342 A 8 8 0 0 1 334 2354.2000042915342 L 600 2354.2000042915342 Z" fill-opacity="1" stroke-opacity="1" stroke-miterlimit="10" stroke-width="5"/><text fill="rgb(0,0,0)" stroke="none" font-family="Avenir, Helvetica, Arial, sans-serif" font-size="32px" font-style="normal" font-weight="bold" text-decoration="normal" x="600" y="2409.2000042915342" text-anchor="middle" dominant-baseline="text-after-edge" fill-opacity="1">server_id</text><path fill="rgb(225,240,255)" stroke="rgb(29,122,218)" paint-order="fill stroke markers" d=" M 600 2487.20000500679 L 866 2487.20000500679 L 866 2487.20000500679 A 8 8 0 0 1 874 2495.20000500679 L 874 2557.20000500679 L 874 2557.20000500679 A 8 8 0 0 1 866 2565.20000500679 L 334 2565.20000500679 L 334 2565.20000500679 A 8 8 0 0 1 326 2557.20000500679 L 326 2495.20000500679 L 326 2495.20000500679 A 8 8 0 0 1 334 2487.20000500679 L 600 2487.20000500679 Z" fill-opacity="1" stroke-opacity="1" stroke-miterlimit="10" stroke-width="5"/><text fill="rgb(0,0,0)" stroke="none" font-family="Avenir, Helvetica, Arial, sans-serif" font-size="32px" font-style="normal" font-weight="bold" text-decoration="normal" x="600" y="2542.20000500679" text-anchor="middle" dominant-baseline="text-after-edge" fill-opacity="1">floating_ip_id</text><path fill="rgb(225,240,255)" stroke="rgb(29,122,218)" paint-order="fill stroke markers" d=" M 600 2620.2000057220457 L 866 2620.2000057220457 L 866 2620.2000057220457 A 8 8 0 0 1 874 2628.2000057220457 L 874 2690.2000057220457 L 874 2690.2000057220457 A 8 8 0 0 1 866 2698.2000057220457 L 334 2698.2000057220457 L 334 2698.2000057220457 A 8 8 0 0 1 326 2690.2000057220457 L 326 2628.2000057220457 L 326 2628.2000057220457 A 8 8 0 0 1 334 2620.2000057220457 L 600 2620.2000057220457 Z" fill-opacity="1" stroke-opacity="1" stroke-miterlimit="10" stroke-width="5"/><text fill="rgb(0,0,0)" stroke="none" font-family="Avenir, Helvetica, Arial, sans-serif" font-size="32px" font-style="normal" font-weight="bold" text-decoration="normal" x="600" y="2675.2000057220457" text-anchor="middle" dominant-baseline="text-after-edge" fill-opacity="1">load_balancer_id</text><path fill="rgb(40,167,69)" stroke="none" paint-order="stroke fill markers" d=" M 1703.0000007152557 1460.0000021457672 L 1969.0000007152557 1460.0000021457672 L 1969.0000007152557 1460.0000021457672 A 8 8 0 0 1 1977.0000007152557 1468.0000021457672 L 1977.0000007152557 1530.0000021457672 L 1977.0000007152557 1530.0000021457672 A 8 8 0 0 1 1969.0000007152557 1538.0000021457672 L 1437.0000007152557 1538.0000021457672 L 1437.0000007152557 1538.0000021457672 A 8 8 0 0 1 1429.0000007152557 1530.0000021457672 L 1429.0000007152557 1468.0000021457672 L 1429.0000007152557 1468.0000021457672 A 8 8 0 0 1 1437.0000007152557 1460.0000021457672 L 1703.0000007152557 1460.0000021457672 Z" fill-opacity="1"/><text fill="rgb(255,255,255)" stroke="none" font-family="Avenir, Helvetica, Arial, sans-serif" font-size="32px" font-style="normal" font-weight="bold" text-decoration="normal" x="1703.0000007152557" y="1515.0000021457672" text-anchor="middle" dominant-baseline="text-after-edge" fill-opacity="1">default</text><path fill="rgb(40,167,69)" stroke="none" paint-order="stroke fill markers" d=" M 4304.200002145767 1460.0000021457672 L 4570.200002145767 1460.0000021457672 L 4570.200002145767 1460.0000021457672 A 8 8 0 0 1 4578.200002145767 1468.0000021457672 L 4578.200002145767 1530.0000021457672 L 4578.200002145767 1530.0000021457672 A 8 8 0 0 1 4570.200002145767 1538.0000021457672 L 4038.200002145767 1538.0000021457672 L 4038.200002145767 1538.0000021457672 A 8 8 0 0 1 4030.200002145767 1530.0000021457672 L 4030.200002145767 1468.0000021457672 L 4030.200002145767 1468.0000021457672 A 8 8 0 0 1 4038.200002145767 1460.0000021457672 L 4304.200002145767 1460.0000021457672 Z" fill-opacity="1"/><text fill="rgb(255,255,255)" stroke="none" font-family="Avenir, Helvetica, Arial, sans-serif" font-size="32px" font-style="normal" font-weight="bold" text-decoration="normal" x="4304.200002145767" y="1515.0000021457672" text-anchor="middle" dominant-baseline="text-after-edge" fill-opacity="1">default</text><path fill="rgb(255,247,224)" stroke="rgb(255,193,7)" paint-order="fill stroke markers" d=" M 3201.2000014305113 1360.0000021457672 L 3467.2000014305113 1360.0000021457672 L 3467.2000014305113 1360.0000021457672 A 8 8 0 0 1 3475.2000014305113 1368.0000021457672 L 3475.2000014305113 1430.0000021457672 L 3475.2000014305113 1430.0000021457672 A 8 8 0 0 1 3467.2000014305113 1438.0000021457672 L 2935.2000014305113 1438.0000021457672 L 2935.2000014305113 1438.0000021457672 A 8 8 0 0 1 2927.2000014305113 1430.0000021457672 L 2927.2000014305113 1368.0000021457672 L 2927.2000014305113 1368.0000021457672 A 8 8 0 0 1 2935.2000014305113 1360.0000021457672 L 3201.2000014305113 1360.0000021457672 Z" fill-opacity="1" stroke-opacity="1" stroke-miterlimit="10" stroke-width="5"/><text fill="rgb(0,0,0)" stroke="none" font-family="Avenir, Helvetica, Arial, sans-serif" font-size="32px" font-style="normal" font-weight="bold" text-decoration="normal" x="3201.2000014305113" y="1415.0000021457672" text-anchor="middle" dominant-baseline="text-after-edge" fill-opacity="1">dns_ptr</text><path fill="rgb(255,247,224)" stroke="rgb(255,193,7)" paint-order="fill stroke markers" d=" M 3201.2000014305113 1493.000002861023 L 3467.2000014305113 1493.000002861023 L 3467.2000014305113 1493.000002861023 A 8 8 0 0 1 3475.2000014305113 1501.000002861023 L 3475.2000014305113 1563.000002861023 L 3475.2000014305113 1563.000002861023 A 8 8 0 0 1 3467.2000014305113 1571.000002861023 L 2935.2000014305113 1571.000002861023 L 2935.2000014305113 1571.000002861023 A 8 8 0 0 1 2927.2000014305113 1563.000002861023 L 2927.2000014305113 1501.000002861023 L 2927.2000014305113 1501.000002861023 A 8 8 0 0 1 2935.2000014305113 1493.000002861023 L 3201.2000014305113 1493.000002861023 Z" fill-opacity="1" stroke-opacity="1" stroke-miterlimit="10" stroke-width="5"/><text fill="rgb(0,0,0)" stroke="none" font-family="Avenir, Helvetica, Arial, sans-serif" font-size="32px" font-style="normal" font-weight="bold" text-decoration="normal" x="3201.2000014305113" y="1548.000002861023" text-anchor="middle" dominant-baseline="text-after-edge" fill-opacity="1">ip_address</text><path fill="rgb(225,240,255)" stroke="rgb(29,122,218)" paint-order="fill stroke markers" d=" M 3201.2000014305113 2088.2000028610228 L 3467.2000014305113 2088.2000028610228 L 3467.2000014305113 2088.2000028610228 A 8 8 0 0 1 3475.2000014305113 2096.2000028610228 L 3475.2000014305113 2158.2000028610228 L 3475.2000014305113 2158.2000028610228 A 8 8 0 0 1 3467.2000014305113 2166.2000028610228 L 2935.2000014305113 2166.2000028610228 L 2935.2000014305113 2166.2000028610228 A 8 8 0 0 1 2927.2000014305113 2158.2000028610228 L 2927.2000014305113 2096.2000028610228 L 2927.2000014305113 2096.2000028610228 A 8 8 0 0 1 2935.2000014305113 2088.2000028610228 L 3201.2000014305113 2088.2000028610228 Z" fill-opacity="1" stroke-opacity="1" stroke-miterlimit="10" stroke-width="5"/><text fill="rgb(0,0,0)" stroke="none" font-family="Avenir, Helvetica, Arial, sans-serif" font-size="32px" font-style="normal" font-weight="bold" text-decoration="normal" x="3201.2000014305113" y="2143.2000028610228" text-anchor="middle" dominant-baseline="text-after-edge" fill-opacity="1">dns_ptr</text><path fill="rgb(225,240,255)" stroke="rgb(29,122,218)" paint-order="fill stroke markers" d=" M 3201.2000014305113 2221.2000035762785 L 3467.2000014305113 2221.2000035762785 L 3467.2000014305113 2221.2000035762785 A 8 8 0 0 1 3475.2000014305113 2229.2000035762785 L 3475.2000014305113 2291.2000035762785 L 3475.2000014305113 2291.2000035762785 A 8 8 0 0 1 3467.2000014305113 2299.2000035762785 L 2935.2000014305113 2299.2000035762785 L 2935.2000014305113 2299.2000035762785 A 8 8 0 0 1 2927.2000014305113 2291.2000035762785 L 2927.2000014305113 2229.2000035762785 L 2927.2000014305113 2229.2000035762785 A 8 8 0 0 1 2935.2000014305113 2221.2000035762785 L 3201.2000014305113 2221.2000035762785 Z" fill-opacity="1" stroke-opacity="1" stroke-miterlimit="10" stroke-width="5"/><text fill="rgb(0,0,0)" stroke="none" font-family="Avenir, Helvetica, Arial, sans-serif" font-size="32px" font-style="normal" font-weight="bold" text-decoration="normal" x="3201.2000014305113" y="2276.2000035762785" text-anchor="middle" dominant-baseline="text-after-edge" fill-opacity="1">ip_address</text><path fill="rgb(225,240,255)" stroke="rgb(29,122,218)" paint-order="fill stroke markers" d=" M 3201.2000014305113 2354.2000042915342 L 3467.2000014305113 2354.2000042915342 L 3467.2000014305113 2354.2000042915342 A 8 8 0 0 1 3475.2000014305113 2362.2000042915342 L 3475.2000014305113 2424.2000042915342 L 3475.2000014305113 2424.2000042915342 A 8 8 0 0 1 3467.2000014305113 2432.2000042915342 L 2935.2000014305113 2432.2000042915342 L 2935.2000014305113 2432.2000042915342 A 8 8 0 0 1 2927.2000014305113 2424.2000042915342 L 2927.2000014305113 2362.2000042915342 L 2927.2000014305113 2362.2000042915342 A 8 8 0 0 1 2935.2000014305113 2354.2000042915342 L 3201.2000014305113 2354.2000042915342 Z" fill-opacity="1" stroke-opacity="1" stroke-miterlimit="10" stroke-width="5"/><text fill="rgb(0,0,0)" stroke="none" font-family="Avenir, Helvetica, Arial, sans-serif" font-size="32px" font-style="normal" font-weight="bold" text-decoration="normal" x="3201.2000014305113" y="2409.2000042915342" text-anchor="middle" dominant-baseline="text-after-edge" fill-opacity="1">server_id</text><path fill="rgb(225,240,255)" stroke="rgb(29,122,218)" paint-order="fill stroke markers" d=" M 3201.2000014305113 2487.20000500679 L 3467.2000014305113 2487.20000500679 L 3467.2000014305113 2487.20000500679 A 8 8 0 0 1 3475.2000014305113 2495.20000500679 L 3475.2000014305113 2557.20000500679 L 3475.2000014305113 2557.20000500679 A 8 8 0 0 1 3467.2000014305113 2565.20000500679 L 2935.2000014305113 2565.20000500679 L 2935.2000014305113 2565.20000500679 A 8 8 0 0 1 2927.2000014305113 2557.20000500679 L 2927.2000014305113 2495.20000500679 L 2927.2000014305113 2495.20000500679 A 8 8 0 0 1 2935.2000014305113 2487.20000500679 L 3201.2000014305113 2487.20000500679 Z" fill-opacity="1" stroke-opacity="1" stroke-miterlimit="10" stroke-width="5"/><text fill="rgb(0,0,0)" stroke="none" font-family="Avenir, Helvetica, Arial, sans-serif" font-size="32px" font-style="normal" font-weight="bold" text-decoration="normal" x="3201.2000014305113" y="2542.20000500679" text-anchor="middle" dominant-baseline="text-after-edge" fill-opacity="1">floating_ip_id</text><path fill="rgb(225,240,255)" stroke="rgb(29,122,218)" paint-order="fill stroke markers" d=" M 3201.2000014305113 2620.2000057220457 L 3467.2000014305113 2620.2000057220457 L 3467.2000014305113 2620.2000057220457 A 8 8 0 0 1 3475.2000014305113 2628.2000057220457 L 3475.2000014305113 2690.2000057220457 L 3475.2000014305113 2690.2000057220457 A 8 8 0 0 1 3467.2000014305113 2698.2000057220457 L 2935.2000014305113 2698.2000057220457 L 2935.2000014305113 2698.2000057220457 A 8 8 0 0 1 2927.2000014305113 2690.2000057220457 L 2927.2000014305113 2628.2000057220457 L 2927.2000014305113 2628.2000057220457 A 8 8 0 0 1 2935.2000014305113 2620.2000057220457 L 3201.2000014305113 2620.2000057220457 Z" fill-opacity="1" stroke-opacity="1" stroke-miterlimit="10" stroke-width="5"/><text fill="rgb(0,0,0)" stroke="none" font-family="Avenir, Helvetica, Arial, sans-serif" font-size="32px" font-style="normal" font-weight="bold" text-decoration="normal" x="3201.2000014305113" y="2675.2000057220457" text-anchor="middle" dominant-baseline="text-after-edge" fill-opacity="1">load_balancer_id</text><path fill="rgb(255,247,224)" stroke="rgb(255,193,7)" paint-order="fill stroke markers" d=" M 600 3553.2000064373015 L 866 3553.2000064373015 L 866 3553.2000064373015 A 8 8 0 0 1 874 3561.2000064373015 L 874 3623.2000064373015 L 874 3623.2000064373015 A 8 8 0 0 1 866 3631.2000064373015 L 334 3631.2000064373015 L 334 3631.2000064373015 A 8 8 0 0 1 326 3623.2000064373015 L 326 3561.2000064373015 L 326 3561.2000064373015 A 8 8 0 0 1 334 3553.2000064373015 L 600 3553.2000064373015 Z" fill-opacity="1" stroke-opacity="1" stroke-miterlimit="10" stroke-width="5"/><text fill="rgb(0,0,0)" stroke="none" font-family="Avenir, Helvetica, Arial, sans-serif" font-size="32px" font-style="normal" font-weight="bold" text-decoration="normal" x="600" y="3608.2000064373015" text-anchor="middle" dominant-baseline="text-after-edge" fill-opacity="1">dns_ptr</text><path fill="rgb(255,247,224)" stroke="rgb(255,193,7)" paint-order="fill stroke markers" d=" M 600 3686.200007152557 L 866 3686.200007152557 L 866 3686.200007152557 A 8 8 0 0 1 874 3694.200007152557 L 874 3756.200007152557 L 874 3756.200007152557 A 8 8 0 0 1 866 3764.200007152557 L 334 3764.200007152557 L 334 3764.200007152557 A 8 8 0 0 1 326 3756.200007152557 L 326 3694.200007152557 L 326 3694.200007152557 A 8 8 0 0 1 334 3686.200007152557 L 600 3686.200007152557 Z" fill-opacity="1" stroke-opacity="1" stroke-miterlimit="10" stroke-width="5"/><text fill="rgb(0,0,0)" stroke="none" font-family="Avenir, Helvetica, Arial, sans-serif" font-size="32px" font-style="normal" font-weight="bold" text-decoration="normal" x="600" y="3741.200007152557" text-anchor="middle" dominant-baseline="text-after-edge" fill-opacity="1">ip_address</text><path fill="rgb(225,240,255)" stroke="rgb(29,122,218)" paint-order="fill stroke markers" d=" M 600 4281.400007152557 L 866 4281.400007152557 L 866 4281.400007152557 A 8 8 0 0 1 874 4289.400007152557 L 874 4351.400007152557 L 874 4351.400007152557 A 8 8 0 0 1 866 4359.400007152557 L 334 4359.400007152557 L 334 4359.400007152557 A 8 8 0 0 1 326 4351.400007152557 L 326 4289.400007152557 L 326 4289.400007152557 A 8 8 0 0 1 334 4281.400007152557 L 600 4281.400007152557 Z" fill-opacity="1" stroke-opacity="1" stroke-miterlimit="10" stroke-width="5"/><text fill="rgb(0,0,0)" stroke="none" font-family="Avenir, Helvetica, Arial, sans-serif" font-size="32px" font-style="normal" font-weight="bold" text-decoration="normal" x="600" y="4336.400007152557" text-anchor="middle" dominant-baseline="text-after-edge" fill-opacity="1">dns_ptr</text><path fill="rgb(225,240,255)" stroke="rgb(29,122,218)" paint-order="fill stroke markers" d=" M 600 4414.400007867813 L 866 4414.400007867813 L 866 4414.400007867813 A 8 8 0 0 1 874 4422.400007867813 L 874 4484.400007867813 L 874 4484.400007867813 A 8 8 0 0 1 866 4492.400007867813 L 334 4492.400007867813 L 334 4492.400007867813 A 8 8 0 0 1 326 4484.400007867813 L 326 4422.400007867813 L 326 4422.400007867813 A 8 8 0 0 1 334 4414.400007867813 L 600 4414.400007867813 Z" fill-opacity="1" stroke-opacity="1" stroke-miterlimit="10" stroke-width="5"/><text fill="rgb(0,0,0)" stroke="none" font-family="Avenir, Helvetica, Arial, sans-serif" font-size="32px" font-style="normal" font-weight="bold" text-decoration="normal" x="600" y="4469.400007867813" text-anchor="middle" dominant-baseline="text-after-edge" fill-opacity="1">ip_address</text><path fill="rgb(225,240,255)" stroke="rgb(29,122,218)" paint-order="fill stroke markers" d=" M 600 4547.4000085830685 L 866 4547.4000085830685 L 866 4547.4000085830685 A 8 8 0 0 1 874 4555.4000085830685 L 874 4617.4000085830685 L 874 4617.4000085830685 A 8 8 0 0 1 866 4625.4000085830685 L 334 4625.4000085830685 L 334 4625.4000085830685 A 8 8 0 0 1 326 4617.4000085830685 L 326 4555.4000085830685 L 326 4555.4000085830685 A 8 8 0 0 1 334 4547.4000085830685 L 600 4547.4000085830685 Z" fill-opacity="1" stroke-opacity="1" stroke-miterlimit="10" stroke-width="5"/><text fill="rgb(0,0,0)" stroke="none" font-family="Avenir, Helvetica, Arial, sans-serif" font-size="32px" font-style="normal" font-weight="bold" text-decoration="normal" x="600" y="4602.4000085830685" text-anchor="middle" dominant-baseline="text-after-edge" fill-opacity="1">server_id</text><path fill="rgb(225,240,255)" stroke="rgb(29,122,218)" paint-order="fill stroke markers" d=" M 600 4680.400009298324 L 866 4680.400009298324 L 866 4680.400009298324 A 8 8 0 0 1 874 4688.400009298324 L 874 4750.400009298324 L 874 4750.400009298324 A 8 8 0 0 1 866 4758.400009298324 L 334 4758.400009298324 L 334 4758.400009298324 A 8 8 0 0 1 326 4750.400009298324 L 326 4688.400009298324 L 326 4688.400009298324 A 8 8 0 0 1 334 4680.400009298324 L 600 4680.400009298324 Z" fill-opacity="1" stroke-opacity="1" stroke-miterlimit="10" stroke-width="5"/><text fill="rgb(0,0,0)" stroke="none" font-family="Avenir, Helvetica, Arial, sans-serif" font-size="32px" font-style="normal" font-weight="bold" text-decoration="normal" x="600" y="4735.400009298324" text-anchor="middle" dominant-baseline="text-after-edge" fill-opacity="1">floating_ip_id</text><path fill="rgb(225,240,255)" stroke="rgb(29,122,218)" paint-order="fill stroke markers" d=" M 600 4813.40001001358 L 866 4813.40001001358 L 866 4813.40001001358 A 8 8 0 0 1 874 4821.40001001358 L 874 4883.40001001358 L 874 4883.40001001358 A 8 8 0 0 1 866 4891.40001001358 L 334 4891.40001001358 L 334 4891.40001001358 A 8 8 0 0 1 326 4883.40001001358 L 326 4821.40001001358 L 326 4821.40001001358 A 8 8 0 0 1 334 4813.40001001358 L 600 4813.40001001358 Z" fill-opacity="1" stroke-opacity="1" stroke-miterlimit="10" stroke-width="5"/><text fill="rgb(0,0,0)" stroke="none" font-family="Avenir, Helvetica, Arial, sans-serif" font-size="32px" font-style="normal" font-weight="bold" text-decoration="normal" x="600" y="4868.40001001358" text-anchor="middle" dominant-baseline="text-after-edge" fill-opacity="1">load_balancer_id</text><path fill="rgb(40,167,69)" stroke="none" paint-order="stroke fill markers" d=" M 1703.0000007152557 3653.2000064373015 L 1969.0000007152557 3653.2000064373015 L 1969.0000007152557 3653.2000064373015 A 8 8 0 0 1 1977.0000007152557 3661.2000064373015 L 1977.0000007152557 3723.2000064373015 L 1977.0000007152557 3723.2000064373015 A 8 8 0 0 1 1969.0000007152557 3731.2000064373015 L 1437.0000007152557 3731.2000064373015 L 1437.0000007152557 3731.2000064373015 A 8 8 0 0 1 1429.0000007152557 3723.2000064373015 L 1429.0000007152557 3661.2000064373015 L 1429.0000007152557 3661.2000064373015 A 8 8 0 0 1 1437.0000007152557 3653.2000064373015 L 1703.0000007152557 3653.2000064373015 Z" fill-opacity="1"/><text fill="rgb(255,255,255)" stroke="none" font-family="Avenir, Helvetica, Arial, sans-serif" font-size="32px" font-style="normal" font-weight="bold" text-decoration="normal" x="1703.0000007152557" y="3708.2000064373015" text-anchor="middle" dominant-baseline="text-after-edge" fill-opacity="1">default</text><path fill="rgb(0,0,0)" stroke="rgb(0,0,0)" paint-order="fill stroke markers" d=" M 1303.0000007152557 261 L 1569.0000007152557 261 L 1569.0000007152557 261 A 8 8 0 0 1 1577.0000007152557 269 L 1577.0000007152557 331 L 1577.0000007152557 331 A 8 8 0 0 1 1569.0000007152557 339 L 1037.0000007152557 339 L 1037.0000007152557 339 A 8 8 0 0 1 1029.0000007152557 331 L 1029.0000007152557 269 L 1029.0000007152557 269 A 8 8 0 0 1 1037.0000007152557 261 L 1303.0000007152557 261 Z" fill-opacity="1" stroke-opacity="1" stroke-miterlimit="10" stroke-width="5"/><text fill="rgb(255,255,255)" stroke="none" font-family="Avenir, Helvetica, Arial, sans-serif" font-size="32px" font-style="normal" font-weight="bold" text-decoration="normal" x="1303.0000007152557" y="316" text-anchor="middle" dominant-baseline="text-after-edge" fill-opacity="1">dns_ptr</text><path fill="rgb(255,247,224)" stroke="rgb(255,193,7)" paint-order="fill stroke markers" d=" M 2306.0000014305115 261 L 2572.0000014305115 261 L 2572.0000014305115 261 A 8 8 0 0 1 2580.0000014305115 269 L 2580.0000014305115 331 L 2580.0000014305115 331 A 8 8 0 0 1 2572.0000014305115 339 L 2040.0000014305115 339 L 2040.0000014305115 339 A 8 8 0 0 1 2032.0000014305115 331 L 2032.0000014305115 269 L 2032.0000014305115 269 A 8 8 0 0 1 2040.0000014305115 261 L 2306.0000014305115 261 Z" fill-opacity="1" stroke-opacity="1" stroke-miterlimit="10" stroke-width="5"/><text fill="rgb(0,0,0)" stroke="none" font-family="Avenir, Helvetica, Arial, sans-serif" font-size="32px" font-style="normal" font-weight="bold" text-decoration="normal" x="2306.0000014305115" y="316" text-anchor="middle" dominant-baseline="text-after-edge" fill-opacity="1">rdns_dns_ptr</text><path fill="rgb(255,247,224)" stroke="rgb(255,193,7)" paint-order="fill stroke markers" d=" M 2306.0000014305115 394.00000071525574 L 2572.0000014305115 394.00000071525574 L 2572.0000014305115 394.00000071525574 A 8 8 0 0 1 2580.0000014305115 402.00000071525574 L 2580.0000014305115 464.00000071525574 L 2580.0000014305115 464.00000071525574 A 8 8 0 0 1 2572.0000014305115 472.00000071525574 L 2040.0000014305115 472.00000071525574 L 2040.0000014305115 472.00000071525574 A 8 8 0 0 1 2032.0000014305115 464.00000071525574 L 2032.0000014305115 402.00000071525574 L 2032.0000014305115 402.00000071525574 A 8 8 0 0 1 2040.0000014305115 394.00000071525574 L 2306.0000014305115 394.00000071525574 Z" fill-opacity="1" stroke-opacity="1" stroke-miterlimit="10" stroke-width="5"/><text fill="rgb(0,0,0)" stroke="none" font-family="Avenir, Helvetica, Arial, sans-serif" font-size="32px" font-style="normal" font-weight="bold" text-decoration="normal" x="2306.0000014305115" y="449.00000071525574" text-anchor="middle" dominant-baseline="text-after-edge" fill-opacity="1">rdns_ip_address</text><path fill="rgb(255,247,224)" stroke="rgb(255,193,7)" paint-order="fill stroke markers" d=" M 2306.0000014305115 527.0000014305115 L 2572.0000014305115 527.0000014305115 L 2572.0000014305115 527.0000014305115 A 8 8 0 0 1 2580.0000014305115 535.0000014305115 L 2580.0000014305115 597.0000014305115 L 2580.0000014305115 597.0000014305115 A 8 8 0 0 1 2572.0000014305115 605.0000014305115 L 2040.0000014305115 605.0000014305115 L 2040.0000014305115 605.0000014305115 A 8 8 0 0 1 2032.0000014305115 597.0000014305115 L 2032.0000014305115 535.0000014305115 L 2032.0000014305115 535.0000014305115 A 8 8 0 0 1 2040.0000014305115 527.0000014305115 L 2306.0000014305115 527.0000014305115 Z" fill-opacity="1" stroke-opacity="1" stroke-miterlimit="10" stroke-width="5"/><text fill="rgb(0,0,0)" stroke="none" font-family="Avenir, Helvetica, Arial, sans-serif" font-size="32px" font-style="normal" font-weight="bold" text-decoration="normal" x="2306.0000014305115" y="582.0000014305115" text-anchor="middle" dominant-baseline="text-after-edge" fill-opacity="1">rdns_id</text><g transform="scale(5,5) translate(-58.900000000000006,-10.100000000000001)"/></g></svg>